<?xml version="1.0" standalone="no"?>
<!DOCTYPE svg PUBLIC "-//W3C//DTD SVG 20010904//EN"
 "http://www.w3.org/TR/2001/REC-SVG-20010904/DTD/svg10.dtd">
<svg version="1.0" xmlns="http://www.w3.org/2000/svg"
 width="250.000000pt" height="251.000000pt" viewBox="0 0 250.000000 251.000000"
 preserveAspectRatio="xMidYMid meet">

<g transform="translate(0.000000,251.000000) scale(0.100000,-0.100000)"
fill="#000000" stroke="none">
<path d="M973 2307 c-5 -9 129 -147 631 -647 185 -184 335 -340 334 -347 -2
-7 -222 -232 -490 -501 -269 -269 -488 -495 -488 -501 0 -8 66 -11 228 -11
l229 0 494 501 c272 276 495 507 497 514 3 11 -941 954 -983 981 -23 14 -443
25 -452 11z"/>
<path d="M90 2230 c0 -5 21 -31 48 -58 26 -26 229 -231 452 -455 l404 -406
-320 -323 c-177 -178 -380 -382 -453 -455 -72 -73 -131 -139 -131 -148 0 -13
29 -15 222 -15 l222 0 458 457 c253 252 463 466 469 475 7 14 -24 49 -178 200
-104 100 -314 307 -468 460 l-280 278 -223 0 c-141 0 -222 -4 -222 -10z"/>
</g>
</svg>
