<?xml version="1.0" standalone="no"?>
<!DOCTYPE svg PUBLIC "-//W3C//DTD SVG 1.1//EN" "http://www.w3.org/Graphics/SVG/1.1/DTD/svg11.dtd" >
<svg xmlns="http://www.w3.org/2000/svg" xmlns:xlink="http://www.w3.org/1999/xlink" version="1.1">
<metadata></metadata>
<defs>
<font id="arista_2.0_alternate_fullRg" horiz-adv-x="1075" >
<font-face units-per-em="2048" ascent="1638" descent="-410" />
<missing-glyph horiz-adv-x="460" />
<glyph horiz-adv-x="0" />
<glyph horiz-adv-x="682" />
<glyph unicode=" "  horiz-adv-x="460" />
<glyph unicode="&#x09;" horiz-adv-x="460" />
<glyph unicode="&#xa0;" horiz-adv-x="460" />
<glyph unicode="!" horiz-adv-x="417" d="M70 137q0 57 41 98t100 41q53 0 94 -41t41 -98q0 -55 -41 -96t-94 -41q-59 0 -100 41t-41 96zM70 479v690q0 59 41 99.5t100 40.5q53 0 94 -40t41 -100v-690q0 -59 -41 -99t-94 -40q-59 0 -100 40t-41 99z" />
<glyph unicode="&#x22;" horiz-adv-x="759" d="M72 915v256q0 57 41 97.5t98 40.5q59 0 98 -40t39 -98v-256q0 -57 -39 -97t-98 -40q-57 0 -98 40t-41 97zM412 915v256q0 57 41 97.5t98 40.5q59 0 98 -40t39 -98v-256q0 -57 -39 -97t-98 -40q-57 0 -98 40t-41 97z" />
<glyph unicode="#" horiz-adv-x="1216" d="M39 481q0 57 40 98.5t99 41.5h88l25 77q-59 0 -99 40t-40 100q0 55 39.5 95t99.5 40h86l76 241q16 55 68 81t108 10q53 -16 78.5 -67.5t11.5 -104.5l-53 -160h84l73 241q20 55 70.5 82t103.5 9q57 -14 84 -65.5t11 -106.5l-52 -160q57 0 98.5 -40t41.5 -95 q0 -59 -41 -99.5t-99 -40.5h-88l-22 -77q57 0 97 -41t40 -99q0 -57 -40 -98t-97 -41h-88l-78 -244q-16 -55 -67.5 -81.5t-106.5 -8.5q-55 16 -82 66.5t-8 105.5l51 162h-82l-78 -244q-16 -55 -66.5 -81.5t-105.5 -8.5q-55 16 -81.5 66.5t-8.5 105.5l51 162h-2q-59 0 -99 41 t-40 98zM559 621h80l25 77h-84z" />
<glyph unicode="$" horiz-adv-x="1095" d="M43 911q0 76 30.5 147.5t85 127t126.5 88.5q66 33 125 35q2 55 41 96q43 43 102 43t102 -43q41 -41 43 -96h187q55 0 94 -40t43 -100q0 -59 -39 -98t-98 -39h-187v-241q55 -6 107 -29q72 -31 127 -85t88 -127t33 -155q0 -80 -31 -151.5t-84 -124.5t-125 -86 q-61 -27 -115 -33q-4 -53 -43 -94q-43 -43 -102 -43t-102 43q-39 41 -41 94h-197q-61 0 -100 40t-39 99q0 55 40 96t99 41h197v240q-63 6 -121 33q-72 31 -126 83t-87 123.5t-33 155.5zM319 907q2 -47 35 -82q25 -23 56 -30v233q-31 -8 -56 -33q-33 -35 -35 -88zM698 283 q25 8 45 28q37 35 37 84q0 51 -37 84q-20 20 -45 29v-225z" />
<glyph unicode="%" horiz-adv-x="1726" d="M37 971q6 141 112.5 239.5t249.5 98.5t243.5 -106.5t100.5 -252.5q0 -139 -100 -245.5t-244 -106.5q-160 4 -261 100.5t-101 272.5zM285 956q0 -53 31.5 -81.5t78.5 -30.5q41 0 73 32.5t32 73.5q0 45 -32 77t-73 32q-45 0 -76.5 -31t-33.5 -72zM563 182l328 1032 q16 55 66.5 82t105.5 9q55 -16 81.5 -67.5t10.5 -104.5l-328 -1035q-16 -53 -68 -79.5t-106 -10.5q-53 16 -79.5 66.5t-10.5 107.5zM983 379q6 141 113 239.5t250 98.5t243.5 -106.5t100.5 -252.5q0 -139 -100.5 -245.5t-243.5 -106.5q-160 4 -261.5 100.5t-101.5 272.5z M1231 365q0 -53 31.5 -82t78.5 -31q41 0 73 32.5t32 73.5q0 45 -32 77t-73 32q-45 0 -76.5 -30.5t-33.5 -71.5z" />
<glyph unicode="&#x26;" horiz-adv-x="1230" d="M63.5 406.5q2.5 76.5 35 151.5t100.5 136q-49 49 -78 113.5t-29 140.5q0 74 29 139.5t77 114.5t113.5 77t139.5 28q117 0 201.5 -63.5t123.5 -158t24.5 -200t-95.5 -191.5q-12 -10 -24.5 -20t-23.5 -21l113 -100l107 119q35 41 87 43t91 -33q41 -35 43 -87t-33 -93 l-102 -117l192 -166q39 -35 42 -88t-32 -92q-35 -41 -89 -43t-91 33l-190 166l-80 -95q-53 -47 -120 -73.5t-144 -26.5q-90 0 -164 35t-124 92t-76 130t-23.5 149.5zM315 393q0 -55 39 -95t97 -40q55 0 94 39l57 63l-184 164q-45 -12 -74 -48t-29 -83zM348 948 q0 -35 27.5 -68.5t75.5 -33.5q43 0 73.5 29.5t30.5 72.5t-30.5 74t-73.5 31t-73 -31t-30 -74z" />
<glyph unicode="'" horiz-adv-x="409" d="M66 920v256q0 57 41 97t98 40q59 0 98 -40t39 -97v-256q0 -57 -39 -97.5t-98 -40.5q-57 0 -98 40t-41 98z" />
<glyph unicode="(" horiz-adv-x="792" d="M55 225v584q0 100 41 190.5t109.5 160t160 110.5t193.5 41h27q59 0 99 -40t40 -97q0 -59 -40 -98.5t-99 -39.5q-51 0 -96.5 -28.5t-80 -72.5t-55 -98.5t-20.5 -103.5v-479q0 -49 20.5 -95t55 -82t80 -56.5t96.5 -20.5q59 0 99 -39t40 -98q0 -57 -40 -97t-99 -40h-27 q-102 0 -193.5 40.5t-160 109.5t-109.5 160t-41 189z" />
<glyph unicode=")" horiz-adv-x="794" d="M70 -137q0 59 40 98t99 39q51 0 96 20.5t80 56.5t55.5 82t20.5 95v479q0 49 -20.5 103.5t-55.5 98.5t-80 72.5t-96 28.5q-59 0 -99 39t-40 99q0 57 40 97t99 40h27q100 0 192 -41t160.5 -110.5t109.5 -160t41 -190.5v-584q0 -98 -41 -189t-109.5 -160t-160.5 -109.5 t-192 -40.5h-27q-59 0 -99 39.5t-40 97.5z" />
<glyph unicode="*" horiz-adv-x="755" d="M61.5 978q10.5 48 51.5 77q-41 29 -51.5 79t16.5 97q29 45 76 59.5t94 -8.5q6 53 42 87t89 34t90 -34t43 -83q47 18 93 3t73 -58q27 -47 15.5 -97.5t-52.5 -78.5q41 -29 52.5 -77t-15.5 -93q-29 -45 -74 -61.5t-92 1.5q-6 -49 -43 -81.5t-90 -32.5t-89 32.5t-42 83.5 q-47 -23 -94.5 -6t-75.5 64q-27 45 -16.5 93z" />
<glyph unicode="+" horiz-adv-x="847" d="M27 614q0 59 38.5 99.5t98.5 40.5h121v120q0 59 40 99.5t99 40.5q57 0 98 -40t41 -100v-120h119q59 0 100 -40t41 -100q0 -57 -41 -98t-100 -41h-119v-119q0 -59 -41 -100t-98 -41q-59 0 -99 41t-40 100v119h-121q-59 0 -98 41t-39 98z" />
<glyph unicode="," horiz-adv-x="409" d="M66 -115v256q0 55 40 96.5t97 41.5q59 0 100 -41t41 -97v-256q0 -57 -41 -97t-100 -40q-57 0 -97 40t-40 97z" />
<glyph unicode="-" horiz-adv-x="931" d="M68 616q0 59 38.5 99.5t98.5 40.5h522q57 0 97 -40.5t40 -99.5q0 -57 -40 -98t-97 -41h-522q-59 0 -98 41t-39 98z" />
<glyph unicode="." horiz-adv-x="387" d="M55 139q0 57 40 98.5t98 41.5q59 0 100 -41.5t41 -98.5t-41 -98t-100 -41q-57 0 -97.5 41t-40.5 98z" />
<glyph unicode="/" horiz-adv-x="661" d="M35 180l327 1032q16 55 69 82t106 9q53 -16 79.5 -67.5t10.5 -105.5l-328 -1034q-16 -53 -67.5 -79.5t-104.5 -10.5q-55 16 -82 66.5t-10 107.5z" />
<glyph unicode="0" horiz-adv-x="1095" d="M53 496q0 102 38 191t104.5 155.5t158 106.5t195.5 44q100 0 190 -39t158 -106.5t107.5 -157.5t39.5 -194q0 -102 -38.5 -191.5t-105 -157t-157 -106.5t-194.5 -39q-102 0 -192.5 37t-158 103.5t-106.5 156.5t-39 197z" />
<glyph unicode="1" horiz-adv-x="583" d="M27.5 781.5q13.5 54.5 64.5 82.5q215 139 270 140q59 0 102.5 -43t43.5 -103v-723q0 -55 -39 -95t-94 -40h-25q-57 0 -96 40t-39 95v490q-43 -23 -92 -9q-53 14 -80 64q-29 47 -15.5 101.5z" />
<glyph unicode="2" horiz-adv-x="997" d="M61 157.5q2 53.5 70 98.5l455 336q35 25 37 59q-2 45 -34 67.5t-93 20.5q-55 0 -98.5 -30.5t-69.5 -75.5q-23 -35 -51.5 -58.5t-73.5 -23.5q-57 0 -98.5 41t-41.5 98q0 55 44.5 122t129.5 117t142 61t100 11q109 0 181.5 -22.5t131 -70.5t94.5 -113.5t36 -151.5 q0 -127 -113 -209l-217 -158h209q55 0 96 -38.5t41 -98.5q0 -57 -41 -98t-96 -41h-600q-39 2 -71 22.5t-51.5 51t-17.5 84z" />
<glyph unicode="3" horiz-adv-x="1007" d="M57.5 6.5q3.5 34.5 20 63t46.5 47t69 18.5q53 0 94 -41q25 -18 40 -40.5t33.5 -43t44 -34t89.5 -13.5q78 0 130 52.5t52 129.5q0 76 -52.5 128.5t-129.5 52.5h-74q-12 -2 -25 -2q-10 0 -18 2h2h-2q-45 6 -78 41q-43 41 -43 97t41 97l164 166h-217q-59 0 -98.5 41 t-39.5 98q0 59 39 99.5t99 40.5h501q18 0 35 -5q47 -3 86 -38q41 -45 41 -102.5t-39 -98.5l-198 -199q80 -35 143 -94q63 -61 101 -144t38 -180q0 -96 -35.5 -179t-98 -145.5t-146.5 -98t-178 -35.5q-76 0 -139.5 18.5t-121 51t-103.5 78.5t-64 104q-12 33 -8.5 67.5z" />
<glyph unicode="4" horiz-adv-x="942" d="M27 139v2l227 774q27 53 74 79t100 5q55 -20 83 -75.5t-1 -106.5l-180 -541h184q2 55 42 94.5t93 39.5q59 0 99 -39t43 -95q53 -4 91 -44t38 -93q0 -55 -38 -95t-91 -44v-203q0 -37 -41 -76.5t-101 -39.5q-55 0 -95 39.5t-40 76.5v203h-350q-57 0 -97 40t-40 99z" />
<glyph unicode="5" horiz-adv-x="999" d="M63 471v393q0 59 41 99.5t99 40.5h508q59 0 99 -40t40 -100q0 -57 -40 -97t-99 -40h-377v-117h155q90 -2 173 -36.5t146.5 -96t101.5 -144.5t38 -179q0 -104 -35.5 -187.5t-98 -146t-146.5 -98t-179 -35.5q-66 0 -124 18.5t-115 51t-103.5 78.5t-64.5 104q-12 33 -8 67.5 t20.5 63t46 47t68.5 18.5q53 0 94 -41q25 -18 40 -40.5t33.5 -43t44 -34t68.5 -13.5q78 0 130.5 52.5t52.5 138.5q0 76 -52.5 128t-130.5 52h-286q-53 0 -96.5 40t-43.5 97z" />
<glyph unicode="6" horiz-adv-x="1083" d="M52 561q11 98 61 184l301 525q29 45 82 55t96 -14q49 -29 63.5 -82t-12.5 -99l-76 -133q115 -8 224 -71q92 -51 151 -131t83 -171.5t11.5 -188.5t-63.5 -185q-51 -90 -130 -148.5t-171 -83t-189.5 -13t-185.5 62.5q-88 49 -146.5 130t-84 173t-14.5 190z" />
<glyph unicode="7" horiz-adv-x="1028" d="M55 864q0 57 41 98.5t97 41.5h679q39 -2 71 -22.5t49.5 -52.5t17.5 -65t-23 -84l-561 -1024q-39 -51 -97.5 -60t-105.5 21q-47 31 -58 85.5t19 101.5l447 823h-438q-55 0 -96.5 39t-41.5 98z" />
<glyph unicode="8" horiz-adv-x="1024" d="M49 463q0 94 36 178t97 145q14 14 29 27q-39 76 -39 184q6 133 106.5 226.5t233.5 93.5q135 0 230.5 -100.5t95.5 -235.5q0 -84 -37 -156q20 -16 39 -34q63 -61 100 -146.5t37 -181.5t-37 -180t-98.5 -146.5t-146.5 -99.5t-181 -37t-181 35t-147.5 97.5t-99.5 146 t-37 184.5z" />
<glyph unicode="9" horiz-adv-x="1083" d="M47 570.5q12 97.5 64 185.5q51 90 129.5 148.5t171 83t189.5 13t185 -62.5q88 -49 146.5 -130t84 -173t14.5 -190.5t-60 -184.5l-301 -524q-29 -45 -82 -55.5t-96 14.5q-49 29 -63.5 82t11.5 98l76 133q-115 8 -223 72q-92 51 -151.5 131t-83 171t-11.5 188.5z" />
<glyph unicode=":" horiz-adv-x="399" d="M61 139q0 57 40 98.5t98 41.5q59 0 100 -41.5t41 -98.5t-41 -98t-100 -41q-57 0 -97.5 41t-40.5 98zM61 854q0 57 40 98t98 41q59 0 100 -41t41 -98t-41 -98t-100 -41q-57 0 -97.5 41t-40.5 98z" />
<glyph unicode=";" horiz-adv-x="409" d="M66 -115q0 -57 39.5 -97t97.5 -40q59 0 100 40t41 97v256q0 55 -41 96.5t-100 41.5q-57 0 -97 -41t-40 -97v-256zM66 854q0 57 39.5 98t97.5 41q59 0 100 -41t41 -98t-41 -98t-100 -41q-57 0 -97 41t-40 98z" />
<glyph unicode="&#x3c;" horiz-adv-x="792" d="M17 614.5q1 36.5 17.5 69.5t45.5 47l446 238q49 27 102.5 10.5t80.5 -66.5q27 -49 9 -102t-67 -80l-221 -119l221 -116q49 -27 66.5 -80.5t-8.5 -102.5q-27 -49 -80.5 -65.5t-102.5 10.5l-446 236q-33 16 -48.5 50t-14.5 70.5z" />
<glyph unicode="=" horiz-adv-x="913" d="M70 545q0 55 38.5 95t96.5 40h506q55 0 94 -40t39 -95t-39 -95t-94 -40h-506q-57 0 -96 39.5t-39 95.5zM70 899q0 55 38.5 95t96.5 40h506q55 0 94 -40t39 -95t-39 -95t-94 -40h-506q-57 0 -96 40t-39 95z" />
<glyph unicode="&#x3e;" horiz-adv-x="792" d="M74.5 415.5q17.5 53.5 66.5 80.5l221 116l-221 119q-49 27 -66.5 80t9.5 102t80 65.5t102 -9.5l447 -238q29 -14 45 -47t17 -69.5t-14.5 -70.5t-47.5 -50l-447 -236q-49 -27 -102 -10.5t-80 65.5t-9.5 102.5z" />
<glyph unicode="?" horiz-adv-x="899" d="M41 879q0 82 29.5 159.5t84 138t131.5 96.5t171 36q86 0 160.5 -33t132 -88t90 -131t32.5 -162q0 -72 -21.5 -134.5t-59.5 -115.5q-53 -72 -134.5 -118t-177.5 -50v-2q0 -55 -40 -96t-99 -41q-57 0 -96 41t-39 96v139v15q0 53 41 88t94 39h135q51 6 86 46t35 93 q0 59 -41 100t-98 41q-59 0 -100.5 -41t-41.5 -100q0 -57 -41 -97t-98 -40q-53 0 -92 33.5t-43 87.5zM205 137q0 55 39 95t94 40q57 0 97 -40t40 -95q0 -57 -40 -97t-97 -40q-55 0 -94 40t-39 97z" />
<glyph unicode="@" horiz-adv-x="1499" d="M51 604q0 145 55.5 273.5t150.5 223.5t223.5 150.5t273.5 55.5t272 -55.5t222 -150.5t150.5 -223t55.5 -274q0 -41 -3 -84t-17 -84q-29 -86 -105 -141t-174 -59q-106 0 -188 69q-94 -70 -213 -69q-74 0 -140.5 28.5t-117 78.5t-81 116.5t-30.5 144.5q0 76 28.5 143.5 t79 117.5t118 79t143.5 29q96 0 176 -45t129 -119q29 -45 45 -96t16 -109q0 -18 -3 -35.5t-3 -33.5q0 -39 39 -39q12 0 22.5 9t14.5 21q6 37 6 78q0 123 -59 219q-57 100 -158.5 162t-224.5 62q-92 0 -172 -35t-140.5 -95.5t-95.5 -140.5t-35 -172t35 -172t95.5 -140.5 t140.5 -95t172 -34.5q72 0 131 20q27 10 53 11q53 0 91 -38t38 -92q0 -41 -24.5 -74.5t-65.5 -49.5q-109 -37 -223 -37q-145 0 -273.5 55t-223.5 150.5t-150.5 223.5t-55.5 273zM645 604q0 -45 31 -76.5t78 -31.5q45 0 76.5 31.5t31.5 76.5t-31.5 77t-76.5 32q-47 0 -78 -32 t-31 -77z" />
<glyph unicode="A" horiz-adv-x="1165" d="M53 186l402 1031q16 37 53 63.5t76 26.5q41 0 76.5 -25t52.5 -65l399 -1031q9 -25 10 -50q0 -28 -12 -55q-22 -52 -76 -75q-24 -9 -49 -9q-28 1 -56 13q-52 24 -345 24q-294 0 -346 -24q-28 -13 -56 -13q-24 0 -49 9q-53 23 -77 75q-13 28 -12 56q0 25 9 49z" />
<glyph unicode="B" horiz-adv-x="1142" d="M76 137v1030q0 55 40 96.5t99 41.5h469q80 0 151.5 -31t124 -83t83 -124t30.5 -152q0 -72 -24.5 -136t-67.5 -115q47 -53 73.5 -120t26.5 -145q0 -84 -31.5 -156.5t-85 -126t-127 -85t-155.5 -31.5h-467q-59 0 -99 40t-40 97z" />
<glyph unicode="C" horiz-adv-x="1284" d="M49 655q0 135 51.5 254t139.5 208t207.5 140.5t254.5 51.5q154 0 285 -66.5t221 -177.5q23 -34 23 -65q0 -60 -43 -101q-41 -39 -41 -226v-17q2 -202 43 -243.5t41 -90.5q0 -47 -23 -76q-90 -111 -221 -177.5t-285 -66.5q-135 0 -254.5 51t-207.5 140.5t-139.5 208 t-51.5 253.5z" />
<glyph unicode="D" horiz-adv-x="1261" d="M76 139v1030q0 53 40 96.5t99 43.5h346q260 0 454.5 -187.5t196.5 -466.5q0 -262 -190.5 -458.5t-460.5 -196.5h-346q-55 0 -97 40t-42 99z" />
<glyph unicode="E" horiz-adv-x="1007" d="M76 139v1030q0 53 39 96.5t98 43.5h586q57 0 97 -41t40 -99q0 -59 -40 -98t-110 -155q-44 -73 -43 -117q0 -26 15 -41q41 -41 41 -99l-17 -61q-25 -43 -25 -90q0 -79 69 -169q110 -144 110 -200q0 -59 -40 -99t-97 -40h-586q-53 0 -95 40t-42 99z" />
<glyph unicode="F" horiz-adv-x="952" d="M76 139v1030q0 53 40 96.5t99 43.5h586q57 0 97 -41t40 -99q0 -59 -40 -98t-97 -39h-447v-305h310q59 0 98 -41t39 -98t-39 -97t-98 -40h-310v-312q0 -59 -40 -99t-99 -40t-99 40t-40 99z" />
<glyph unicode="G" horiz-adv-x="1316" d="M49 655q0 135 51.5 254t139.5 208t207.5 140.5t254.5 51.5q154 0 285 -66.5t221 -177.5q23 -27 23 -68q0 -57 -43 -99t-101 -42q-53 0 -81 31q-53 68 -132 108.5t-172 40.5q-80 0 -149.5 -29.5t-121.5 -82t-82 -121t-30 -148.5t30 -149.5t82 -121.5t122 -82t149 -30 q78 0 144.5 28t120.5 77q22 28 22 78v12q-59 0 -99 40t-40 99q0 55 40 94t99 39h135q59 0 98.5 -38.5t39.5 -94.5v-139q0 -117 -28 -174t-58 -88q-90 -96 -212 -149.5t-262 -53.5q-135 0 -254.5 51t-207.5 140.5t-139.5 208t-51.5 253.5z" />
<glyph unicode="H" horiz-adv-x="1153" d="M76 137v1032q0 63 44 100.5t101 37.5t97 -41t263.5 -41t264.5 41t90 41q53 0 97 -39t44 -99v-1032q0 -27 -11 -51.5t-31.5 -43.5t-46 -30.5t-52.5 -11.5q-49 0 -90 40t-264.5 40t-263 -40t-97.5 -40q-63 0 -103 39t-42 98z" />
<glyph unicode="I" horiz-adv-x="425" d="M74 137v1032q0 55 40 96.5t99 41.5q55 0 95 -41t40 -97v-1032q0 -57 -40 -97t-95 -40q-59 0 -99 40t-40 97z" />
<glyph unicode="J" horiz-adv-x="686" d="M16 -150q0 57 40 98.5t96 41.5q39 0 74.5 14t61 40t41 60.5t15.5 73.5v991q0 55 39 96.5t94 41.5q59 0 100 -41t41 -97v-991q-2 -98 -37.5 -181t-98 -145.5t-147.5 -99.5t-183 -39q-55 0 -95.5 39t-40.5 98z" />
<glyph unicode="K" horiz-adv-x="1144" d="M74 137v1032q0 55 41 96.5t98 41.5q59 0 99 -41t40 -97v-321l477 418q43 41 99.5 41t97.5 -41t41 -97.5t-41 -97.5l-330 -289l353 -571q22 -34 22 -71q-1 -16 -5 -32q-14 -54 -60 -85q-36 -22 -74 -22q-16 0 -32 4q-54 13 -85 63l-326 528l-137 -137v-322q0 -57 -40 -97 t-99 -40q-57 0 -98 40t-41 97z" />
<glyph unicode="L" horiz-adv-x="993" d="M76 141v1030q0 57 41 97.5t100 40.5q53 0 95 -40t42 -98v-892h494q55 0 95 -40t40 -98q0 -59 -40 -99t-95 -40h-631q-59 0 -98 40t-43 99z" />
<glyph unicode="M" horiz-adv-x="1523" d="M72 139v754q6 88 38.5 164t87 132t127 88t158.5 32q82 -2 150.5 -30t128.5 -77q55 53 127 80t145 27q86 0 162 -34t132 -91.5t89 -132t35 -158.5v-754q0 -57 -42 -98t-97 -41q-57 0 -98 41t-456 41t-454 -41t-98 -41q-57 0 -96 41t-39 98z" />
<glyph unicode="N" horiz-adv-x="1128" d="M68 127v680q2 102 39.5 192.5t104.5 158t157 106.5t196 39q98 0 188.5 -36t158 -100.5t108.5 -152.5t41 -191v-690q0 -53 -38 -92t-93 -41q-55 0 -95 36q-41 36 -269 40h-39q-192 0 -230 -36q-41 -40 -94 -40t-94 37t-41 90z" />
<glyph unicode="O" horiz-adv-x="1406" d="M51 655q0 135 51.5 254t139.5 208t207.5 140.5t255.5 51.5q135 0 253.5 -51.5t206.5 -140.5t139.5 -207.5t51.5 -254.5q0 -135 -51.5 -253.5t-139.5 -208t-206.5 -140.5t-253.5 -51t-255 51t-208 140.5t-139.5 208t-51.5 253.5z" />
<glyph unicode="P" horiz-adv-x="1083" d="M68 137v678q0 102 37.5 191.5t104 156t158 106.5t195.5 44q100 0 190.5 -39t158 -106.5t107.5 -157.5t40 -195q0 -102 -39 -191t-105.5 -157t-156.5 -106.5t-195 -38.5q-102 0 -192 36l-29 13v-234q0 -57 -40 -97t-95 -40q-59 0 -99 40t-40 97z" />
<glyph unicode="Q" horiz-adv-x="1456" d="M49 655q0 135 51.5 254t139.5 208t207.5 140.5t254.5 51.5t254 -51.5t207 -140.5t139.5 -207.5t51.5 -254.5q0 -129 -46 -240.5t-124 -197.5q14 -2 28 4q25 8 49 8q26 0 53 -9q50 -17 68 -73q9 -27 9 -52q0 -29 -12 -57q-23 -52 -91 -77q-59 -20 -112 -20q-8 0 -16 1 q-60 3 -122 35q-51 29 -92 72q-117 -47 -244 -47q-135 0 -254.5 51t-207.5 140.5t-139.5 208t-51.5 253.5z" />
<glyph unicode="R" horiz-adv-x="1048" d="M68 139v705q2 92 37.5 177t99 148.5t147.5 101.5t183 38q90 0 174 -37t147.5 -99.5t101 -147.5t37.5 -181q0 -147 -79.5 -263t-213.5 -173l172 -172q20 -20 29.5 -46t9.5 -52.5t-9 -52.5t-30 -46q-41 -39 -97 -39t-97 39l-336 336v-236q0 -59 -41 -99t-98 -40 q-55 0 -96 40t-41 99z" />
<glyph unicode="S" horiz-adv-x="1038" d="M55 313q0 57 41 98.5t99 41.5q45 0 73.5 -23.5t50.5 -58.5q25 -41 68 -66q35 -20 90 -35q4 0 17.5 -1t27.5 -2h4q17 0 66 5q49 6 82 32t37 79q-2 49 -35 74.5t-80 36.5l-143 24q-76 10 -145.5 38t-125 82t-88.5 128q-31 70 -31 147v9q0 80 31 150.5t85 120.5t128 81 q51 20 109 29q47 8 98 8q59 0 107 -11q84 -14 155 -55q35 -12 115 -88q10 -12 21.5 -30.5t17.5 -36.5q3 -16 3 -31q1 -37 -21 -73q-30 -50 -89 -62q-17 -4 -32 -4q-25 0 -45 11q-32 17 -64 44q-33 35 -65.5 52t-93 17t-99.5 -13t-63.5 -41.5t-24.5 -71.5v-5q0 -47 34 -80 q36 -34 93 -40l131 -19q100 -14 186 -51t129 -84t60.5 -101.5t17.5 -138.5q-2 -76 -32.5 -148.5t-85 -126.5t-127 -86t-152.5 -34l-33 -2q-23 -2 -45 0q-59 0 -106 10q-84 14 -156 56q-109 61 -172 172q-8 14 -15.5 34.5t-7.5 38.5z" />
<glyph unicode="T" d="M33 1169q0 57 40 98.5t97 41.5h735q59 0 99 -41t40 -99q0 -59 -39.5 -98t-99.5 -39h-229v-893q0 -59 -39 -99t-98 -40t-98.5 40t-39.5 99v893h-231q-57 0 -97 39t-40 98z" />
<glyph unicode="U" horiz-adv-x="1128" d="M68 502v680q0 53 41 90t94 37t94 -40q37 -36 230 -36h39q228 4 268 40t96 36q55 -2 93 -41t38 -92v-691q0 -102 -41 -190t-108.5 -152.5t-158 -100.5t-188.5 -36q-106 0 -196 39t-157 106.5t-104.5 157.5t-39.5 193z" />
<glyph unicode="V" horiz-adv-x="1165" d="M53 1120q-9 24 -9 49q0 29 12 57q24 52 77 74q25 9 49 9q28 0 56 -12q52 -23 345.5 -23t345.5 24q27 12 55 12q25 0 50 -10q53 -22 76 -74q12 -27 12 -55q0 -25 -10 -51l-399 -1030q-16 -41 -52 -65.5t-77 -24.5q-39 0 -76 26.5t-53 63.5z" />
<glyph unicode="W" horiz-adv-x="1523" d="M72 416v753q0 57 39 98.5t96 41.5q59 0 98 -41t454 -41t455.5 41t98.5 41q55 0 97 -41t42 -99v-753q-2 -84 -35 -159t-89 -132t-132 -91t-162 -34q-74 0 -145.5 26.5t-126.5 79.5q-59 -49 -128 -76.5t-151 -29.5q-86 0 -158.5 31.5t-127 88t-87 132.5t-38.5 164z" />
<glyph unicode="X" horiz-adv-x="1468" d="M113 233l430 426l-418 424q-40 38 -40 94v3q1 58 40 96q41 41 98.5 41t95.5 -41l418 -422l422 418q41 39 97.5 39t99.5 -43q38 -38 38 -94v-2q-1 -58 -40 -97l-422 -418l426 -430q39 -39 39 -96t-41 -98q-40 -38 -95 -38h-3q-56 1 -95 40l-428 430l-430 -426 q-40 -40 -94 -40h-3q-56 1 -95 40q-42 40 -42 95q0 58 42 99z" />
<glyph unicode="Y" horiz-adv-x="1376" d="M36 1182q5 59 52 98q24 20 115 20q79 0 209 -15q153 -18 288 -18q110 0 207 12q217 26 277 32q9 1 17 1q50 0 89 -32q47 -39 52 -98q1 -8 1 -16q0 -50 -32 -91l-480 -588v-342q0 -59 -43 -102t-102 -43t-101 43t-42 102v344l-475 586q-33 41 -33 93q0 6 1 14z" />
<glyph unicode="Z" horiz-adv-x="1142" d="M72 1169q0 57 41 98.5t96 41.5h721q39 -2 70.5 -22.5t49 -52.5t17.5 -70t-23 -74l-565 -814h455q59 0 98 -40.5t39 -96.5q0 -59 -39 -99t-98 -40h-721q-41 2 -71.5 21.5t-47 50t-16.5 67.5t20 74l2 2l562 817h-453q-55 0 -96 39t-41 98z" />
<glyph unicode="[" horiz-adv-x="645" d="M76 -147v1331q8 51 44 88t93 39h229q57 0 97.5 -40t40.5 -97q0 -59 -40 -98.5t-98 -39.5h-92v-1036h92q57 0 97.5 -39t40.5 -98q0 -57 -40 -97t-98 -40h-229q-57 0 -93 37.5t-44 89.5z" />
<glyph unicode="\" horiz-adv-x="661" d="M35 1130q-16 53 10.5 105t79.5 68q53 18 105.5 -8.5t68.5 -82.5l328 -1032q16 -57 -10.5 -107t-81.5 -67q-53 -16 -104.5 10.5t-68.5 79.5z" />
<glyph unicode="]" horiz-adv-x="645" d="M66 -137q0 59 40 98t97 39h92v1036h-92q-57 0 -97 39t-40 99q0 57 39.5 97t97.5 40h229q57 -2 93 -39t44 -88v-1331q-8 -51 -44 -89t-93 -38h-229q-57 0 -97 39.5t-40 97.5z" />
<glyph unicode="^" horiz-adv-x="1169" d="M55 631l391 600q25 41 61 65.5t77 24.5q39 0 75.5 -26.5t65.5 -63.5l389 -600q20 -53 -3.5 -105.5t-76.5 -74.5q-53 -20 -105 3t-345 23t-345.5 -23.5t-105.5 -2.5q-53 23 -75.5 75t-2.5 105z" />
<glyph unicode="_" horiz-adv-x="1099" d="M70 141q0 59 38.5 99.5t98.5 40.5h686q57 0 97 -40.5t40 -99.5q0 -57 -40 -98t-97 -41h-686q-59 0 -98 41t-39 98z" />
<glyph unicode="`" horiz-adv-x="618" d="M53 1294q14 55 64.5 83t101.5 14l248 -66q57 -16 85 -64.5t13 -103.5q-14 -57 -64 -87t-106 -15l-245 67q-55 14 -83 63.5t-14 108.5z" />
<glyph unicode="a" horiz-adv-x="1110" d="M53 496q0 53 11.5 102t31.5 96q59 133 180 215t275 82h29.5t27.5 -2q92 -10 173 -53t139.5 -109.5t92.5 -151.5t34 -179v-363q0 -55 -41 -94t-93 -39q-72 0 -114 66q-10 -4 -18.5 -9.5t-16.5 -9.5q-49 -23 -100 -35q-53 -12 -113 -12q-154 0 -274.5 83t-180.5 214 q-20 47 -31.5 96t-11.5 103z" />
<glyph unicode="b" horiz-adv-x="1083" d="M66 496v686q0 25 12 48t30.5 40.5t42 28t48.5 8.5q27 2 51 -9.5t43.5 -30t30 -44t10.5 -52.5v-235q72 37 148 48q38 6 76.5 6t76.5 -6q76 -11 147.5 -45t132.5 -91q72 -74 108 -159t36 -193q0 -102 -40 -192.5t-107.5 -158t-157.5 -106.5t-191 -39q-98 0 -188 40 t-159 107.5t-109.5 157.5t-40.5 191z" />
<glyph unicode="c" horiz-adv-x="983" d="M49 496q0 98 40 188t108.5 157.5t159 108.5t190.5 41q205 0 348 -143q32 -36 32 -84v-8q-3 -54 -40 -88q-37 -35 -37 -170.5t37 -175.5q18 -16 28.5 -39t11.5 -47.5t-7.5 -48t-24.5 -42.5q-72 -72 -158 -108.5t-190 -36.5q-102 0 -192.5 40t-158 107.5t-107.5 157.5 t-40 191z" />
<glyph unicode="d" horiz-adv-x="1085" d="M25 496q0 100 39.5 190t108.5 157.5t159 107.5t190 40q123 0 228 -55v235q0 27 11 51.5t29.5 43t43 29t51.5 10.5q53 0 93 -38t40 -98v-673q0 -100 -40 -190.5t-108.5 -158t-158.5 -107.5t-189 -40q-98 0 -188 39t-159 106.5t-109.5 157.5t-40.5 193z" />
<glyph unicode="e" horiz-adv-x="1085" d="M51 496q0 96 40 186t107.5 158.5t158 109.5t190.5 41q98 0 188 -41t159 -109.5t109.5 -157.5t40.5 -187q0 -53 -40 -84q-37 -29 -92 -29h-7q-94 -7 -94 -55q0 -4 1 -10q10 -58 26 -92q12 -25 12 -53q0 -9 -1 -19q-5 -39 -36 -72q-55 -45 -122.5 -62.5t-143.5 -19.5h-18 q-89 0 -171 36q-90 40 -158.5 108.5t-108.5 160.5t-40 191z" />
<glyph unicode="f" horiz-adv-x="776" d="M31 -156q0 53 37.5 91t91.5 40q41 0 68.5 30t27.5 67v407q-96 0 -129 37t-37 96q0 53 35 91t131 45v202q0 70 26.5 134.5t73.5 114.5t110.5 80t135.5 30q59 0 100 -33t46 -98q0 -53 -38 -90t-96 -41q-43 -2 -67.5 -31t-24.5 -68v-200q94 -4 130 -42t36 -94q0 -55 -35 -92 t-131 -41v-411q0 -59 -19.5 -114.5t-54 -99.5t-83 -79t-109.5 -54q-34 -11 -70 -11h-6q-39 1 -70.5 16.5t-54 44t-24.5 73.5z" />
<glyph unicode="g" horiz-adv-x="1095" d="M47 496q0 100 41 190t109.5 157.5t157.5 107.5t188 40q102 0 192 -39t158 -106.5t105.5 -157.5t37.5 -192q0 -139 -59 -246q59 -80 59 -260v-8q0 -56 -26 -122q-27 -71 -73 -120t-109.5 -79t-137.5 -34h-69h-13h-65q-51 -4 -90 -43q-41 -39 -97.5 -39t-97.5 41 q-39 37 -42 90v8q0 47 32 83q61 78 180 112q53 16 115 19h151q31 4 49 26q34 52 34 97q0 14 -3 28v2q-41 -23 -93 -37t-138 -14q-109 0 -200 37t-156.5 102.5t-102.5 156.5t-37 200z" />
<glyph unicode="h" horiz-adv-x="1099" d="M76 123v1053q4 51 40 87.5t93 36.5q53 0 91 -36.5t42 -96.5v-235q47 31 110.5 43t120.5 12q100 0 190.5 -37t158 -102.5t107.5 -153.5t40 -188v-375q0 -55 -38 -94t-95 -41q-53 0 -90 36q-36 36 -270 40h-42q-195 0 -230 -35q-38 -39 -95 -41q-51 0 -87 36t-46 91z" />
<glyph unicode="i" horiz-adv-x="409" d="M72 119v741q4 53 43 88t92 37q53 0 89 -39t40 -94v-725q0 -55 -35 -92t-94 -41q-53 0 -90 32.5t-45 92.5zM72 1171q2 53 42 90t93 37t91 -39.5t38 -93.5q0 -53 -38 -93t-91 -40q-59 2 -97 38t-38 101z" />
<glyph unicode="j" horiz-adv-x="575" d="M20 -156q0 53 38 91t92 40q41 0 68.5 30t27.5 67v788q4 53 43 88t92 37q53 0 89 -39t40 -94v-784v-11q0 -53 -18 -103q-19 -56 -54 -100t-83 -79t-109 -54q-34 -11 -70 -11h-6q-39 1 -70.5 16.5t-54 44t-25.5 73.5zM246 1171q2 53 42 90t93 37t91 -39.5t38 -93.5 q0 -53 -38 -93t-91 -40q-59 2 -97 38t-38 101z" />
<glyph unicode="k" horiz-adv-x="935" d="M74 137v1034q0 53 41 95.5t98 42.5t97 -40t40 -98v-514l309 310q40 40 94 40h3q56 -1 98 -40q41 -41 41 -97.5t-41 -97.5l-195 -197l220 -366q21 -35 21 -71q0 -16 -4 -34q-14 -54 -62 -84q-35 -21 -72 -21q-16 1 -34 5q-56 14 -85 64l-184 307l-109 -111v-127 q0 -53 -41 -95t-96 -42q-53 0 -96 40t-43 97z" />
<glyph unicode="l" horiz-adv-x="589" d="M68 358v818q6 51 43 88t92 39q55 0 93 -39t42 -97v-809q0 -41 26.5 -69.5t67.5 -28.5q53 0 93 -37t42 -92q0 -49 -33.5 -87t-87.5 -46h-28q-72 0 -135.5 29.5t-111.5 79t-75.5 115t-27.5 136.5z" />
<glyph unicode="m" horiz-adv-x="1327" d="M72 133v504q0 72 28.5 136.5t77.5 112.5t115.5 76.5t142.5 28.5q61 0 119.5 -19.5t108.5 -60.5q98 80 229 80q72 0 138.5 -27.5t116.5 -74.5t79.5 -112.5t29.5 -139.5v-514q0 -49 -40.5 -86t-94.5 -37q-53 0 -93 40q-36 36 -310 36h-57q-326 -4 -364 -40t-91 -36 q-29 0 -53.5 10t-43 28.5t-29.5 43t-9 51.5z" />
<glyph unicode="n" horiz-adv-x="1120" d="M63 133v369q2 102 40 192t104.5 158t157 106.5t196.5 38.5q98 0 188.5 -35.5t158 -100t108.5 -152.5t41 -191v-379q0 -53 -38 -92t-93 -41q-55 0 -95 36q-41 36 -269 40h-39q-192 0 -230 -36q-41 -40 -94 -40t-94.5 37t-41.5 90z" />
<glyph unicode="o" horiz-adv-x="1095" d="M53 496q0 102 38 191t104.5 155.5t158 106.5t195.5 44q100 0 190 -39t158 -106.5t107.5 -157.5t39.5 -194q0 -102 -38.5 -191.5t-105 -157t-157 -106.5t-194.5 -39q-102 0 -192.5 37t-158 103.5t-106.5 156.5t-39 197z" />
<glyph unicode="p" horiz-adv-x="1085" d="M68 -190v686q0 100 39.5 190t107.5 157.5t158 107.5t192 40q100 0 190.5 -39t158 -106.5t107.5 -157.5t40 -192t-38 -192.5t-104.5 -158t-157.5 -106.5t-196 -39q-127 0 -229 51v-235q0 -53 -39 -92t-96 -39q-51 0 -91 35.5t-42 89.5z" />
<glyph unicode="q" horiz-adv-x="1085" d="M25 498q0 102 38.5 192t106.5 157.5t158 106.5t192 39q100 0 191.5 -40t159 -107.5t107.5 -157.5t40 -190v-686q-2 -53 -42 -89t-91 -36q-57 0 -96 38.5t-39 92.5v235q-102 -51 -230 -51q-104 0 -195.5 39t-158 106.5t-104 157.5t-37.5 193z" />
<glyph unicode="r" horiz-adv-x="702" d="M57 129v379q2 98 42 185t106.5 151.5t156 102.5t189.5 42q57 0 95 -39t42 -94q0 -55 -39 -93t-96 -40q-47 0 -88 -17.5t-72 -48t-49 -72.5t-18 -91v-373q-4 -53 -40.5 -88t-95.5 -35q-55 0 -92 36t-41 95z" />
<glyph unicode="s" horiz-adv-x="972" d="M-308 418v8q0 50 36 84l338 338q74 72 164 108q88 37 184 38h6q93 0 181 -36q91 -36 167 -110q70 -70 108 -159t40 -182v-13q0 -86 -31 -172q-33 -92 -105 -164l-22 -23q-74 -66 -152 -98q-83 -35 -181 -35h-11q-104 0 -190.5 37t-155.5 106q-16 20 -26 43q-9 24 -7 48 l5 55q0 25 -38 43q-14 7 -29 7q-27 0 -55 -24q-32 -31 -88 -31h-2q-57 0 -94 40q-39 37 -42 92z" />
<glyph unicode="t" horiz-adv-x="983" d="M66 506v674q0 55 42 92t97 37q57 0 96 -40t43 -100v-163h352q59 0 96 -41t37 -97q0 -53 -40.5 -95t-92.5 -42h-352v-225q0 -47 17.5 -89t48 -75t72.5 -51.5t91 -18.5q53 0 91 14.5t67 43.5q43 37 95 38h3q51 0 95 -40q20 -18 30.5 -42t11.5 -49.5t-7.5 -50t-26.5 -43.5 q-72 -70 -158 -106.5t-184 -36.5q-106 0 -200.5 36t-166 102.5t-113.5 159.5t-44 208z" />
<glyph unicode="u" horiz-adv-x="1122" d="M63 481v377q0 53 38.5 93t95.5 42q53 0 94 -40t269 -42h21q209 0 246 39q39 41 95 43q55 0 95 -40t42 -89v-368q0 -102 -39 -192.5t-106.5 -158t-157.5 -106.5t-195 -39h-19q-88 0 -169 34q-90 38 -159 104.5t-110 155.5t-41 187z" />
<glyph unicode="v" horiz-adv-x="925" d="M57 809q-12 26 -11 52q0 25 11 51q23 50 76 73q25 10 50 10q27 0 55 -12q52 -22 226 -22t226 22q28 12 54 12q25 0 49 -10q53 -23 75 -73q11 -25 12 -50q0 -26 -12 -53l-276 -723q-10 -23 -44 -54.5t-81 -31.5q-41 0 -78 19.5t-53 66.5z" />
<glyph unicode="w" horiz-adv-x="1329" d="M72 354v504q-2 27 9 51.5t29.5 43t43 28.5t53.5 10q53 0 91 -35.5t364 -39.5q33 0 64 -1q267 0 303 36q40 40 93 40t94 -36.5t41 -86.5v-514q0 -74 -29.5 -139t-79.5 -112.5t-116.5 -75t-138.5 -27.5q-131 0 -229 80q-49 -41 -108 -60.5t-120 -19.5q-76 0 -142.5 28.5 t-115.5 77t-77.5 113t-28.5 135.5z" />
<glyph unicode="x" horiz-adv-x="1128" d="M71 128v8q0 49 35 87l273 273l-273 272q-35 35 -35 80q1 5 1 10q4 51 39 92q41 41 88 41h8q51 -4 92 -41l266 -266l273 268q38 38 88 38h3q52 -1 93 -40q37 -37 37 -92t-37 -94l-266 -268l266 -269q37 -37 39 -93v-5q0 -53 -39 -92q-37 -37 -93.5 -37t-97.5 43l-266 262 l-266 -268q-37 -33 -92 -37h-10q-49 0 -86 37t-40 91z" />
<glyph unicode="y" horiz-adv-x="1021" d="M39 674v182q0 57 40 97t95 40q59 0 99 -40t238 -40t237.5 40t95.5 40q59 0 99 -40t40 -97v-182v-2q0 -80 -25.5 -153t-70.5 -132t-107.5 -102t-136.5 -64v-399q0 -57 -40 -97t-95 -40q-59 0 -99 39.5t-40 97.5v401q-72 23 -132.5 66t-104.5 102.5t-68.5 131t-24.5 151.5z " />
<glyph unicode="z" horiz-adv-x="1140" d="M76 131v10q0 49 37 82l499 502h-399h-6q-55 4 -92 41q-39 36 -39 85v9q-2 51 39 92q37 39 92 39h731q53 0 92 -39q39 -43 39 -92q0 -55 -39 -94l-20.5 -20.5l-20.5 -20.5l-228.5 -228.5t-230.5 -228.5h408q51 -2 92 -41q39 -43 39 -96q0 -49 -39 -92q-43 -39 -92 -39h-6 h-668h-51h-6q-53 0 -92 39q-41 41 -39 92z" />
<glyph unicode="{" horiz-adv-x="903" d="M29 516q0 59 40 100t99 41v152q0 100 40 190.5t108.5 159t159.5 109.5t192 41h26q57 0 98.5 -40t41.5 -98q0 -57 -41 -97t-99 -40q-51 0 -96 -28.5t-79 -72.5t-54.5 -97.5t-20.5 -104.5v-477q0 -49 20.5 -95t54.5 -82t79 -56.5t96 -20.5q57 0 98.5 -40t41.5 -95 q0 -59 -41 -99t-99 -40h-26q-100 0 -191.5 40.5t-160 109.5t-108.5 160t-40 191v152q-59 0 -99 40t-40 97z" />
<glyph unicode="|" horiz-adv-x="440" d="M74 -129v1294q0 59 42 102.5t101 43.5t102 -43t43 -103v-1294q0 -59 -43 -102t-102 -43t-101 43t-42 102z" />
<glyph unicode="}" horiz-adv-x="901" d="M70 -135q0 55 41 95t98 40q51 0 96 20.5t79 56.5t54.5 82t20.5 95v477q0 51 -20.5 104.5t-54.5 97.5t-79 72.5t-96 28.5q-57 0 -98 40t-41 97t41 97.5t98 40.5h27q100 0 191 -41t159.5 -109.5t108.5 -159t40 -190.5v-152q59 0 99 -41t40 -100q0 -57 -39.5 -97t-99.5 -40 v-152q0 -100 -40 -191t-108.5 -160t-159.5 -109.5t-191 -40.5h-27q-57 0 -98 39.5t-41 99.5z" />
<glyph unicode="~" horiz-adv-x="1060" d="M71.5 528.5q-16.5 55.5 18.5 116.5q37 63 85 100t113.5 52.5t135.5 1.5q12 -4 25 -8q51 -6 98 -33l100 -56q18 -18 49 -10q31 6 47 31q27 45 75 65.5t102 -10.5q51 -29 68.5 -84t-19.5 -116q-37 -63 -85 -101.5t-113.5 -52.5t-135.5 -2q-18 6 -37 10q-45 8 -84 33 l-102 55q-18 16 -50 10q-31 -8 -45 -32q-29 -43 -76.5 -63.5t-101.5 9.5q-51 29 -67.5 84.5z" />
<glyph unicode="&#xa1;" horiz-adv-x="358" d="M70 -133q0 -59 41 -99.5t100 -40.5q53 0 94 40t41 100v690q0 59 -41 99t-94 40q-59 0 -100 -40t-41 -99v-690zM70 899q0 -57 41 -98t100 -41q53 0 94 41t41 98q0 55 -41 96t-94 41q-59 0 -100 -41t-41 -96z" />
<glyph unicode="&#xa2;" horiz-adv-x="946" d="M31 496q0 98 40 188t108.5 157.5t158.5 108.5l29 13v100q0 59 42 102t101 43t102 -43t43 -102v-88q125 -31 222 -127q35 -39 31.5 -92.5t-40.5 -87.5q-37 -35 -94 -37t-94 37q-12 10 -25 18v-385q12 10 25 21q37 41 94 40.5t94 -40.5q18 -16 28.5 -39t11.5 -47.5t-7 -48 t-24 -42.5q-72 -72 -158 -108q-31 -14 -64 -23v-41q0 -59 -43 -102t-102 -43t-101 43t-42 102v54q-16 6 -31 12q-90 41 -157.5 108.5t-107.5 157.5t-40 191zM297 496q0 -47 18.5 -89t51.5 -75v323q-34 -32 -52 -73t-18 -86z" />
<glyph unicode="&#xa3;" horiz-adv-x="1095" d="M45 580q0 59 39 99t98 40v221q0 72 28 138.5t76 117.5t113.5 82t139.5 31q61 0 103 -34t46 -101q0 -55 -39 -93.5t-98 -42.5q-37 0 -68 -30q-27 -29 -26 -68v-221q59 0 99 -40t40 -99q0 -57 -40 -98.5t-97 -41.5h-2v-166h471q57 0 97 -40.5t40 -96.5q0 -57 -40 -97 t-97 -40h-606q-59 0 -99.5 40t-40.5 99v301q-59 0 -98 41t-39 99z" />
<glyph unicode="&#xa4;" horiz-adv-x="1144" d="M76.5 1193q11.5 56 58.5 91q47 33 103.5 22.5t89.5 -57.5l84 -123q76 27 161 31q82 0 160 -27l82 119q35 47 91.5 57.5t103.5 -22.5q47 -35 58 -91t-24 -103l-83 -123q41 -51 67 -113q41 -90 41 -195q0 -102 -39 -192q-31 -66 -74 -121l88 -127q33 -47 23 -104.5 t-57 -89.5q-47 -35 -103.5 -24t-91.5 58l-90 129q-72 -23 -152 -22q-82 0 -155 22l-90 -129q-33 -47 -89.5 -58t-103.5 24q-25 16 -39 39.5t-19 50t1 53.5t22 51l86 125q-43 53 -69 119q-39 90 -39 196q0 102 37 191q27 63 69 117l-84 123q-35 47 -23.5 103zM344 659 q0 -47 18.5 -89t50 -73.5t72.5 -50t88 -18.5t89.5 18.5t73 50t49 73.5t18.5 89q-4 94 -68 160t-162 70q-47 0 -88 -17.5t-72.5 -48t-50 -72.5t-18.5 -92z" />
<glyph unicode="&#xa5;" horiz-adv-x="1083" d="M50 1187.5q9 55.5 56 90.5q47 33 103.5 22.5t87.5 -59.5l244 -346l239 346q33 49 89.5 59.5t101.5 -22.5q49 -35 60 -90t-23 -105l-209 -315q53 -2 91 -42t38 -93q0 -55 -39 -95t-94 -40h-121v-54h121q55 0 94 -38.5t39 -94.5q0 -55 -39 -94t-94 -39h-121v-45 q0 -55 -39 -94t-94 -39t-94 39t-39 94v45h-121q-55 0 -94 39t-39 94t38.5 94t94.5 39h121v54h-119q-57 0 -96 40t-39 95q0 53 36.5 92t90.5 43l-209 315q-31 49 -22 104.5z" />
<glyph unicode="&#xa6;" horiz-adv-x="425" d="M74 -180v1349q0 55 40 96.5t99 41.5q55 0 95 -41t40 -97v-1349q0 -57 -40 -97t-95 -40q-59 0 -99 39.5t-40 97.5z" />
<glyph unicode="&#xa7;" horiz-adv-x="1069" d="M55 -49q6 55 51.5 91t100.5 32q43 -4 69.5 -31t42.5 -63q20 -43 62 -70q33 -25 84 -43q16 -4 37 -6q49 -6 90 8q33 10 61 29q31 27 35 69q6 51 -26.5 93t-77.5 51h-76q-23 0 -39 2q-51 6 -94 18q-39 10 -72 29q-66 39 -115 96t-72.5 129t-15.5 154q10 74 45 141 q23 41 52 74q-6 6 -13 12q-47 59 -71.5 132t-16.5 153q8 74 46 142.5t96.5 116.5t133 71.5t152.5 19.5l33 -2q23 0 43 -4q59 -6 105 -21q80 -23 145 -69q102 -72 151 -185q8 -16 13.5 -36.5t3.5 -39.5q-6 -55 -51 -92t-101 -30q-45 4 -69.5 29.5t-42.5 62.5q-20 45 -62 71 q-31 23 -84 43q-4 0 -18 2l-27 5q-10 2 -67 2q-49 0 -84 -32t-45 -85q-2 -49 25.5 -91t78.5 -44l137 -2q74 -10 138.5 -48t113.5 -96.5t75 -134.5t15 -153q-8 -78 -47 -148q-20 -35 -49 -65l10 -13q49 -57 74 -133t16 -155q-8 -78 -46 -143.5t-95 -110.5t-133 -66 q-51 -16 -111 -18q-45 -4 -96 2q-59 6 -102 20q-82 23 -148 68q-100 72 -151 186q-8 14 -13.5 35.5t-3.5 40.5zM367 496q0 -53 46 -91t111 -38q66 0 113 37.5t47 91.5q0 53 -47 92t-113 39t-111.5 -39t-45.5 -92z" />
<glyph unicode="&#xa8;" horiz-adv-x="804" d="M66 1247q0 57 39.5 98t97.5 41q59 0 100 -41t41 -98t-41 -98t-100 -41q-57 0 -97 41t-40 98zM461 1247q0 57 40 98t97 41q59 0 100 -41t41 -98t-41 -98t-100 -41q-57 0 -97 41t-40 98z" />
<glyph unicode="&#xa9;" horiz-adv-x="1517" d="M68.5 509q-19.5 138 17.5 279q37 139 124 248t202.5 176.5t253.5 87.5q49 6 100 7v2q145 0 272 -55.5t222.5 -150.5t150.5 -223t55 -274q0 -92 -22 -182q-39 -139 -125 -248.5t-203 -177.5t-255 -88.5t-279 18.5q-139 37 -249 124t-177.5 203t-87 254zM326.5 545 q13.5 -86 55.5 -160t110.5 -128t156.5 -79q90 -23 176 -10.5t160 55.5t128 111.5t79 157.5q18 70 14 131q-4 18 -2 36q-10 90 -55 166q-57 100 -160 162q-43 25 -88 41l-22 6q-41 10 -69 12.5t-44 2.5q-59 0 -115 -17q-111 -29 -196.5 -110.5t-116.5 -200.5 q-25 -90 -11.5 -176zM395 605.5q0 70.5 28 139t81 121.5q70 68 158 92.5t174 8.5q53 -12 100 -37t88 -66q12 -10 18 -24q25 -37 21 -81t-37 -79q-35 -35 -92 -39l-6 -6l-8 6q-35 2 -64 29q-6 6 -14 12q-35 35 -78 34t-76 -34t-32 -77t32 -77q33 -31 77 -31.5t77 31.5l8 9 q37 31 89 29.5t89 -38.5q35 -35 38 -82t-24 -86l-16 -16q-51 -51 -118.5 -77.5t-139.5 -26.5t-140.5 25.5t-123.5 78.5q-53 55 -81 123t-28 138.5z" />
<glyph unicode="&#xaa;" horiz-adv-x="907" d="M51 928q6 160 126 270.5t280 110.5t272 -121q111 -117 115 -270v-279q0 -55 -40 -94t-93 -39q-55 0 -95 39q-74 -35 -159 -35q-178 6 -292 113.5t-114 304.5zM315 915q0 -66 38 -101.5t98 -37.5q53 0 91 40t38 93t-38 93t-91 40t-93.5 -36.5t-42.5 -90.5z" />
<glyph unicode="&#xab;" horiz-adv-x="1347" d="M42 483.5q1 55.5 40 100.5l348 370q41 39 98.5 39t100.5 -43q37 -37 38 -95t-38 -97l-252 -273l250 -252q39 -39 39 -95t-41 -97t-97.5 -41t-95.5 39l-348 346q-43 43 -42 98.5zM652 484.5q1 56.5 40 101.5l348 368q41 41 98.5 40t98.5 -42q39 -39 40 -96t-40 -98 l-252 -273l252 -252q39 -39 39 -95t-41 -97q-43 -41 -99.5 -41t-95.5 39l-348 348q-41 41 -40 97.5z" />
<glyph unicode="&#xac;" horiz-adv-x="1050" d="M16 616q0 59 39 99.5t99 40.5h686q57 0 96 -41q39 -37 41 -92v-246q0 -57 -40 -97t-99 -40q-57 0 -98.5 39.5t-41.5 97.5v100h-544q-59 0 -98.5 41t-39.5 98z" />
<glyph unicode="&#xad;" horiz-adv-x="931" d="M68 616q0 59 38.5 99.5t98.5 40.5h522q57 0 97 -40.5t40 -99.5q0 -57 -40 -98t-97 -41h-522q-59 0 -98 41t-39 98z" />
<glyph unicode="&#xae;" horiz-adv-x="1517" d="M68.5 509q-19.5 138 17.5 279q37 139 124 248t202.5 176.5t209 82t144.5 14.5q145 0 272 -55.5t222.5 -150.5t150.5 -223t55 -274q0 -92 -22 -182q-39 -139 -125 -248.5t-203 -177.5t-255 -88.5t-279 18.5q-139 37 -249 124t-177.5 203t-87 254zM326.5 545 q13.5 -86 55.5 -160t110.5 -128t156.5 -79q90 -23 176 -10.5t160 55.5t128 111.5t79 157.5q18 70 14 131l-2 36q-10 90 -55 166q-57 100 -160 162q-43 25 -88 41l-22 6q-41 10 -69 12.5t-44 2.5q-59 0 -115 -17q-111 -29 -196.5 -110.5t-116.5 -200.5q-25 -90 -11.5 -176z M518 367q0 -55 39 -94.5t94 -39.5t94 39t39 95v225q0 45 31 76.5t78 31.5q55 0 95 39t40 95q0 55 -40 95t-95 40q-78 0 -146.5 -30t-120 -81t-80 -119.5t-28.5 -146.5v-225z" />
<glyph unicode="&#xb0;" horiz-adv-x="899" d="M53 928q6 160 126 270.5t280 110.5t273.5 -120t113.5 -280t-114 -279.5t-273 -119.5q-178 6 -292 113.5t-114 304.5zM317 915q0 -66 38 -101.5t98 -37.5q53 0 91 40t38 93t-38 93t-91 40t-93.5 -36.5t-42.5 -90.5z" />
<glyph unicode="&#xb1;" horiz-adv-x="886" d="M45 139q0 59 39 99.5t98 40.5h523q57 0 97 -40.5t40 -99.5q0 -57 -40 -98t-97 -41h-523q-59 0 -98 41t-39 98zM45 795q0 59 39 99t98 40h121v121q0 59 40 99t99 40q57 0 98.5 -40t41.5 -99v-121h118q59 0 100.5 -40t41.5 -99q0 -57 -41 -98.5t-101 -41.5h-118v-118 q0 -59 -41 -100.5t-99 -41.5q-59 0 -99 41t-40 101v118h-121q-59 0 -98 41t-39 99z" />
<glyph unicode="&#xb2;" horiz-adv-x="729" d="M57 655q0 16 8.5 38t28.5 44l238 238l22 20q16 0 25.5 9.5t9.5 21.5q0 33 -33 33t-37 -29q-23 -33 -46 -53.5t-70 -20.5q-59 0 -99.5 42t-40.5 100q0 37 19 65q23 37 50.5 60.5t62.5 44.5q49 27 98 35q27 6 59 6h37q55 0 104.5 -21.5t86 -58.5t58 -86t21.5 -103 q0 -59 -22.5 -107t-58.5 -85l-60 -55h12q55 0 97.5 -39t42.5 -101q0 -57 -42 -99t-98 -42h-340q-61 0 -97 44t-36 99z" />
<glyph unicode="&#xb3;" horiz-adv-x="710" d="M55 729q0 53 40.5 93t99.5 40q47 0 70.5 -19.5t45.5 -51.5q4 -27 37 -27q14 0 23.5 9t9.5 22q0 12 -9.5 21t-25.5 9l-6 2q-25 8 -42 24.5t-19 63.5q0 18 7 33t16 25t19.5 15t16.5 7l8 2q16 0 25.5 9.5t9.5 21.5t-9.5 21.5t-23.5 9.5q-33 0 -37 -27q-23 -33 -46 -52 t-70 -19q-59 0 -99.5 39.5t-40.5 93.5q0 18 5.5 37.5t13.5 29.5q45 74 112 109q23 10 47.5 19t51.5 14q27 6 59 6h37q55 0 104.5 -20.5t86 -55.5t58 -81t21.5 -95q0 -51 -17.5 -81t-47.5 -65q31 -35 48 -65.5t17 -79.5t-21.5 -95t-58 -81t-86 -55.5t-104.5 -20.5h-37 q-33 0 -59 6q-27 4 -51.5 13.5t-47.5 19.5q-68 35 -112 109q-8 10 -13.5 29.5t-5.5 37.5z" />
<glyph unicode="&#xb4;" horiz-adv-x="618" d="M53 1157q-14 55 13.5 103.5t85.5 64.5l247 66q51 14 101.5 -14t64.5 -83q14 -59 -13.5 -108t-82.5 -64l-246 -67q-55 -14 -105 15.5t-65 86.5z" />
<glyph unicode="&#xb5;" horiz-adv-x="1101" d="M76 -184v1052q0 53 41 89t94 36q57 0 95 -39t38 -92v-375q0 -47 19.5 -87t51 -68.5t73.5 -45t85 -16.5q49 0 91.5 18.5t73 49.5t48 72t17.5 88v370q0 55 42 90t93 35q57 0 95 -39t38 -92v-350q0 -111 -40 -204t-108.5 -160.5t-158.5 -106.5t-191 -39q-61 0 -121.5 13.5 t-107.5 41.5v-235q0 -59 -41 -96t-92 -37q-53 0 -94 36.5t-41 90.5z" />
<glyph unicode="&#xb6;" horiz-adv-x="425" d="M74 137v1032q0 55 40 96.5t99 41.5q55 0 95 -41t40 -97v-1032q0 -57 -40 -97t-95 -40q-59 0 -99 40t-40 97z" />
<glyph unicode="&#xb7;" horiz-adv-x="385" d="M53 498q0 57 40 98t97 41q59 0 100.5 -41t41.5 -98t-41 -98.5t-101 -41.5q-57 0 -97 41t-40 99z" />
<glyph unicode="&#xb8;" horiz-adv-x="487" d="M43 -215q2 27 21.5 43t46.5 16q29 0 49 -19.5t20 -47.5q0 -31 20.5 -51.5t51.5 -20.5q29 0 49.5 20.5t20.5 51.5q0 27 -17.5 46t-44.5 23h-67q-27 2 -47.5 19.5t-20.5 44.5v6v234q0 18 19.5 38.5t48.5 20.5q31 0 50 -20.5t19 -38.5v-164q49 -2 89 -25.5t67 -58.5 q20 -27 30.5 -58.5t10.5 -66.5q0 -43 -16.5 -81t-45 -65.5t-65.5 -44t-80 -16.5q-47 0 -86 17.5t-65.5 48t-42 69.5t-15.5 80z" />
<glyph unicode="&#xb9;" horiz-adv-x="552" d="M18 990.5q0 56.5 41 96.5l181 183q8 8 18 14q35 27 80 27q59 0 100 -41t41 -96v-527q0 -57 -41 -97t-100 -40q-57 0 -97 40t-40 97v209q-20 -6 -43 -6q-55 2 -99 43q-41 41 -41 97.5z" />
<glyph unicode="&#xba;" horiz-adv-x="849" d="M61 365q0 59 39 99t99 40h452q57 0 97 -40t40 -99q0 -57 -39.5 -98.5t-97.5 -41.5h-452q-59 0 -98.5 41t-39.5 99zM61 958q6 145 116 248t257 103q145 0 249.5 -111t104.5 -256t-104 -256t-250 -111q-164 6 -268.5 105.5t-104.5 277.5zM324 946q0 -55 30.5 -83.5 t79.5 -31.5q45 0 76 33t31 76q0 45 -31 78t-76 33q-43 0 -76.5 -31t-33.5 -74z" />
<glyph unicode="&#xbb;" horiz-adv-x="1349" d="M73 856q1 57 40 96q41 41 98 42t98 -40l348 -368q39 -45 40 -101.5t-40 -97.5l-348 -348q-39 -39 -95 -39t-99 41q-41 41 -41 97.5t39 94.5l252 252l-252 273q-41 41 -40 98zM683 855q1 58 38 95q43 43 100.5 43t98.5 -39l348 -370q39 -45 40 -100.5t-42 -98.5l-348 -346 q-39 -39 -95.5 -39t-97.5 41t-41 97.5t39 94.5l250 252l-252 273q-39 39 -38 97z" />
<glyph unicode="&#xbc;" horiz-adv-x="1695" d="M22.5 988q0.5 56 40.5 97l181 183q8 8 18 14q35 27 80 27q59 0 100 -41t41 -97v-526q0 -57 -41 -97t-100 -40q-57 0 -97 40t-40 97v209q-20 -6 -43 -6q-55 2 -99 43q-41 41 -40.5 97zM465 180l328 1032q16 55 68.5 82t105.5 9q53 -16 79.5 -67.5t10.5 -105.5l-328 -1034 q-16 -53 -67.5 -79.5t-104.5 -10.5q-55 16 -81.5 66.5t-10.5 107.5zM920 139v2l145 543q27 53 74 78.5t100 5.5q55 -20 83 -75.5t-1 -106.5l-98 -310h34q2 55 42 94.5t94 39.5q59 0 99 -39t42 -95q53 -4 91 -44t38 -93q0 -55 -38 -95t-91 -44v-141q0 -37 -41 -77t-100 -40 q-55 0 -95.5 40t-40.5 77v141h-200q-57 0 -97 40t-40 99z" />
<glyph unicode="&#xbd;" horiz-adv-x="1640" d="M39 990.5q0 56.5 41 96.5l180 183q8 8 19 14q34 27 79 27q59 0 100.5 -41t41.5 -96v-527q0 -57 -41 -97t-101 -40q-57 0 -97 40t-40 97v209q-20 -6 -43 -6q-55 2 -98 43q-41 41 -41 97.5zM481 180l328 1032q16 55 68.5 82t105.5 9q53 -16 80 -67.5t10 -105.5l-328 -1034 q-16 -53 -67 -79.5t-105 -10.5q-55 16 -81.5 66.5t-10.5 107.5zM985 143q0 16 8 38t29 44l238 238l22 20q16 0 25.5 9.5t9.5 21.5q0 33 -33 33t-37 -29q-23 -33 -46.5 -53.5t-70.5 -20.5q-59 0 -99 42t-40 100q0 37 19 65q23 37 50 60.5t62 44.5q49 27 99 35q27 6 59 6h37 q55 0 104 -21.5t86 -58.5t58.5 -86t21.5 -103q0 -59 -22.5 -107t-59.5 -85l-59 -55h12q55 0 97 -39t42 -101q0 -57 -42 -99t-97 -42h-340q-61 0 -97 44t-36 99z" />
<glyph unicode="&#xbe;" horiz-adv-x="1681" d="M23 729q0 53 40 93t99 40q47 0 70.5 -19.5t46.5 -51.5q4 -27 36 -27q14 0 23.5 9t9.5 22q0 12 -9 21t-26 9l-6 2q-25 8 -42 24.5t-19 63.5q0 18 7 33t16.5 25t19.5 15t16 7l8 2q16 0 25.5 9.5t9.5 21.5t-9 21.5t-24 9.5q-33 0 -36 -27q-23 -33 -46.5 -52t-70.5 -19 q-59 0 -99 39.5t-40 93.5q0 18 5 37.5t13 29.5q45 74 113 109q23 10 47 19t51 14q27 6 59 6h37q55 0 104.5 -20.5t86 -55.5t58 -81t21.5 -95q0 -51 -17 -81t-48 -65q31 -35 48 -65.5t17 -79.5t-21.5 -95t-58 -81t-86 -55.5t-104.5 -20.5h-37q-33 0 -59 6q-27 4 -51.5 13.5 t-46.5 19.5q-68 35 -113 109q-8 10 -13 29.5t-5 37.5zM530 180l328 1032q16 55 68.5 82t105.5 9q53 -16 80 -67.5t10 -105.5l-327 -1034q-16 -53 -67.5 -79.5t-104.5 -10.5q-55 16 -82 66.5t-11 107.5zM903 139v2l146 543q27 53 73.5 78.5t100.5 5.5q55 -20 82.5 -75.5 t-0.5 -106.5l-99 -310h35q2 55 42 94.5t93 39.5q59 0 99.5 -39t42.5 -95q53 -4 91 -44t38 -93q0 -55 -38 -95t-91 -44v-141q0 -37 -41 -77t-101 -40q-55 0 -95 40t-40 77v141h-201q-57 0 -97 40t-40 99z" />
<glyph unicode="&#xbf;" horiz-adv-x="913" d="M41 98q0 72 21.5 134.5t59.5 115.5q53 72 134.5 118t177.5 50v2q0 55 40 96t99 41q57 0 96 -41t39 -96v-139v-15q0 -53 -41 -88t-94 -39h-135q-51 -6 -86 -46t-35 -93q0 -59 41 -100t98 -41q59 0 100.5 41t41.5 100q0 57 41 97t98 40q53 0 92 -33.5t43 -87.5 q0 -82 -29.5 -159.5t-84 -138t-131.5 -96.5t-171 -36q-86 0 -160.5 33t-132 88t-90 131t-32.5 162zM438 856q0 57 40 97t97 40q55 0 94 -40t39 -97q0 -55 -39 -95t-94 -40q-57 0 -97 40t-40 95z" />
<glyph unicode="&#xc0;" d="M53 186l402 1031q16 37 53 63.5t76 26.5q41 0 76.5 -25t52.5 -65l399 -1031q20 -53 -2.5 -105t-75.5 -75q-53 -20 -105 3.5t-345 23.5t-345.5 -23.5t-105.5 -3.5q-53 23 -76.5 75t-3.5 105zM284 1673q14 55 64.5 83t101.5 14l248 -66q57 -16 85 -64.5t13 -103.5 q-14 -57 -64 -87t-106 -15l-245 67q-55 14 -83 63.5t-14 108.5z" />
<glyph unicode="&#xc1;" d="M53 186l402 1031q16 37 53 63.5t76 26.5q41 0 76.5 -25t52.5 -65l399 -1031q20 -53 -2.5 -105t-75.5 -75q-53 -20 -105 3.5t-345 23.5t-345.5 -23.5t-105.5 -3.5q-53 23 -76.5 75t-3.5 105zM366 1524q-14 55 13.5 103.5t85.5 64.5l247 66q51 14 101.5 -14t64.5 -83 q14 -59 -13.5 -108t-82.5 -64l-246 -67q-55 -14 -105 15.5t-65 86.5z" />
<glyph unicode="&#xc2;" d="M53 186l402 1031q16 37 53 63.5t76 26.5q41 0 76.5 -25t52.5 -65l399 -1031q20 -53 -2.5 -105t-75.5 -75q-53 -20 -105 3.5t-345 23.5t-345.5 -23.5t-105.5 -3.5q-53 23 -76.5 75t-3.5 105zM129 1559.5q10 56.5 49 95.5l246 246q41 41 97.5 39.5t101.5 -39.5l266 -246 q41 -41 50 -98.5t-32 -98.5q-39 -39 -96 -40t-98 40l-191 170l-170 -170q-39 -39 -95 -39t-97 41q-41 43 -31 99.5z" />
<glyph unicode="&#xc3;" d="M53 186l402 1031q16 37 53 63.5t76 26.5q41 0 76.5 -25t52.5 -65l399 -1031q20 -53 -2.5 -105t-75.5 -75q-53 -20 -105 3.5t-345 23.5t-345.5 -23.5t-105.5 -3.5q-53 23 -76.5 75t-3.5 105zM110.5 1536q-16.5 55 18.5 116q37 63 85 100.5t113.5 52.5t138.5 1t120 -41 l100 -55q33 -23 51.5 -18t44.5 38q27 45 75 65.5t102 -9.5q51 -29 68.5 -84.5t-19.5 -116.5q-37 -63 -85 -101t-113.5 -52.5t-141.5 1t-115 39.5l-102 55q-31 20 -55.5 11.5t-39.5 -33.5q-29 -43 -76.5 -63.5t-101.5 10.5q-51 29 -67.5 84z" />
<glyph unicode="&#xc4;" d="M53 186l402 1031q16 37 53 63.5t76 26.5q41 0 76.5 -25t52.5 -65l399 -1031q20 -53 -2.5 -105t-75.5 -75q-53 -20 -105 3.5t-345 23.5t-345.5 -23.5t-105.5 -3.5q-53 23 -76.5 75t-3.5 105zM230 1560q0 57 39.5 98t97.5 41q59 0 100 -41t41 -98t-41 -98t-100 -41 q-57 0 -97 41t-40 98zM625 1560q0 57 40 98t97 41q59 0 100 -41t41 -98t-41 -98t-100 -41q-57 0 -97 41t-40 98z" />
<glyph unicode="&#xc5;" d="M53 186l402 1031q16 37 53 63.5t76 26.5q41 0 76.5 -25t52.5 -65l399 -1031q20 -53 -2.5 -105t-75.5 -75q-53 -20 -105 3.5t-345 23.5t-345.5 -23.5t-105.5 -3.5q-53 23 -76.5 75t-3.5 105z" />
<glyph unicode="&#xc6;" horiz-adv-x="1665" d="M26 188l402 1031q16 37 53 63.5t76 26.5q41 0 76.5 -25t52.5 -65l399 -1031q20 -53 -2.5 -105t-75.5 -75q-53 -20 -105 3.5t-345 23.5t-345.5 -23.5t-105.5 -3.5q-53 23 -76.5 75t-3.5 105zM799 139v1030q0 53 39 96.5t98 43.5h586q57 0 97 -41t40 -99q0 -59 -40 -98 t-109.5 -155.5t-28.5 -157.5t41 -99l-17 -61q-66 -115 44 -259t110 -200q0 -59 -40 -99t-97 -40h-586q-53 0 -95 40t-42 99z" />
<glyph unicode="&#xc7;" horiz-adv-x="1263" d="M49 655q0 135 51.5 254t139.5 208t207.5 140.5t254.5 51.5q154 0 285 -66.5t221 -177.5q25 -37 23 -70q0 -55 -43 -96t-41 -243.5t43 -243.5t41 -90q0 -47 -23 -76q-90 -111 -221 -177.5t-285 -66.5q-135 0 -254.5 51t-207.5 140.5t-139.5 208t-51.5 253.5zM485 -283 q2 27 21.5 43t46.5 16q29 0 49 -19.5t20 -47.5q0 -31 20.5 -51.5t51.5 -20.5q29 0 49.5 20.5t20.5 51.5q0 27 -17.5 46t-44.5 23h-67q-27 2 -47.5 19.5t-20.5 44.5v6v234q0 18 19.5 38.5t48.5 20.5q31 0 50 -20.5t19 -38.5v-164q49 -2 89 -25.5t67 -58.5q20 -27 30.5 -58.5 t10.5 -66.5q0 -43 -16.5 -81t-45 -65.5t-65.5 -44t-80 -16.5q-47 0 -86 17.5t-65.5 48t-42 69.5t-15.5 80z" />
<glyph unicode="&#xc8;" horiz-adv-x="944" d="M47 139v1030q0 53 39 96.5t98 43.5h586q57 0 97 -41t40 -99q0 -59 -40 -98t-109.5 -155.5t-28.5 -157.5t41 -99l-17 -61q-66 -115 44 -259t110 -200q0 -59 -40 -99t-97 -40h-586q-53 0 -95 40t-42 99zM205 1673q14 55 64.5 83t101.5 14l248 -66q57 -16 85 -64.5 t13 -103.5q-14 -57 -64 -87t-106 -15l-245 67q-55 14 -83 63.5t-14 108.5z" />
<glyph unicode="&#xc9;" horiz-adv-x="944" d="M47 139v1030q0 53 39 96.5t98 43.5h586q57 0 97 -41t40 -99q0 -59 -40 -98t-109.5 -155.5t-28.5 -157.5t41 -99l-17 -61q-66 -115 44 -259t110 -200q0 -59 -40 -99t-97 -40h-586q-53 0 -95 40t-42 99zM274 1524q-14 55 13.5 103.5t85.5 64.5l247 66q51 14 101.5 -14 t64.5 -83q14 -59 -13.5 -108t-82.5 -64l-246 -67q-55 -14 -105 15.5t-65 86.5z" />
<glyph unicode="&#xca;" horiz-adv-x="942" d="M76 139v1030q0 53 39 96.5t98 43.5h586q57 0 97 -41t40 -99q0 -59 -40 -98t-109.5 -155.5t-28.5 -157.5t41 -99l-17 -61q-66 -115 44 -259t110 -200q0 -59 -40 -99t-97 -40h-586q-53 0 -95 40t-42 99zM92 1575.5q10 56.5 49 95.5l246 246q41 41 97.5 39.5t101.5 -39.5 l266 -246q41 -41 50 -98.5t-32 -98.5q-39 -39 -96 -40t-98 40l-191 170l-170 -170q-39 -39 -95 -39t-97 41q-41 43 -31 99.5z" />
<glyph unicode="&#xcb;" horiz-adv-x="942" d="M76 139v1030q0 53 39 96.5t98 43.5h586q57 0 97 -41t40 -99q0 -59 -40 -98t-109.5 -155.5t-28.5 -157.5t41 -99l-17 -61q-66 -115 44 -259t110 -200q0 -59 -40 -99t-97 -40h-586q-53 0 -95 40t-42 99zM172 1560q0 57 39.5 98t97.5 41q59 0 100 -41t41 -98t-41 -98 t-100 -41q-57 0 -97 41t-40 98zM567 1560q0 57 40 98t97 41q59 0 100 -41t41 -98t-41 -98t-100 -41q-57 0 -97 41t-40 98z" />
<glyph unicode="&#xcc;" horiz-adv-x="542" d="M-25 1673q14 55 64.5 83t101.5 14l248 -66q57 -16 85 -64.5t13 -103.5q-14 -57 -64 -87t-106 -15l-245 67q-55 14 -83 63.5t-14 108.5zM156 137v1032q0 55 40 96.5t99 41.5q55 0 95 -41t40 -97v-1032q0 -57 -40 -97t-95 -40q-59 0 -99 40t-40 97z" />
<glyph unicode="&#xcd;" horiz-adv-x="542" d="M116 1524q-14 55 13.5 103.5t85.5 64.5l247 66q51 14 101.5 -14t64.5 -83q14 -59 -13.5 -108t-82.5 -64l-246 -67q-55 -14 -105 15.5t-65 86.5zM160 137v1032q0 55 40 96.5t99 41.5q55 0 95 -41t40 -97v-1032q0 -57 -40 -97t-95 -40q-59 0 -99 40t-40 97z" />
<glyph unicode="&#xce;" horiz-adv-x="706" d="M-25 1575.5q10 56.5 49 95.5l246 246q41 41 97.5 39.5t101.5 -39.5l266 -246q41 -41 50 -98.5t-32 -98.5q-39 -39 -96 -40t-98 40l-191 170l-170 -170q-39 -39 -95 -39t-97 41q-41 43 -31 99.5zM240 137v1032q0 55 40 96.5t99 41.5q55 0 95 -41t40 -97v-1032 q0 -57 -40 -97t-95 -40q-59 0 -99 40t-40 97z" />
<glyph unicode="&#xcf;" horiz-adv-x="755" d="M66 1560q0 57 39.5 98t97.5 41q59 0 100 -41t41 -98t-41 -98t-100 -41q-57 0 -97 41t-40 98zM264 137v1032q0 55 40 96.5t99 41.5q55 0 95 -41t40 -97v-1032q0 -57 -40 -97t-95 -40q-59 0 -99 40t-40 97zM461 1560q0 57 40 98t97 41q59 0 100 -41t41 -98t-41 -98 t-100 -41q-57 0 -97 41t-40 98z" />
<glyph unicode="&#xd0;" horiz-adv-x="1380" d="M53 616q0 59 39 99.5t101 40.5v413q0 53 39.5 96.5t99.5 43.5h346q260 0 454.5 -187.5t196.5 -466.5q0 -262 -190.5 -458.5t-460.5 -196.5h-346q-55 0 -97 40t-42 99v338q-61 0 -100.5 41t-39.5 98zM469 279h209q154 -2 267.5 104t113.5 272q-6 160 -114.5 268.5 t-266.5 106.5h-209v-274q66 0 105.5 -40.5t39.5 -99.5q0 -57 -39.5 -98t-105.5 -41v-198z" />
<glyph unicode="&#xd1;" d="M68 127v680q2 102 39.5 192.5t104.5 158t157 106.5t196 39q98 0 188.5 -36t158 -100.5t108.5 -152.5t41 -191v-690q0 -53 -38 -92t-93 -41q-55 0 -95 36t-268.5 40t-269.5 -36t-94 -40t-94 37t-41 90zM106.5 1549q-16.5 55 18.5 116q37 63 85 100.5t113.5 52.5t138.5 1 t120 -41l100 -55q33 -23 51.5 -18t44.5 38q27 45 75 65.5t102 -9.5q51 -29 68.5 -84.5t-19.5 -116.5q-37 -63 -85 -101t-113.5 -52.5t-141.5 1t-115 39.5l-102 55q-31 20 -55.5 11.5t-39.5 -33.5q-29 -43 -76.5 -63.5t-101.5 10.5q-51 29 -67.5 84z" />
<glyph unicode="&#xd2;" horiz-adv-x="1384" d="M51 655q0 135 51.5 254t139.5 208t207.5 140.5t255.5 51.5q135 0 253.5 -51.5t206.5 -140.5t139.5 -207.5t51.5 -254.5q0 -135 -51.5 -253.5t-139.5 -208t-206.5 -140.5t-253.5 -51t-255 51t-208 140.5t-139.5 208t-51.5 253.5zM485 1601q14 55 64.5 83t101.5 14l248 -66 q57 -16 85 -64.5t13 -103.5q-14 -57 -64 -87t-106 -15l-245 67q-55 14 -83 63.5t-14 108.5z" />
<glyph unicode="&#xd3;" horiz-adv-x="1384" d="M51 655q0 135 51.5 254t139.5 208t207.5 140.5t255.5 51.5q135 0 253.5 -51.5t206.5 -140.5t139.5 -207.5t51.5 -254.5q0 -135 -51.5 -253.5t-139.5 -208t-206.5 -140.5t-253.5 -51t-255 51t-208 140.5t-139.5 208t-51.5 253.5zM485 1464q-14 55 13.5 103.5t85.5 64.5 l247 66q51 14 101.5 -14t64.5 -83q14 -59 -13.5 -108t-82.5 -64l-246 -67q-55 -14 -105 15.5t-65 86.5z" />
<glyph unicode="&#xd4;" horiz-adv-x="1384" d="M51 655q0 135 51.5 254t139.5 208t207.5 140.5t255.5 51.5q135 0 253.5 -51.5t206.5 -140.5t139.5 -207.5t51.5 -254.5q0 -135 -51.5 -253.5t-139.5 -208t-206.5 -140.5t-253.5 -51t-255 51t-208 140.5t-139.5 208t-51.5 253.5zM291 1567.5q10 56.5 49 95.5l246 246 q41 41 97.5 39.5t101.5 -39.5l266 -246q41 -41 50 -98.5t-32 -98.5q-39 -39 -96 -40t-98 40l-191 170l-170 -170q-39 -39 -95 -39t-97 41q-41 43 -31 99.5z" />
<glyph unicode="&#xd5;" horiz-adv-x="1384" d="M51 655q0 135 51.5 254t139.5 208t207.5 140.5t255.5 51.5q135 0 253.5 -51.5t206.5 -140.5t139.5 -207.5t51.5 -254.5q0 -135 -51.5 -253.5t-139.5 -208t-206.5 -140.5t-253.5 -51t-255 51t-208 140.5t-139.5 208t-51.5 253.5zM237.5 1530q-16.5 55 18.5 116 q37 63 85 100.5t113.5 52.5t138.5 1t120 -41l100 -55q33 -23 51.5 -18t44.5 38q27 45 75 65.5t102 -9.5q51 -29 68.5 -84.5t-19.5 -116.5q-37 -63 -85 -101t-113.5 -52.5t-141.5 1t-115 39.5l-102 55q-31 20 -55.5 11.5t-39.5 -33.5q-29 -43 -76.5 -63.5t-101.5 10.5 q-51 29 -67.5 84z" />
<glyph unicode="&#xd6;" horiz-adv-x="1384" d="M51 655q0 135 51.5 254t139.5 208t207.5 140.5t255.5 51.5q135 0 253.5 -51.5t206.5 -140.5t139.5 -207.5t51.5 -254.5q0 -135 -51.5 -253.5t-139.5 -208t-206.5 -140.5t-253.5 -51t-255 51t-208 140.5t-139.5 208t-51.5 253.5zM359 1554q0 57 39.5 98t97.5 41 q59 0 100 -41t41 -98t-41 -98t-100 -41q-57 0 -97 41t-40 98zM754 1554q0 57 40 98t97 41q59 0 100 -41t41 -98t-41 -98t-100 -41q-57 0 -97 41t-40 98z" />
<glyph unicode="&#xd7;" horiz-adv-x="1046" d="M71 169q-3 54 35 95l232 232l-232 231q-39 39 -34.5 90t39.5 92q45 45 96 41t92 -41l225 -225l232 227q39 39 91 38t93 -40q37 -37 37 -92t-37 -94l-225 -227l225 -228q37 -37 39 -93t-39 -97q-37 -37 -93 -37t-97 43l-226 221l-225 -227q-37 -33 -92 -37t-96 37 q-37 37 -40 91z" />
<glyph unicode="&#xd8;" horiz-adv-x="1388" d="M41 655q0 135 51 254t139 208t208 140.5t255 51.5t254 -51.5t207 -140.5t139.5 -207.5t51.5 -254.5q0 -135 -51.5 -253.5t-139.5 -208t-207 -140.5t-254 -51t-255 51t-208 140.5t-139 208t-51 253.5zM311 655q0 -80 30 -149.5t82 -121.5t121.5 -82t149.5 -30t148.5 30 t121 82t82 121.5t29.5 149.5t-29.5 148.5t-82 121t-121 82t-148.5 29.5t-149.5 -29.5t-121.5 -82t-82 -121t-30 -148.5zM350 88l404 1241q16 55 71.5 82.5t110.5 9.5q55 -16 83 -68.5t11 -107.5l-403 -1243q-18 -55 -71.5 -81.5t-109.5 -10.5q-57 16 -85.5 67.5t-10.5 110.5 z" />
<glyph unicode="&#xd9;" d="M68 502v680q0 53 41 90t94 37t94 -40t269.5 -36t268 40t95.5 36q55 -2 93 -41t38 -92v-691q0 -102 -41 -190t-108.5 -152.5t-158 -100.5t-188.5 -36q-106 0 -196 39t-157 106.5t-104.5 157.5t-39.5 193zM278 1673q14 55 64.5 83t101.5 14l248 -66q57 -16 85 -64.5 t13 -103.5q-14 -57 -64 -87t-106 -15l-245 67q-55 14 -83 63.5t-14 108.5z" />
<glyph unicode="&#xda;" d="M68 502v680q0 53 41 90t94 37t94 -40t269.5 -36t268 40t95.5 36q55 -2 93 -41t38 -92v-691q0 -102 -41 -190t-108.5 -152.5t-158 -100.5t-188.5 -36q-106 0 -196 39t-157 106.5t-104.5 157.5t-39.5 193zM366 1524q-14 55 13.5 103.5t85.5 64.5l247 66q51 14 101.5 -14 t64.5 -83q14 -59 -13.5 -108t-82.5 -64l-246 -67q-55 -14 -105 15.5t-65 86.5z" />
<glyph unicode="&#xdb;" d="M68 502v680q0 53 41 90t94 37t94 -40t269.5 -36t268 40t95.5 36q55 -2 93 -41t38 -92v-691q0 -102 -41 -190t-108.5 -152.5t-158 -100.5t-188.5 -36q-106 0 -196 39t-157 106.5t-104.5 157.5t-39.5 193zM162 1573.5q10 56.5 49 95.5l246 246q41 41 97.5 39.5t101.5 -39.5 l266 -246q41 -41 50 -98.5t-32 -98.5q-39 -39 -96 -40t-98 40l-191 170l-170 -170q-39 -39 -95 -39t-97 41q-41 43 -31 99.5z" />
<glyph unicode="&#xdc;" d="M68 502v680q0 53 41 90t94 37t94 -40t269.5 -36t268 40t95.5 36q55 -2 93 -41t38 -92v-691q0 -102 -41 -190t-108.5 -152.5t-158 -100.5t-188.5 -36q-106 0 -196 39t-157 106.5t-104.5 157.5t-39.5 193zM228 1560q0 57 39.5 98t97.5 41q59 0 100 -41t41 -98t-41 -98 t-100 -41q-57 0 -97 41t-40 98zM623 1560q0 57 40 98t97 41q59 0 100 -41t41 -98t-41 -98t-100 -41q-57 0 -97 41t-40 98z" />
<glyph unicode="&#xdd;" horiz-adv-x="1083" d="M36 1181.5q5 59.5 52 98.5q45 37 323.5 5t495.5 -6t277.5 32t105.5 -31q47 -39 52.5 -98.5t-31.5 -106.5l-480 -588v-342q0 -59 -43 -102t-102 -43t-101 43t-42 102v344l-475 586q-37 47 -32 106.5zM510 1524q-14 55 13.5 103.5t85.5 64.5l247 66q51 14 101.5 -14 t64.5 -83q14 -59 -13.5 -108t-82.5 -64l-246 -67q-55 -14 -105 15.5t-65 86.5z" />
<glyph unicode="&#xde;" horiz-adv-x="1081" d="M76 -129v1294q0 59 42 102.5t101 43.5t102.5 -43t43.5 -103v-1294q0 -59 -43 -102t-103 -43q-59 0 -101 43t-42 102zM76 496v686q0 25 12 48t30.5 40.5t42 28t48.5 8.5q27 2 51.5 -9.5t44 -30t29.5 -44t10 -52.5v-235q72 37 148.5 48t152.5 0t147.5 -45t133.5 -91 q72 -74 107.5 -159t35.5 -193q0 -102 -40 -192.5t-107.5 -158t-157.5 -106.5t-191 -39q-98 0 -188 40t-158.5 107.5t-109.5 157.5t-41 191zM344 496q0 -47 18.5 -89t50 -73t72.5 -49.5t88 -18.5q45 0 87 18.5t74 49.5t50.5 73t18.5 89t-18.5 89t-50.5 72.5t-74 49t-87 18.5 q-47 0 -88 -19.5t-72.5 -51t-50 -73.5t-18.5 -85z" />
<glyph unicode="&#xdf;" horiz-adv-x="1001" d="M66 139v703q4 98 41.5 183t99 148.5t144.5 99.5t177 36h11l8 2q82 0 153.5 -31t125 -85t84 -126t30.5 -154q0 -78 -25.5 -143t-70.5 -119q45 -51 70.5 -117.5t25.5 -140.5q0 -82 -30.5 -154.5t-84 -126t-125 -85t-153.5 -31.5h-2q-57 0 -96 40t-39 95q0 59 38.5 98 t96.5 39h2q51 0 88 36t37 89t-37 89t-88 36h-4q-57 0 -96 39t-39 94t38.5 95t96.5 40h4q51 0 88 37t37 90q0 45 -31 78q-16 14 -39 25q-35 14 -74 14t-72.5 -14t-59 -41t-41 -60.5t-15.5 -74.5v-703q0 -57 -39 -98t-96 -41q-59 0 -99 41t-40 98z" />
<glyph unicode="&#xe0;" d="M53 496q0 53 11.5 102t31.5 96q59 133 180 215t275 82h29.5t27.5 -2q92 -10 173 -53t139.5 -109.5t92.5 -151.5t34 -179v-363q0 -55 -41 -94t-93 -39q-72 0 -114 66q-10 -4 -18.5 -9.5t-16.5 -9.5q-49 -23 -100 -35q-53 -12 -113 -12q-154 0 -274.5 83t-180.5 214 q-20 47 -31.5 96t-11.5 103zM297 1364q14 55 64.5 83t101.5 14l248 -66q57 -16 85 -64.5t13 -103.5q-14 -57 -64 -87t-106 -15l-245 67q-55 14 -83 63.5t-14 108.5z" />
<glyph unicode="&#xe1;" d="M53 496q0 53 11.5 102t31.5 96q59 133 180 215t275 82h29.5t27.5 -2q92 -10 173 -53t139.5 -109.5t92.5 -151.5t34 -179v-363q0 -55 -41 -94t-93 -39q-72 0 -114 66q-10 -4 -18.5 -9.5t-16.5 -9.5q-49 -23 -100 -35q-53 -12 -113 -12q-154 0 -274.5 83t-180.5 214 q-20 47 -31.5 96t-11.5 103zM325 1231q-14 55 13.5 103.5t85.5 64.5l247 66q51 14 101.5 -14t64.5 -83q14 -59 -13.5 -108t-82.5 -64l-246 -67q-55 -14 -105 15.5t-65 86.5z" />
<glyph unicode="&#xe2;" d="M53 496q0 53 11.5 102t31.5 96q59 133 180 215t275 82h29.5t27.5 -2q92 -10 173 -53t139.5 -109.5t92.5 -151.5t34 -179v-363q0 -55 -41 -94t-93 -39q-72 0 -114 66q-10 -4 -18.5 -9.5t-16.5 -9.5q-49 -23 -100 -35q-53 -12 -113 -12q-154 0 -274.5 83t-180.5 214 q-20 47 -31.5 96t-11.5 103zM149 1260.5q10 56.5 49 95.5l246 246q41 41 97.5 39.5t101.5 -39.5l266 -246q41 -41 50 -98.5t-32 -98.5q-39 -39 -96 -40t-98 40l-191 170l-170 -170q-39 -39 -95 -39t-97 41q-41 43 -31 99.5z" />
<glyph unicode="&#xe3;" d="M53 496q0 53 11.5 102t31.5 96q59 133 180 215t275 82h29.5t27.5 -2q92 -10 173 -53t139.5 -109.5t92.5 -151.5t34 -179v-363q0 -55 -41 -94t-93 -39q-72 0 -114 66q-10 -4 -18.5 -9.5t-16.5 -9.5q-49 -23 -100 -35q-53 -12 -113 -12q-154 0 -274.5 83t-180.5 214 q-20 47 -31.5 96t-11.5 103zM94.5 1303q-16.5 55 18.5 116q37 63 85 100.5t113.5 52.5t138.5 1t120 -41l100 -55q33 -23 51.5 -18t44.5 38q27 45 75 65.5t102 -9.5q51 -29 68.5 -84.5t-19.5 -116.5q-37 -63 -85 -101t-113.5 -52.5t-141.5 1t-115 39.5l-102 55 q-31 20 -55.5 11.5t-39.5 -33.5q-29 -43 -76.5 -63.5t-101.5 10.5q-51 29 -67.5 84z" />
<glyph unicode="&#xe4;" d="M53 496q0 53 11.5 102t31.5 96q59 133 180 215t275 82h29.5t27.5 -2q92 -10 173 -53t139.5 -109.5t92.5 -151.5t34 -179v-363q0 -55 -41 -94t-93 -39q-72 0 -114 66q-10 -4 -18.5 -9.5t-16.5 -9.5q-49 -23 -100 -35q-53 -12 -113 -12q-154 0 -274.5 83t-180.5 214 q-20 47 -31.5 96t-11.5 103zM213 1247q0 57 39.5 98t97.5 41q59 0 100 -41t41 -98t-41 -98t-100 -41q-57 0 -97 41t-40 98zM608 1247q0 57 40 98t97 41q59 0 100 -41t41 -98t-41 -98t-100 -41q-57 0 -97 41t-40 98z" />
<glyph unicode="&#xe5;" d="M53 496q0 53 11.5 102t31.5 96q59 133 180 215t275 82h29.5t27.5 -2q92 -10 173 -53t139.5 -109.5t92.5 -151.5t34 -179v-363q0 -55 -41 -94t-93 -39q-72 0 -114 66q-10 -4 -18.5 -9.5t-16.5 -9.5q-49 -23 -100 -35q-53 -12 -113 -12q-154 0 -274.5 83t-180.5 214 q-20 47 -31.5 96t-11.5 103z" />
<glyph unicode="&#xe6;" horiz-adv-x="1777" d="M30 496q0 53 11.5 102t31.5 96q59 133 180 215t275 82h29.5t27.5 -2q92 -10 173 -53t139.5 -109.5t92.5 -151.5t34 -179v-363q0 -55 -41 -94t-93 -39q-72 0 -114 66q-10 -4 -18.5 -9.5t-16.5 -9.5q-49 -23 -100 -35q-53 -12 -113 -12q-154 0 -274.5 83t-180.5 214 q-20 47 -31.5 96t-11.5 103zM753 496q0 96 40 186t107.5 158.5t158 109.5t190.5 41q98 0 188 -41t159 -109.5t109.5 -157.5t40.5 -187q0 -53 -39.5 -84t-99.5 -29q-104 -8 -93 -65.5t26.5 -91t10.5 -72.5t-36 -72q-55 -45 -122.5 -62.5t-143.5 -19.5q-98 -4 -188.5 36 t-159 108.5t-108.5 160.5t-40 191z" />
<glyph unicode="&#xe7;" horiz-adv-x="962" d="M49 496q0 98 40 188t108.5 157.5t159 108.5t190.5 41q205 0 348 -143q35 -39 32 -92.5t-40 -87.5q-37 -35 -37 -170.5t37 -175.5q18 -16 28.5 -39t11.5 -47.5t-7.5 -48t-24.5 -42.5q-72 -72 -158 -108.5t-190 -36.5q-102 0 -192.5 40t-158 107.5t-107.5 157.5t-40 191z M381 -233q2 27 21.5 43t46.5 16q29 0 49 -19.5t20 -47.5q0 -31 20.5 -51.5t51.5 -20.5q29 0 49.5 20.5t20.5 51.5q0 27 -17.5 46t-44.5 23h-67q-27 2 -47.5 19.5t-20.5 44.5v6v234q0 18 19.5 38.5t48.5 20.5q31 0 50 -20.5t19 -38.5v-164q49 -2 89 -25.5t67 -58.5 q20 -27 30.5 -58.5t10.5 -66.5q0 -43 -16.5 -81t-45 -65.5t-65.5 -44t-80 -16.5q-47 0 -86 17.5t-65.5 48t-42 69.5t-15.5 80z" />
<glyph unicode="&#xe8;" d="M51 496q0 96 40 186t107.5 158.5t158 109.5t190.5 41q98 0 188 -41t159 -109.5t109.5 -157.5t40.5 -187q0 -53 -39.5 -84t-99.5 -29q-104 -8 -93 -65.5t26.5 -91t10.5 -72.5t-36 -72q-55 -45 -122.5 -62.5t-143.5 -19.5q-98 -4 -188.5 36t-159 108.5t-108.5 160.5 t-40 191zM354 1368q14 55 64.5 83t101.5 14l248 -66q57 -16 85 -64.5t13 -103.5q-14 -57 -64 -87t-106 -15l-245 67q-55 14 -83 63.5t-14 108.5z" />
<glyph unicode="&#xe9;" d="M51 496q0 96 40 186t107.5 158.5t158 109.5t190.5 41q98 0 188 -41t159 -109.5t109.5 -157.5t40.5 -187q0 -53 -39.5 -84t-99.5 -29q-104 -8 -93 -65.5t26.5 -91t10.5 -72.5t-36 -72q-55 -45 -122.5 -62.5t-143.5 -19.5q-98 -4 -188.5 36t-159 108.5t-108.5 160.5 t-40 191zM350 1233q-14 55 13.5 103.5t85.5 64.5l247 66q51 14 101.5 -14t64.5 -83q14 -59 -13.5 -108t-82.5 -64l-246 -67q-55 -14 -105 15.5t-65 86.5z" />
<glyph unicode="&#xea;" d="M51 496q0 96 40 186t107.5 158.5t158 109.5t190.5 41q98 0 188 -41t159 -109.5t109.5 -157.5t40.5 -187q0 -53 -39.5 -84t-99.5 -29q-104 -8 -93 -65.5t26.5 -91t10.5 -72.5t-36 -72q-55 -45 -122.5 -62.5t-143.5 -19.5q-98 -4 -188.5 36t-159 108.5t-108.5 160.5 t-40 191zM131 1264.5q10 56.5 49 95.5l246 246q41 41 97.5 39.5t101.5 -39.5l266 -246q41 -41 50 -98.5t-32 -98.5q-39 -39 -96 -40t-98 40l-191 170l-170 -170q-39 -39 -95 -39t-97 41q-41 43 -31 99.5z" />
<glyph unicode="&#xeb;" d="M51 496q0 96 40 186t107.5 158.5t158 109.5t190.5 41q98 0 188 -41t159 -109.5t109.5 -157.5t40.5 -187q0 -53 -39.5 -84t-99.5 -29q-104 -8 -93 -65.5t26.5 -91t10.5 -72.5t-36 -72q-55 -45 -122.5 -62.5t-143.5 -19.5q-98 -4 -188.5 36t-159 108.5t-108.5 160.5 t-40 191zM246 1247q0 57 39.5 98t97.5 41q59 0 100 -41t41 -98t-41 -98t-100 -41q-57 0 -97 41t-40 98zM641 1247q0 57 40 98t97 41q59 0 100 -41t41 -98t-41 -98t-100 -41q-57 0 -97 41t-40 98z" />
<glyph unicode="&#xec;" horiz-adv-x="606" d="M45 1368q14 55 64.5 83t101.5 13l248 -65q57 -16 84.5 -64.5t13.5 -103.5q-14 -57 -64.5 -87t-105.5 -16l-246 68q-55 14 -82.5 63.5t-13.5 108.5zM199 121v741q4 53 43 88t92 37q53 0 89 -39t40 -94v-725q0 -55 -35 -92t-94 -41q-53 0 -90 32.5t-45 92.5z" />
<glyph unicode="&#xed;" horiz-adv-x="620" d="M76 121v741q4 53 43 88t92 37q53 0 89 -39t40 -94v-725q0 -55 -35 -92t-94 -41q-53 0 -90 32.5t-45 92.5zM76 1233q-14 55 13.5 103t84.5 65l248 65q51 14 101.5 -13.5t64.5 -82.5q14 -59 -13.5 -108.5t-82.5 -63.5l-246 -68q-55 -14 -105.5 16t-64.5 87z" />
<glyph unicode="&#xee;" horiz-adv-x="870" d="M32.5 1266.5q10.5 56.5 49.5 95.5l246 246q41 41 97 40t101 -40l267 -246q41 -41 50 -98.5t-32 -98.5q-39 -39 -96.5 -40t-98.5 40l-190 170l-170 -170q-39 -39 -95.5 -39t-97.5 41q-41 43 -30.5 99.5zM295 127v741q4 53 43 88t92 37q53 0 89 -39t40 -94v-725 q0 -55 -35 -92t-94 -41q-53 0 -90 33t-45 92z" />
<glyph unicode="&#xef;" horiz-adv-x="745" d="M37 1247q0 57 40 98t97 41q59 0 100 -41t41 -98t-41 -98t-100 -41q-57 0 -97 41t-40 98zM238 121v741q4 53 43 88t92 37q53 0 89 -39t40 -94v-725q0 -55 -35 -92t-94 -41q-53 0 -90 32.5t-45 92.5zM432 1247q0 57 40 98t97 41q59 0 100.5 -41t41.5 -98t-41 -98t-101 -41 q-57 0 -97 41t-40 98z" />
<glyph unicode="&#xf0;" horiz-adv-x="923" d="M39 412q0 86 32.5 160.5t88 130t130.5 88t161 32.5q37 0 71.5 -7t69.5 -17v104q-2 55 -42 95t-99 40h-2h-39q-55 0 -95.5 40t-40.5 96q0 57 40 96t96 39h77q80 -4 146.5 -41t115 -94.5t78 -128t35.5 -142.5v-491q0 -29 -4 -54.5t-10 -50.5q-16 -66 -54 -122t-90.5 -97 t-117 -64.5t-135.5 -23.5q-86 0 -161 33t-130.5 88t-88 130t-32.5 161zM309 412q0 -59 41 -100.5t101 -41.5q59 0 100 41t41 101q0 59 -41 99t-100 40t-100.5 -40t-41.5 -99z" />
<glyph unicode="&#xf1;" d="M63 133v369q2 102 40 192t104.5 158t157 106.5t196.5 38.5q98 0 188.5 -35.5t158 -100t108.5 -152.5t41 -191v-379q0 -53 -38 -92t-93 -41q-55 0 -95 36t-268.5 40t-269.5 -36t-94 -40t-94.5 37t-41.5 90zM102.5 1223q-16.5 55 18.5 116q37 63 85 100.5t113.5 52.5 t138.5 1t120 -41l100 -55q33 -23 51.5 -18t44.5 38q27 45 75 65.5t102 -9.5q51 -29 68.5 -84.5t-19.5 -116.5q-37 -63 -85 -101t-113.5 -52.5t-141.5 1t-115 39.5l-102 55q-31 20 -55.5 11.5t-39.5 -33.5q-29 -43 -76.5 -63.5t-101.5 10.5q-51 29 -67.5 84z" />
<glyph unicode="&#xf2;" horiz-adv-x="1073" d="M53 496q0 102 38 191t104.5 155.5t158 106.5t195.5 44q100 0 190 -39t158 -106.5t107.5 -157.5t39.5 -194q0 -102 -38.5 -191.5t-105 -157t-157 -106.5t-194.5 -39q-102 0 -192.5 37t-158 103.5t-106.5 156.5t-39 197zM348 1370q14 55 64.5 83t101.5 14l248 -66 q57 -16 85 -64.5t13 -103.5q-14 -57 -64 -87t-106 -15l-245 67q-55 14 -83 63.5t-14 108.5z" />
<glyph unicode="&#xf3;" horiz-adv-x="1073" d="M53 496q0 102 38 191t104.5 155.5t158 106.5t195.5 44q100 0 190 -39t158 -106.5t107.5 -157.5t39.5 -194q0 -102 -38.5 -191.5t-105 -157t-157 -106.5t-194.5 -39q-102 0 -192.5 37t-158 103.5t-106.5 156.5t-39 197zM336 1231q-14 55 13.5 103.5t85.5 64.5l247 66 q51 14 101.5 -14t64.5 -83q14 -59 -13.5 -108t-82.5 -64l-246 -67q-55 -14 -105 15.5t-65 86.5z" />
<glyph unicode="&#xf4;" horiz-adv-x="1073" d="M53 496q0 102 38 191t104.5 155.5t158 106.5t195.5 44q100 0 190 -39t158 -106.5t107.5 -157.5t39.5 -194q0 -102 -38.5 -191.5t-105 -157t-157 -106.5t-194.5 -39q-102 0 -192.5 37t-158 103.5t-106.5 156.5t-39 197zM133 1266.5q10 56.5 49 95.5l246 246 q41 41 97.5 39.5t101.5 -39.5l266 -246q41 -41 50 -98.5t-32 -98.5q-39 -39 -96 -40t-98 40l-191 170l-170 -170q-39 -39 -95 -39t-97 41q-41 43 -31 99.5z" />
<glyph unicode="&#xf5;" horiz-adv-x="1073" d="M53 496q0 102 38 191t104.5 155.5t158 106.5t195.5 44q100 0 190 -39t158 -106.5t107.5 -157.5t39.5 -194q0 -102 -38.5 -191.5t-105 -157t-157 -106.5t-194.5 -39q-102 0 -192.5 37t-158 103.5t-106.5 156.5t-39 197zM91.5 1303q-16.5 55 18.5 116q37 63 85 100.5 t113.5 52.5t138.5 1t120 -41l100 -55q33 -23 51.5 -18t44.5 38q27 45 75 65.5t102 -9.5q51 -29 68.5 -84.5t-19.5 -116.5q-37 -63 -85 -101t-113.5 -52.5t-141.5 1t-115 39.5l-102 55q-31 20 -55.5 11.5t-39.5 -33.5q-29 -43 -76.5 -63.5t-101.5 10.5q-51 29 -67.5 84z" />
<glyph unicode="&#xf6;" horiz-adv-x="1073" d="M47 496q0 102 38 191t104.5 155.5t158 106.5t195.5 44q100 0 190 -39t158 -106.5t107.5 -157.5t39.5 -194q0 -102 -38.5 -191.5t-105 -157t-157 -106.5t-194.5 -39q-102 0 -192.5 37t-158 103.5t-106.5 156.5t-39 197zM201 1247q0 57 39.5 98t97.5 41q59 0 100 -41 t41 -98t-41 -98t-100 -41q-57 0 -97 41t-40 98zM596 1247q0 57 40 98t97 41q59 0 100 -41t41 -98t-41 -98t-100 -41q-57 0 -97 41t-40 98z" />
<glyph unicode="&#xf7;" horiz-adv-x="839" d="M23 616q0 -57 38.5 -98t98.5 -41h522q57 0 97 41t40 98q0 59 -40 99.5t-97 40.5h-522q-59 0 -98 -40t-39 -100zM270 260q0 57 40 98t98 41q59 0 100 -41t41 -98t-41 -98t-100 -41q-57 0 -97.5 41t-40.5 98zM270 975q0 57 40 98t98 41q59 0 100 -41t41 -98t-41 -98 t-100 -41q-57 0 -97.5 41t-40.5 98z" />
<glyph unicode="&#xf8;" horiz-adv-x="1073" d="M53 496q0 102 38 191t104.5 155.5t158 106.5t195.5 44q100 0 190 -39t158 -106.5t107.5 -157.5t39.5 -194q0 -102 -38.5 -191.5t-105 -157t-157 -106.5t-194.5 -39q-102 0 -192.5 37t-158 103.5t-106.5 156.5t-39 197zM248 18l327 1032q16 55 69 82t106 9 q53 -16 79.5 -67.5t10.5 -105.5l-328 -1034q-16 -53 -67.5 -79.5t-104.5 -10.5q-55 16 -82 66.5t-10 107.5z" />
<glyph unicode="&#xf9;" horiz-adv-x="1077" d="M63 481v377q0 53 38.5 93t95.5 42q53 0 94 -40t269 -42t267 39t95 43q55 0 95 -40t42 -89v-368q0 -102 -39 -192.5t-106.5 -158t-157.5 -106.5t-195 -39q-98 -4 -188 34t-159 104.5t-110 155.5t-41 187zM321 1370q14 55 64.5 83t101.5 14l248 -66q57 -16 85 -64.5 t13 -103.5q-14 -57 -64 -87t-106 -15l-245 67q-55 14 -83 63.5t-14 108.5z" />
<glyph unicode="&#xfa;" horiz-adv-x="1077" d="M63 481v377q0 53 38.5 93t95.5 42q53 0 94 -40t269 -42t267 39t95 43q55 0 95 -40t42 -89v-368q0 -102 -39 -192.5t-106.5 -158t-157.5 -106.5t-195 -39q-98 -4 -188 34t-159 104.5t-110 155.5t-41 187zM321 1231q-14 55 13.5 103.5t85.5 64.5l247 66q51 14 101.5 -14 t64.5 -83q14 -59 -13.5 -108t-82.5 -64l-246 -67q-55 -14 -105 15.5t-65 86.5z" />
<glyph unicode="&#xfb;" horiz-adv-x="1077" d="M63 481v377q0 53 38.5 93t95.5 42q53 0 94 -40t269 -42t267 39t95 43q55 0 95 -40t42 -89v-368q0 -102 -39 -192.5t-106.5 -158t-157.5 -106.5t-195 -39q-98 -4 -188 34t-159 104.5t-110 155.5t-41 187zM155 1266.5q10 56.5 49 95.5l246 246q41 41 97.5 39.5t101.5 -39.5 l266 -246q41 -41 50 -98.5t-32 -98.5q-39 -39 -96 -40t-98 40l-191 170l-170 -170q-39 -39 -95 -39t-97 41q-41 43 -31 99.5z" />
<glyph unicode="&#xfc;" horiz-adv-x="1077" d="M63 481v377q0 53 38.5 93t95.5 42q53 0 94 -40t269 -42t267 39t95 43q55 0 95 -40t42 -89v-368q0 -102 -39 -192.5t-106.5 -158t-157.5 -106.5t-195 -39q-98 -4 -188 34t-159 104.5t-110 155.5t-41 187zM232 1247q0 57 39.5 98t97.5 41q59 0 100 -41t41 -98t-41 -98 t-100 -41q-57 0 -97 41t-40 98zM627 1247q0 57 40 98t97 41q59 0 100 -41t41 -98t-41 -98t-100 -41q-57 0 -97 41t-40 98z" />
<glyph unicode="&#xfd;" horiz-adv-x="1077" d="M39 674v182q0 57 40 97t95 40q59 0 99 -40t238 -40t237.5 40t95.5 40q59 0 99 -40t40 -97v-182v-2q0 -80 -25.5 -153t-70.5 -132t-107.5 -102t-136.5 -64v-399q0 -57 -40 -97t-95 -40q-59 0 -99 39.5t-40 97.5v401q-72 23 -132.5 66t-104.5 102.5t-68.5 131t-24.5 151.5z M317 1233q-14 55 13.5 103.5t85.5 64.5l247 66q51 14 101.5 -14t64.5 -83q14 -59 -13.5 -108t-82.5 -64l-246 -67q-55 -14 -105 15.5t-65 86.5z" />
<glyph unicode="&#xfe;" horiz-adv-x="1081" d="M76 -129v1294q0 59 42 102.5t101 43.5t102.5 -43t43.5 -103v-1294q0 -59 -43 -102t-103 -43q-59 0 -101 43t-42 102zM76 496v686q0 25 12 48t30.5 40.5t42 28t48.5 8.5q27 2 51.5 -9.5t44 -30t29.5 -44t10 -52.5v-235q72 37 148.5 48t152.5 0t147.5 -45t133.5 -91 q72 -74 107.5 -159t35.5 -193q0 -102 -40 -192.5t-107.5 -158t-157.5 -106.5t-191 -39q-98 0 -188 40t-158.5 107.5t-109.5 157.5t-41 191zM344 496q0 -47 18.5 -89t50 -73t72.5 -49.5t88 -18.5q45 0 87 18.5t74 49.5t50.5 73t18.5 89t-18.5 89t-50.5 72.5t-74 49t-87 18.5 q-47 0 -88 -19.5t-72.5 -51t-50 -73.5t-18.5 -85z" />
<glyph unicode="&#xff;" horiz-adv-x="1077" d="M39 674v182q0 57 40 97t95 40q59 0 99 -40t238 -40t237.5 40t95.5 40q59 0 99 -40t40 -97v-182v-2q0 -80 -25.5 -153t-70.5 -132t-107.5 -102t-136.5 -64v-399q0 -57 -40 -97t-95 -40q-59 0 -99 39.5t-40 97.5v401q-72 23 -132.5 66t-104.5 102.5t-68.5 131t-24.5 151.5z M193 1247q0 57 39.5 98t97.5 41q59 0 100 -41t41 -98t-41 -98t-100 -41q-57 0 -97 41t-40 98zM588 1247q0 57 40 98t97 41q59 0 100 -41t41 -98t-41 -98t-100 -41q-57 0 -97 41t-40 98z" />
<glyph unicode="&#x152;" horiz-adv-x="2023" d="M59 655q0 135 51.5 254t139.5 208t208 140.5t255 51.5t253.5 -51.5t207 -140.5t139.5 -207.5t51 -254.5q0 -135 -51 -253.5t-139.5 -208t-207 -140.5t-253.5 -51t-255 51t-208 140.5t-139.5 208t-51.5 253.5zM330 655q0 -80 29.5 -149.5t82 -121.5t122 -82t149.5 -30 t148.5 30t120.5 82t82 121.5t30 149.5t-30 148.5t-82 121t-120.5 82t-148.5 29.5t-149.5 -29.5t-122 -82t-82 -121t-29.5 -148.5zM1090 139v1030q0 53 38.5 96.5t98.5 43.5h585q57 0 97.5 -41t40.5 -99q0 -59 -40 -98t-98 -39h-450v-233h313q55 0 96 -41t41 -99 q0 -57 -40.5 -97t-96.5 -40h-313v-246h450q57 0 97.5 -40.5t40.5 -96.5q0 -59 -40 -99t-98 -40h-585q-53 0 -95 40t-42 99z" />
<glyph unicode="&#x153;" horiz-adv-x="1800" d="M53 516q0 102 38 191t104.5 155.5t158 106.5t195.5 44q100 0 190 -39t158 -106.5t107.5 -157.5t39.5 -194q0 -102 -38.5 -191.5t-105 -157t-157 -106.5t-194.5 -39q-102 0 -192.5 37t-158 103.5t-106.5 156.5t-39 197zM776 496q0 96 40 186t107.5 158.5t158 109.5 t190.5 41q98 0 188 -41t159 -109.5t109.5 -157.5t40.5 -187q0 -53 -39.5 -84t-99.5 -29q-104 -8 -93 -65.5t26.5 -91t10.5 -72.5t-36 -72q-55 -45 -122.5 -62.5t-143.5 -19.5q-98 -4 -188.5 36t-159 108.5t-108.5 160.5t-40 191z" />
<glyph unicode="&#x178;" horiz-adv-x="1083" d="M36 1181.5q5 59.5 52 98.5q45 37 323.5 5t495.5 -6t277.5 32t105.5 -31q47 -39 52.5 -98.5t-31.5 -106.5l-480 -588v-342q0 -59 -43 -102t-102 -43t-101 43t-42 102v344l-475 586q-37 47 -32 106.5zM224 1569q0 57 39.5 98t97.5 41q59 0 100 -41t41 -98t-41 -98t-100 -41 q-57 0 -97 41t-40 98zM619 1569q0 57 40 98t97 41q59 0 100 -41t41 -98t-41 -98t-100 -41q-57 0 -97 41t-40 98z" />
<glyph unicode="&#x2c6;" horiz-adv-x="913" d="M53 1260.5q10 56.5 49 95.5l246 246q41 41 97.5 39.5t101.5 -39.5l266 -246q41 -41 50 -98.5t-32 -98.5q-39 -39 -96 -40t-98 40l-191 170l-170 -170q-39 -39 -95 -39t-97 41q-41 43 -31 99.5z" />
<glyph unicode="&#x2dc;" horiz-adv-x="1060" d="M71.5 1223q-16.5 55 18.5 116q37 63 85 100.5t113.5 52.5t138.5 1t120 -41l100 -55q33 -23 51.5 -18t44.5 38q27 45 75 65.5t102 -9.5q51 -29 68.5 -84.5t-19.5 -116.5q-37 -63 -85 -101t-113.5 -52.5t-141.5 1t-115 39.5l-102 55q-31 20 -55.5 11.5t-39.5 -33.5 q-29 -43 -76.5 -63.5t-101.5 10.5q-51 29 -67.5 84z" />
<glyph unicode="&#x2000;" horiz-adv-x="978" />
<glyph unicode="&#x2001;" horiz-adv-x="1956" />
<glyph unicode="&#x2002;" horiz-adv-x="978" />
<glyph unicode="&#x2003;" horiz-adv-x="1956" />
<glyph unicode="&#x2004;" horiz-adv-x="652" />
<glyph unicode="&#x2005;" horiz-adv-x="489" />
<glyph unicode="&#x2006;" horiz-adv-x="326" />
<glyph unicode="&#x2007;" horiz-adv-x="326" />
<glyph unicode="&#x2008;" horiz-adv-x="244" />
<glyph unicode="&#x2009;" horiz-adv-x="391" />
<glyph unicode="&#x200a;" horiz-adv-x="108" />
<glyph unicode="&#x2010;" horiz-adv-x="931" d="M68 616q0 59 38.5 99.5t98.5 40.5h522q57 0 97 -40.5t40 -99.5q0 -57 -40 -98t-97 -41h-522q-59 0 -98 41t-39 98z" />
<glyph unicode="&#x2011;" horiz-adv-x="931" d="M68 616q0 59 38.5 99.5t98.5 40.5h522q57 0 97 -40.5t40 -99.5q0 -57 -40 -98t-97 -41h-522q-59 0 -98 41t-39 98z" />
<glyph unicode="&#x2012;" horiz-adv-x="931" d="M68 616q0 59 38.5 99.5t98.5 40.5h522q57 0 97 -40.5t40 -99.5q0 -57 -40 -98t-97 -41h-522q-59 0 -98 41t-39 98z" />
<glyph unicode="&#x2013;" horiz-adv-x="931" d="M68 616q0 59 38.5 99.5t98.5 40.5h522q57 0 97 -40.5t40 -99.5q0 -57 -40 -98t-97 -41h-522q-59 0 -98 41t-39 98z" />
<glyph unicode="&#x2014;" horiz-adv-x="1099" d="M70 616q0 59 38.5 99.5t98.5 40.5h686q57 0 97 -40.5t40 -99.5q0 -57 -40 -98t-97 -41h-686q-59 0 -98 41t-39 98z" />
<glyph unicode="&#x2018;" horiz-adv-x="489" d="M47.5 912.5q-14.5 54.5 13.5 105.5l129 221q27 47 82.5 62.5t104.5 -13.5q51 -31 66.5 -86t-13.5 -104l-127 -221q-29 -49 -85 -63.5t-107 15.5q-49 29 -63.5 83.5z" />
<glyph unicode="&#x2019;" horiz-adv-x="489" d="M47.5 912.5q-14.5 54.5 13.5 105.5l129 221q27 47 82.5 62.5t104.5 -13.5q51 -31 66.5 -86t-13.5 -104l-127 -221q-29 -49 -85 -63.5t-107 15.5q-49 29 -63.5 83.5z" />
<glyph unicode="&#x201a;" horiz-adv-x="489" d="M47.5 -181q-14.5 54 13.5 105l129 221q27 47 82.5 63t104.5 -13q51 -31 66.5 -86.5t-13.5 -104.5l-127 -221q-29 -49 -85 -63.5t-107 16.5q-49 29 -63.5 83z" />
<glyph unicode="&#x201c;" horiz-adv-x="917" d="M65.5 912.5q-14.5 54.5 14.5 105.5l129 221q27 47 82 62.5t104 -13.5q51 -31 66.5 -86t-12.5 -104l-127 -221q-29 -49 -85.5 -63.5t-107.5 15.5q-49 29 -63.5 83.5zM456.5 912.5q-14.5 54.5 14.5 105.5l129 221q27 47 82 62.5t104 -13.5q51 -31 66.5 -86t-12.5 -104 l-127 -221q-29 -49 -85.5 -63.5t-107.5 15.5q-49 29 -63.5 83.5z" />
<glyph unicode="&#x201d;" horiz-adv-x="917" d="M65.5 912.5q-14.5 54.5 14.5 105.5l129 221q27 47 82 62.5t104 -13.5q51 -31 66.5 -86t-12.5 -104l-127 -221q-29 -49 -85.5 -63.5t-107.5 15.5q-49 29 -63.5 83.5zM456.5 912.5q-14.5 54.5 14.5 105.5l129 221q27 47 82 62.5t104 -13.5q51 -31 66.5 -86t-12.5 -104 l-127 -221q-29 -49 -85.5 -63.5t-107.5 15.5q-49 29 -63.5 83.5z" />
<glyph unicode="&#x201e;" horiz-adv-x="915" d="M63.5 -212q-14.5 54 14.5 106l129 221q27 47 82 62.5t104 -13.5q51 -31 66.5 -86t-13.5 -105l-127 -221q-29 -49 -85 -63.5t-107 16.5q-49 29 -63.5 83zM454.5 -212q-14.5 54 14.5 106l129 221q27 47 82 62.5t104 -13.5q51 -31 66.5 -86t-12.5 -105l-127 -221 q-29 -49 -85.5 -63.5t-107.5 16.5q-49 29 -63.5 83z" />
<glyph unicode="&#x2022;" horiz-adv-x="530" d="M53 496q0 45 18.5 83.5t47 67.5t66.5 45.5t79 16.5q49 0 89 -19.5t68 -50.5t43 -69t15 -74q0 -43 -17.5 -82t-46 -68t-68.5 -45t-83 -16t-82 16t-67.5 45t-45 68t-16.5 82z" />
<glyph unicode="&#x2026;" horiz-adv-x="1083" d="M70 139q0 57 40 98.5t97 41.5q59 0 100 -41.5t41 -98.5t-41 -98t-100 -41q-57 0 -97 41t-40 98zM403 139q0 57 40 98.5t98 41.5q59 0 100 -41.5t41 -98.5t-41 -98t-100 -41q-57 0 -97.5 41t-40.5 98zM737 139q0 57 40 98.5t97 41.5q59 0 100.5 -41.5t41.5 -98.5t-41 -98 t-101 -41q-57 0 -97 41t-40 98z" />
<glyph unicode="&#x202f;" horiz-adv-x="391" />
<glyph unicode="&#x2039;" horiz-adv-x="708" d="M17 484.5q1 56.5 40 101.5l349 368q41 41 98 40t98 -42q39 -39 40 -96t-40 -98l-252 -273l252 -252q39 -39 39 -95t-41 -97q-43 -41 -99.5 -41t-94.5 39l-349 348q-41 41 -40 97.5z" />
<glyph unicode="&#x203a;" horiz-adv-x="710" d="M69 856q1 57 40 96q41 41 98 42t98 -40l348 -368q39 -45 40 -101.5t-40 -97.5l-348 -348q-39 -39 -95 -39t-99 41q-41 41 -41 97.5t39 94.5l251 252l-251 273q-41 41 -40 98z" />
<glyph unicode="&#x205f;" horiz-adv-x="489" />
<glyph unicode="&#x20ac;" horiz-adv-x="1112" d="M41 467q0 55 39 94q37 39 90 41v78q-53 2 -90 39q-39 41 -39 96t39 92t96 37q14 37 29 74q37 84 100.5 148.5t147.5 102.5t180 38q123 0 231.5 -62.5t171.5 -173.5q8 -14 15.5 -34.5t7.5 -39.5q0 -57 -41 -98t-98 -41q-45 0 -74 23.5t-51 58.5q-25 41 -67 65.5t-95 24.5 q-39 0 -73 -14.5t-60 -40.5q-14 -14 -25 -31h23q55 0 94 -37t39 -92t-39 -95t-94 -40h-54v-78h54q55 0 94 -40t39 -95t-39 -92t-94 -37h-4l6 -8q27 -25 60.5 -39.5t72.5 -14.5q53 0 94 25t68 66q23 35 47.5 57t79.5 22t96 -39.5t41 -99.5q0 -20 -7.5 -38.5t-17.5 -39.5 q-59 -104 -167.5 -166.5t-233.5 -62.5q-90 0 -174 36t-148.5 98.5t-103.5 146.5q-12 29 -21 57h-10q-57 0 -96 37t-39 92z" />
<glyph unicode="&#x2122;" horiz-adv-x="1714" d="M57 1169q0 57 40 98.5t98 41.5h325q59 0 99 -41t40 -99q0 -59 -39.5 -98t-99.5 -39h-24v-278q0 -59 -39 -99.5t-99 -40.5q-59 0 -98 40t-39 100v278h-26q-57 0 -97.5 39t-40.5 98zM674 741v222q0 80 21.5 145.5t77.5 112.5t111.5 61t100.5 14q37 0 75 -8t99 -37 q59 27 97 36t77 9q23 0 86.5 -12t118.5 -59t81 -110.5t26 -151.5v-222q0 -59 -41 -99t-97 -40q-59 0 -99 40t-40 99v185q0 39 -9 58.5t-26 19.5q-16 0 -26.5 -19.5t-10.5 -58.5v-185q0 -59 -39.5 -99t-97.5 -40q-57 0 -97 40t-40 99v185q0 39 -9 58.5t-28 19.5 q-16 0 -25.5 -19.5t-9.5 -58.5v-185q0 -59 -40 -99t-99 -40q-57 0 -97 40t-40 99z" />
<glyph unicode="&#x25fc;" horiz-adv-x="993" d="M0 0v993h993v-993h-993z" />
</font>
</defs>
</svg>
