<?xml version="1.0" standalone="no"?>
<!DOCTYPE svg PUBLIC "-//W3C//DTD SVG 1.1//EN" "http://www.w3.org/Graphics/SVG/1.1/DTD/svg11.dtd" >
<svg xmlns="http://www.w3.org/2000/svg" xmlns:xlink="http://www.w3.org/1999/xlink" version="1.1">
<metadata></metadata>
<defs>
<font id="arista_2.0_fatregular" horiz-adv-x="1075" >
<font-face units-per-em="2048" ascent="1638" descent="-410" />
<missing-glyph horiz-adv-x="460" />
<glyph horiz-adv-x="0" />
<glyph horiz-adv-x="682" />
<glyph unicode=" "  horiz-adv-x="460" />
<glyph unicode="&#x09;" horiz-adv-x="460" />
<glyph unicode="&#xa0;" horiz-adv-x="460" />
<glyph unicode="!" horiz-adv-x="409" d="M-98 137q0 61 23.5 116.5t64.5 97.5t96 65.5t121 23.5q59 0 113.5 -23.5t95.5 -65.5t65.5 -97.5t24.5 -116.5t-24.5 -115.5t-65.5 -95.5t-95.5 -65.5t-113.5 -24.5q-66 0 -121 24.5t-96 65.5t-64.5 95.5t-23.5 115.5zM-98 479v690q0 63 23.5 120t64.5 96.5t96 63.5 t121 24q59 0 113.5 -24t95.5 -63.5t65.5 -96t24.5 -120.5v-690q0 -66 -24.5 -121t-65.5 -95t-95.5 -63.5t-113.5 -23.5q-66 0 -121 23.5t-96 63.5t-64.5 95.5t-23.5 120.5z" />
<glyph unicode="&#x22;" horiz-adv-x="751" d="M-96 915v256q0 61 23.5 116.5t65.5 96.5t97.5 65t116.5 24q66 0 121 -24t95 -65t62.5 -96t22.5 -117v-256q0 -61 -22.5 -116.5t-62.5 -96t-95.5 -64.5t-120.5 -24q-61 0 -116.5 24t-97.5 64.5t-65.5 96t-23.5 116.5zM244 915v256q0 61 23.5 116.5t65.5 96.5t97.5 65 t116.5 24q66 0 121 -24t95 -65t62.5 -96t22.5 -117v-256q0 -61 -22.5 -116.5t-62.5 -96t-95.5 -64.5t-120.5 -24q-61 0 -116.5 24t-97.5 64.5t-65.5 96t-23.5 116.5z" />
<glyph unicode="#" horiz-adv-x="1214" d="M-127 481q0 78 34 143.5t95 106.5q-16 47 -16 107q0 57 20.5 108t56 91t85 65.5t108.5 32.5q18 68 45 129t67 107t94 74t130 28q104 0 178 -62q41 35 86 49.5t98 14.5q80 0 144.5 -37t104.5 -96.5t51.5 -133t-13.5 -147.5q100 -84 100 -223q0 -78 -36.5 -144.5 t-94.5 -107.5q8 -23 13.5 -51.5t5.5 -53.5q0 -59 -20.5 -111.5t-57.5 -93t-86 -66.5t-107 -32q-8 -23 -16 -50.5t-24 -80.5q-18 -45 -48 -83t-69 -65.5t-85 -44t-93 -16.5q-53 0 -100.5 19.5t-86.5 48.5q-41 -31 -88 -49.5t-96 -18.5q-61 0 -114.5 24.5t-94.5 66.5 t-64.5 95.5t-23.5 110.5q0 35 9 60.5t16 54.5q-47 43 -77 103.5t-30 127.5z" />
<glyph unicode="$" horiz-adv-x="1091" d="M-123 911q0 86 34 172t90 161t130 130.5t152 77.5q20 37 51 68q92 92 217 92t217 -92q25 -27 41 -47h74q59 0 112.5 -23t93 -62.5t64.5 -93t31 -116.5q0 -123 -67.5 -205t-178.5 -101q123 -74 199.5 -199.5t76.5 -277.5q0 -92 -30.5 -178t-85 -156.5t-126 -123 t-151.5 -78.5q-41 -74 -115.5 -117t-154.5 -43q-74 0 -147.5 38t-108.5 99h-84q-68 0 -123 23.5t-95 63.5t-62.5 95.5t-22.5 120.5q0 109 68.5 192t177.5 103q-119 74 -198 198t-79 279z" />
<glyph unicode="%" horiz-adv-x="1722" d="M-129 973q10 109 55 201t116 158.5t162 103.5t193 37q217 0 363 -158q145 -152 145 -365q0 -207 -145 -358q-145 -158 -367 -158q-115 2 -211 39t-165.5 105.5t-107.5 168t-38 226.5zM391 113.5q-6 58.5 12 115.5l330 1035q23 57 65 103t94 73.5t112.5 33t119.5 -17.5 q92 -35 144.5 -114.5t52.5 -174.5q0 -45 -12 -84l-82 -258t-82 -260t-82 -260l-82 -258q-20 -55 -61 -99t-93.5 -72t-111 -35t-115.5 12q-59 23 -104 62.5t-72 89.5t-33 108.5zM817 381q10 109 55.5 201t116 158.5t161.5 103.5t193 37q109 0 202 -44t161 -116t106.5 -167 t38.5 -196q0 -207 -145 -358h2q-150 -158 -369 -158q-115 2 -211 39t-165.5 105.5t-107.5 168t-38 226.5z" />
<glyph unicode="&#x26;" horiz-adv-x="1224" d="M-104 393q0 80 20.5 159t69.5 150q-72 129 -63 265.5t78 248t185.5 183t259.5 71.5q117 0 212.5 -45t164 -118.5t105.5 -169t37 -195.5q0 -16 -1 -31.5t-3 -31.5q57 4 110 -19.5t94 -65.5t66.5 -95.5t25.5 -108.5q0 -47 -17 -98.5t-50 -92.5l67 -55q45 -41 70 -93 t29 -106.5t-12.5 -108.5t-55.5 -102q-43 -45 -95 -71.5t-107.5 -30.5t-109.5 13.5t-102 60.5q-18 16 -34.5 31.5t-34.5 29.5q-76 -61 -165 -96t-194 -35q-127 0 -229 47t-174 125t-109.5 178.5t-37.5 206.5z" />
<glyph unicode="'" horiz-adv-x="401" d="M-102 920v256q0 61 23.5 116.5t65.5 96.5t97.5 64.5t116.5 23.5q66 0 121 -23.5t95 -64.5t62.5 -96.5t22.5 -116.5v-256q0 -61 -22.5 -116.5t-62.5 -96.5t-95.5 -65t-120.5 -24q-61 0 -116.5 24t-97.5 65t-65.5 96t-23.5 117z" />
<glyph unicode="(" horiz-adv-x="784" d="M-113 225v584q0 133 54.5 254t145.5 212t212 145.5t256 54.5h27q63 0 119.5 -24t96.5 -64.5t63.5 -96t23.5 -116.5q0 -66 -23.5 -121.5t-63.5 -95t-96.5 -62.5t-119.5 -23q-18 0 -34 -13t-28 -33.5t-19 -45t-7 -47.5v-479q0 -35 26.5 -62.5t61.5 -27.5q63 0 119.5 -22.5 t96.5 -62.5t63.5 -95.5t23.5 -120.5q0 -61 -23.5 -116.5t-63.5 -96.5t-96.5 -64.5t-119.5 -23.5h-27q-135 0 -256 54t-212 145.5t-145.5 211t-54.5 252.5z" />
<glyph unicode=")" horiz-adv-x="786" d="M-98 -137q0 66 23.5 121t63.5 95t95 62.5t121 22.5q35 0 61.5 27.5t26.5 62.5v479q0 23 -7 47.5t-19.5 45t-28 33.5t-33.5 13q-66 0 -121 23t-95 62.5t-63.5 95t-23.5 121.5q0 61 23.5 116.5t63.5 96t95 64.5t121 24h26q135 0 256 -54.5t212.5 -145.5t145.5 -212t54 -254 v-584q0 -133 -54 -252.5t-145.5 -211t-212 -145.5t-256.5 -54h-26q-66 0 -121 23.5t-95 64.5t-63.5 96t-23.5 117z" />
<glyph unicode="*" horiz-adv-x="747" d="M-109 950q0 51 19 105q-18 51 -19 106q0 37 9.5 76t31.5 78q82 125 209 141q80 111 234 111q72 0 131 -29t100 -80q129 -18 209 -145q41 -72 41 -150q0 -55 -18 -106q10 -27 14 -52.5t4 -54.5q0 -84 -43 -153q-78 -121 -207 -144q-41 -51 -100 -78.5t-131 -27.5 t-130.5 29.5t-99.5 78.5q-63 10 -119.5 48t-91.5 98q-23 35 -33 73.5t-10 75.5z" />
<glyph unicode="+" horiz-adv-x="845" d="M-139 614q0 61 17.5 113.5t51 92.5t81.5 64.5t110 30.5q8 55 33.5 103.5t65.5 83.5t91.5 55.5t110.5 20.5q55 0 105.5 -20.5t91 -56.5t67.5 -83t37 -103q55 -10 102 -35.5t83 -65.5t56.5 -91t20.5 -109q0 -55 -20.5 -106t-56.5 -91t-83 -67.5t-102 -36.5 q-10 -55 -37 -102t-67.5 -83t-91 -56.5t-105.5 -20.5q-57 0 -107.5 21.5t-90.5 57.5t-66.5 83t-36.5 100q-59 6 -107.5 32t-82 67t-52 92t-18.5 110z" />
<glyph unicode="," horiz-adv-x="403" d="M-102 -115v256q0 61 23.5 115.5t64.5 95.5t96.5 65.5t116.5 24.5q63 0 119.5 -24.5t97.5 -65.5t64.5 -95t23.5 -116v-256q0 -61 -23.5 -116.5t-64.5 -96.5t-97.5 -64.5t-119.5 -23.5q-61 0 -116.5 23.5t-96.5 64.5t-64.5 96.5t-23.5 116.5z" />
<glyph unicode="-" horiz-adv-x="923" d="M-100 616q0 63 22.5 120t62.5 96.5t95 63.5t121 24h522q61 0 116.5 -24t96.5 -63.5t64.5 -96.5t23.5 -120q0 -61 -23.5 -116.5t-64.5 -97.5t-96.5 -65.5t-116.5 -23.5h-522q-66 0 -121 23.5t-95 65.5t-62.5 97.5t-22.5 116.5z" />
<glyph unicode="." horiz-adv-x="378" d="M-113 139q0 61 23.5 116.5t64.5 97.5t96.5 65.5t116.5 23.5q63 0 120 -23.5t97.5 -65.5t64.5 -97.5t24 -116.5t-24 -116.5t-64.5 -97.5t-97 -65.5t-120.5 -23.5q-61 0 -116.5 23.5t-96.5 65.5t-64.5 97.5t-23.5 116.5z" />
<glyph unicode="/" horiz-adv-x="661" d="M-129.5 62.5q-20.5 74.5 6.5 164.5l330 1035q31 94 94.5 141t136 57t146 -14.5t127 -75.5t76 -126t-4.5 -163l-327 -1036q-41 -94 -106.5 -141t-139.5 -57.5t-144.5 14t-122 76t-72 126z" />
<glyph unicode="0" horiz-adv-x="1089" d="M-115 496q0 135 50.5 253.5t137.5 208t206.5 142.5t259.5 57h6q133 0 253 -52t210 -141.5t143 -210t53 -257.5q0 -135 -51 -255t-140 -209t-210 -141.5t-258 -52.5q-135 0 -256 49.5t-210 136.5t-141.5 207.5t-52.5 264.5z" />
<glyph unicode="1" horiz-adv-x="579" d="M-136 716.5q-5 59.5 9 113t48 98.5t85 76q254 164 356 163q63 0 120 -24.5t99 -66.5t66.5 -98t24.5 -120v-723q0 -61 -23.5 -115.5t-63.5 -95.5t-94.5 -64.5t-115.5 -23.5q-72 0 -131.5 23.5t-102.5 64.5t-66.5 95.5t-23.5 115.5l-4 334q-92 39 -149 131 q-29 57 -34 116.5z" />
<glyph unicode="2" horiz-adv-x="989" d="M-109 139q0 61 40.5 133t136.5 144q-76 39 -124 112.5t-48 161.5q0 104 57 191.5t143 150t187.5 98t191.5 35.5q119 0 229.5 -35.5t193.5 -102t133 -164t50 -220.5q0 -158 -98 -268q49 -41 82 -102.5t33 -133.5q0 -61 -24.5 -116.5t-65.5 -97.5t-95.5 -65.5t-115.5 -23.5 h-604q-63 4 -118 29.5t-95.5 65.5t-64.5 93.5t-24 114.5z" />
<glyph unicode="3" horiz-adv-x="1003" d="M-106 18q0 86 58 160t191 117q-45 70 -52 147.5t28 145.5q-78 37 -128 111.5t-50 166.5q0 63 22.5 119.5t62.5 96.5t95 63.5t121 23.5h501q68 -2 126.5 -25.5t102.5 -64.5t69.5 -96t27.5 -123q0 -59 -30.5 -122.5t-116.5 -151.5h2q88 -84 139 -197t51 -244 q0 -129 -49 -242.5t-133 -197.5t-199 -133t-244 -49q-115 0 -221 45t-189 116.5t-134 159.5t-51 174z" />
<glyph unicode="4" horiz-adv-x="937" d="M-139 168l237 803q18 59 58.5 103t93.5 68.5t112.5 28t118.5 -17.5q45 -16 82 -46t64.5 -68t43 -83t15.5 -90q0 -31 -10 -70.5t-23.5 -80.5t-29 -79t-25.5 -67q100 12 188 -30.5t136 -135.5q70 -39 114.5 -108.5t44.5 -155.5q0 -74 -36.5 -140.5t-92.5 -107.5v-94 q0 -43 -23.5 -93t-64.5 -91t-97 -68.5t-120 -27.5q-61 0 -115.5 27.5t-95.5 68.5t-64.5 91t-23.5 93v39h-186q-61 0 -121.5 25.5t-106 70.5t-67 105.5t-6.5 130.5z" />
<glyph unicode="5" horiz-adv-x="991" d="M-104 471v393q0 63 23.5 119.5t65.5 96.5t97 63.5t117 23.5h508q63 0 119.5 -23.5t96.5 -63.5t63.5 -96.5t23.5 -119.5q0 -74 -33 -138t-90 -105q100 -86 160.5 -204t60.5 -263q0 -135 -49 -251t-133 -200t-199 -132t-244 -48q-94 0 -196.5 35.5t-187.5 98t-140 147.5 t-55 186q0 63 33.5 129.5t78.5 111.5q-53 41 -86.5 104.5t-33.5 135.5z" />
<glyph unicode="6" horiz-adv-x="1079" d="M-117 504q0 84 21.5 166t64.5 157l301 527q43 70 113 103.5t141 33.5q35 0 73 -8t77 -31q74 -45 110.5 -112.5t36.5 -145.5q0 -23 -2 -46.5t-12 -47.5q16 -8 29.5 -14.5t29.5 -14.5q166 -92 251 -245.5t85 -323.5q0 -84 -23.5 -171t-66.5 -161q-47 -78 -111.5 -139.5 t-139.5 -104.5t-156.5 -65.5t-163.5 -22.5q-129 0 -248 54.5t-210 145.5t-145.5 212t-54.5 254z" />
<glyph unicode="7" horiz-adv-x="1024" d="M-113 864q0 61 25 116.5t65.5 97.5t95 65.5t115.5 23.5h682q57 -6 111.5 -32.5t95.5 -67.5t66.5 -92t25.5 -109q0 -72 -41 -161l-561 -1027q-37 -51 -90 -86.5t-112.5 -51t-120 -6.5t-115.5 46q-53 37 -84 86t-42 104.5t-2 112t40 107.5q86 158 136 250t81 148t50.5 92 t43.5 83h-164q-61 0 -115.5 22.5t-95 62.5t-65.5 95.5t-25 120.5z" />
<glyph unicode="8" horiz-adv-x="1019" d="M-117 463q0 113 36 210t101 179q-14 66 -14 147q8 205 158 344v-2q145 140 346 140q207 0 350 -152h-2q141 -147 141 -348q0 -25 -4 -54.5t-8 -56.5q72 -80 112 -183t40 -224q0 -129 -49.5 -243t-134.5 -200t-198.5 -135t-244.5 -49q-129 0 -243.5 47t-200.5 130 t-135.5 199t-49.5 251z" />
<glyph unicode="9" horiz-adv-x="1077" d="M-123 504q0 84 23.5 171t66.5 161q45 76 109.5 137t140.5 104t158 66.5t164 23.5q72 0 165 -25.5t207 -92.5q72 -43 125.5 -104.5t89 -134.5t53 -151.5t17.5 -156.5q0 -84 -21.5 -166t-64.5 -158l-303 -528q-43 -68 -111.5 -101.5t-140.5 -33.5q-35 0 -73 8t-76 31 q-76 45 -112 114.5t-36 143.5q0 51 14 94q-16 8 -31.5 14t-29.5 14q-166 92 -250 246t-84 324z" />
<glyph unicode=":" horiz-adv-x="391" d="M-106 139q0 61 23.5 116.5t64.5 97.5t96 65.5t117 23.5q63 0 119.5 -23.5t97.5 -65.5t64.5 -97.5t23.5 -116.5t-23.5 -116.5t-64.5 -97.5t-97.5 -65.5t-119.5 -23.5q-61 0 -116.5 23.5t-96.5 65.5t-64.5 97.5t-23.5 116.5zM-106 854q0 61 23.5 116.5t64.5 97.5t96 65.5 t117 23.5q63 0 119.5 -23.5t97.5 -65.5t64.5 -97.5t23.5 -116.5t-23.5 -116.5t-64.5 -97.5t-97.5 -65.5t-119.5 -23.5q-61 0 -116.5 23.5t-96.5 65.5t-64.5 97.5t-23.5 116.5z" />
<glyph unicode=";" horiz-adv-x="401" d="M-102 -115v256q0 61 23.5 115.5t64.5 95.5t96.5 65.5t116.5 24.5q63 0 119.5 -24.5t97.5 -65.5t64.5 -95t23.5 -116v-256q0 -61 -23.5 -116.5t-64.5 -96.5t-97.5 -64.5t-119.5 -23.5q-61 0 -116.5 23.5t-96.5 64.5t-64.5 96.5t-23.5 116.5zM-102 854q0 61 23.5 116.5 t64.5 97.5t96 65.5t117 23.5q63 0 119.5 -23.5t97.5 -65.5t64.5 -97.5t23.5 -116.5t-23.5 -116.5t-64.5 -97.5t-97.5 -65.5t-119.5 -23.5q-61 0 -116.5 23.5t-96.5 65.5t-64.5 97.5t-23.5 116.5z" />
<glyph unicode="&#x3c;" horiz-adv-x="786" d="M-147 610q0 84 37.5 157t111.5 110l447 237q33 16 68.5 25.5t70.5 9.5q82 0 152.5 -42t111.5 -118q25 -49 31 -101t-5.5 -103.5t-38 -96.5t-69.5 -78q43 -35 69.5 -79t38 -94t5.5 -102t-31 -99q-41 -74 -110.5 -116t-153.5 -42q-74 0 -139 33q-111 59 -224.5 118.5 t-224.5 118.5q-74 41 -110.5 112.5t-36.5 149.5z" />
<glyph unicode="=" horiz-adv-x="905" d="M-98 545q0 61 23.5 115.5t63.5 95.5t94 64.5t118 23.5h506q61 0 115.5 -23.5t94 -64.5t63.5 -95.5t24 -115.5t-24 -115.5t-63.5 -95.5t-94 -64.5t-115.5 -23.5h-506q-63 0 -117.5 23.5t-94.5 64.5t-63.5 95t-23.5 116zM-98 899q0 61 23.5 115.5t63.5 95.5t94 64.5 t118 23.5h506q61 0 115.5 -23.5t94 -64.5t63.5 -95.5t24 -115.5t-24 -115.5t-63.5 -95.5t-94 -64.5t-115.5 -23.5h-506q-63 0 -117.5 23.5t-94.5 64.5t-63.5 95.5t-23.5 115.5z" />
<glyph unicode="&#x3e;" horiz-adv-x="790" d="M-96 852q0 61 23.5 115.5t64.5 94.5t94 63.5t115 23.5q35 0 69.5 -9.5t67.5 -25.5l446 -235q74 -39 113 -114t39 -155q0 -78 -36 -149.5t-114 -112.5q-113 -59 -186.5 -98t-122.5 -65.5t-80.5 -43t-58.5 -30.5q-70 -33 -137 -33q-84 0 -155 42t-112 116q-25 47 -29.5 99 t6.5 103t37.5 96.5t69.5 77.5q-53 43 -83.5 106.5t-30.5 133.5z" />
<glyph unicode="?" horiz-adv-x="894" d="M-125 864q0 117 41 226.5t117 194.5t183.5 136.5t238.5 51.5q119 0 224 -45.5t184 -124t125 -184t46 -224.5q0 -102 -30.5 -187t-83.5 -161q-59 -82 -137 -138.5t-181 -80.5q-39 -72 -107.5 -113t-156.5 -41q-63 0 -117.5 24.5t-94.5 65.5t-63.5 95.5t-23.5 115.5v146 q-66 33 -110 95t-54 148zM39 137q0 61 23.5 115.5t63.5 95.5t94 64.5t116 23.5q61 0 116.5 -23.5t96.5 -64.5t64.5 -95.5t23.5 -115.5t-23.5 -116.5t-64.5 -96.5t-96.5 -64.5t-116.5 -23.5t-115.5 23.5t-94.5 64.5t-63.5 96.5t-23.5 116.5z" />
<glyph unicode="@" horiz-adv-x="1495" d="M-115 604q0 178 69 336t186.5 275.5t275.5 186t336 68.5q131 0 258 -43t235.5 -118.5t192.5 -179t133 -224.5t56 -254t-40 -268q-41 -117 -137 -198t-221 -105q0 -106 -52.5 -182t-144.5 -115q-127 -45 -280 -45q-178 0 -336 68.5t-275.5 186.5t-186.5 275.5t-69 335.5z " />
<glyph unicode="A" horiz-adv-x="1120" d="M-100 133v680q2 135 53 256t139 210t208 141.5t261 52.5q131 0 251 -49.5t210 -135.5t144.5 -203.5t54.5 -255.5v-690q0 -61 -22.5 -114.5t-62.5 -93.5t-93.5 -63.5t-114.5 -25.5q-61 0 -115.5 21.5t-96.5 60.5t-65.5 92.5t-23.5 116.5v76h-129v-70q0 -59 -24.5 -113.5 t-65.5 -95.5t-95.5 -64.5t-113.5 -23.5t-113.5 22.5t-95.5 61.5t-65.5 92.5t-24.5 114.5z" />
<glyph unicode="B" horiz-adv-x="1130" d="M-92 137v1039q4 59 26.5 112t60.5 93t88 64.5t110 29.5h485q117 0 218 -41t176 -114t119 -172t44 -216q0 -72 -17.5 -138.5t-46.5 -123.5q29 -59 46.5 -125t17.5 -133q0 -111 -43 -221.5t-121 -188.5t-178 -122t-215 -44h-473q-63 0 -118.5 24.5t-95.5 65.5 q-41 42 -63 96q-21 50 -20 105v10z" />
<glyph unicode="C" horiz-adv-x="1060" d="M-109 479v334q0 135 49.5 256t138.5 210t210 141.5t266 52.5q92 0 200.5 -32t202 -92.5t156 -149.5t62.5 -202q0 -61 -24 -116.5t-66 -97.5t-97 -65.5t-117 -23.5q-102 0 -161.5 45t-102.5 113q-6 14 -22.5 20.5t-32.5 6.5q-29 0 -47.5 -16.5t-18.5 -39.5v-334 q-2 -25 19.5 -42t50.5 -17q37 0 53 27q20 33 42 61.5t51.5 49t70.5 31.5t100 11q61 0 115.5 -23.5t95.5 -63.5t66 -96t25 -120q0 -106 -57.5 -192t-146.5 -147.5t-194.5 -96.5t-204.5 -35h-18q-133 0 -254 49t-212 135t-144.5 204t-53.5 255z" />
<glyph unicode="D" horiz-adv-x="1110" d="M-92 139v1030q0 57 23.5 112.5t63.5 97.5t95 68t121 26h375q123 0 236.5 -49.5t200.5 -133.5t140.5 -199.5t53.5 -246.5v-379q0 -125 -51.5 -238.5t-137.5 -200.5t-200.5 -138.5t-241.5 -51.5h-375q-61 0 -115.5 23.5t-96.5 63.5t-66.5 95.5t-24.5 120.5z" />
<glyph unicode="E" horiz-adv-x="999" d="M-92 139v1030q0 57 22.5 112.5t62.5 97.5t95 68t121 26h586q61 0 116.5 -24t96.5 -66t64.5 -97t23.5 -117q0 -115 -65.5 -192.5t-166.5 -99.5q43 -41 68.5 -98t25.5 -120q0 -68 -27.5 -126t-74.5 -99q51 -12 94 -39.5t76 -66.5t51.5 -87t18.5 -102q0 -66 -23.5 -121 t-64.5 -95t-96.5 -63.5t-116.5 -23.5h-586q-59 0 -113.5 23.5t-95.5 63.5t-66.5 95.5t-25.5 120.5z" />
<glyph unicode="F" horiz-adv-x="948" d="M-92 139v1030q0 57 23.5 112.5t63.5 97.5t95 68t121 26h586q61 0 116.5 -24t96.5 -66t64.5 -97t23.5 -117q0 -66 -23.5 -121t-64.5 -95t-96.5 -62.5t-116.5 -22.5q70 -35 117 -110.5t47 -169.5q0 -61 -23 -116.5t-62.5 -96.5t-95 -64.5t-121.5 -23.5h-145v-148 q0 -66 -23.5 -121t-63.5 -95t-96.5 -63.5t-119.5 -23.5q-66 0 -121 23.5t-95 63.5t-63.5 95.5t-23.5 120.5z" />
<glyph unicode="G" horiz-adv-x="1101" d="M-109 481v334q0 135 49.5 256t138.5 210t210 141.5t266 52.5q190 0 344 -89q51 -29 101.5 -71.5t89 -94t62.5 -107.5t24 -114q0 -47 -13.5 -88t-36.5 -75q78 -82 91 -207v-140q-8 -135 -59.5 -253.5t-138.5 -207.5t-206 -140.5t-262 -51.5h-4q-135 4 -254 55.5 t-207 137.5t-140 201.5t-55 250.5z" />
<glyph unicode="H" horiz-adv-x="1144" d="M-92 133v1036q0 70 25.5 125.5t68.5 94t99.5 60t115.5 21.5q61 0 116.5 -24.5t96.5 -65.5t64.5 -95t23.5 -116v-254h119v254q0 61 25.5 115.5t66.5 95.5t94.5 65.5t108.5 24.5q57 0 112.5 -22.5t98.5 -62t68.5 -95t25.5 -121.5v-1032q0 -59 -25.5 -113.5t-67.5 -95.5 t-97.5 -66.5t-114.5 -25.5q-55 0 -108.5 23.5t-94.5 64.5t-66.5 96.5t-25.5 116.5v172h-119v-172q0 -61 -23.5 -116.5t-64.5 -96.5t-96 -64.5t-117 -23.5q-68 0 -123 22.5t-96 61.5t-64.5 93.5t-25.5 119.5z" />
<glyph unicode="I" horiz-adv-x="417" d="M-94 137v1032q0 61 23.5 115.5t63.5 95.5t95 65.5t121 24.5q61 0 115.5 -24.5t95.5 -65.5t64.5 -95t23.5 -116v-1032q0 -61 -23.5 -116.5t-64.5 -96.5t-95.5 -64.5t-115.5 -23.5q-66 0 -121 23.5t-95 64.5t-63.5 96.5t-23.5 116.5z" />
<glyph unicode="J" horiz-adv-x="677" d="M-147 137q0 61 23.5 116.5t64.5 97.5t95 65.5t116 23.5q29 0 28 25v704q0 61 23.5 115.5t63.5 95.5t94.5 65.5t115.5 24.5q63 0 119.5 -24.5t97.5 -65.5t64.5 -95t23.5 -116v-708q-4 -129 -53 -242t-133 -196.5t-197.5 -134t-246.5 -52.5q-61 0 -115.5 22.5t-95.5 62.5 t-64.5 95.5t-23.5 120.5z" />
<glyph unicode="K" horiz-adv-x="1132" d="M-92 137v1032q0 61 23.5 115.5t65.5 95.5t97.5 65.5t116.5 24.5q59 0 110.5 -20t91.5 -56t65.5 -84t33.5 -102q53 47 104.5 90t102.5 91q47 43 103 62q50 17 100 17h10q55 -2 108.5 -24.5t98.5 -63.5q43 -49 65 -105q22 -54 22 -109q0 -60 -24 -116q-24 -54 -69 -100 l-338 -295l362 -321q39 -48 57 -104q14 -45 14 -91q0 -11 -1 -21q-4 -56 -26.5 -106.5t-61.5 -93.5q-47 -39 -101 -60q-56 -20 -112 -22h-10q-51 0 -99 18q-53 20 -98 60q-55 47 -107.5 91t-99.5 91q-8 -55 -33.5 -102t-65.5 -82t-91.5 -55.5t-110.5 -20.5 q-61 0 -116.5 23.5t-97.5 64.5t-65.5 96.5t-23.5 116.5z" />
<glyph unicode="L" horiz-adv-x="989" d="M-92 131v1040q0 61 23.5 116.5t64.5 96.5t96 65t121 24q57 0 112.5 -24t96.5 -65t66.5 -96t25.5 -117v-729h330q61 0 115.5 -23.5t95.5 -64.5t64.5 -96t23.5 -117q0 -66 -23.5 -121t-64.5 -95t-95.5 -63.5t-115.5 -23.5h-631q-66 0 -119 22.5t-93 61.5t-63.5 92.5 t-29.5 116.5z" />
<glyph unicode="M" horiz-adv-x="1515" d="M-96 139v754q0 113 45 217t123 185t183 129.5t226 48.5q78 0 145.5 -19.5t131.5 -54.5q63 35 129.5 54.5t146.5 19.5q117 0 219.5 -46.5t180 -125t125 -183t53.5 -223.5v-756q0 -66 -24.5 -121t-65.5 -95t-95.5 -63.5t-115.5 -23.5q-96 0 -170 49t-109 129 q-35 -80 -108.5 -129t-165.5 -49t-167 49t-110 129q-35 -80 -107.5 -129t-168.5 -49q-61 0 -116.5 23.5t-96.5 63.5t-64.5 95.5t-23.5 120.5z" />
<glyph unicode="N" horiz-adv-x="1120" d="M-100 127v680q2 135 53 256t139 210t208 141t261 52q131 0 251 -49t210 -135t144.5 -203.5t54.5 -255.5v-690q0 -61 -22.5 -114.5t-62.5 -93.5t-93.5 -63.5t-114.5 -25.5q-61 0 -115.5 21.5t-96.5 60.5t-65.5 92t-23.5 117v680q0 27 -19.5 46t-48.5 19q-25 0 -43 -16 t-18 -39v-684q0 -59 -24.5 -113.5t-65.5 -95.5t-95.5 -64.5t-113.5 -23.5t-113.5 22.5t-95.5 61.5t-65.5 92.5t-24.5 114.5z" />
<glyph unicode="O" horiz-adv-x="1105" d="M-109 479v334q0 135 49.5 256t138.5 210t210 141.5t266 52.5q131 0 251 -49.5t210 -135.5t144 -203.5t54 -255.5v-333q0 -135 -50 -256t-139 -210t-209 -141.5t-261 -52.5q-133 0 -254 49t-212 135t-144.5 204t-53.5 255z" />
<glyph unicode="P" horiz-adv-x="1087" d="M-92 137v1039q0 61 23.5 116.5t64.5 96.5t96 64.5t117 23.5h358q137 0 257 -52.5t210 -142.5t142.5 -210t52.5 -257t-52.5 -257t-142.5 -210t-209.5 -142t-257.5 -52h-57v-17q0 -61 -23.5 -116.5t-64.5 -96.5t-96.5 -64.5t-116.5 -23.5t-116.5 23.5t-96.5 64.5 t-64.5 96.5t-23.5 116.5z" />
<glyph unicode="Q" horiz-adv-x="1232" d="M-111 479v334q0 135 49.5 256t138.5 210t210 141.5t266 52.5q131 0 251 -49.5t210 -135.5t144 -203.5t54 -255.5v-333q0 -41 -2 -78t-12 -74q106 -76 134 -163q14 -42 14 -83q0 -43 -16 -85q-30 -81 -102.5 -145.5t-163.5 -93.5q-61 -20 -125 -20q-31 0 -63 4 q-98 15 -176 92q-69 -14 -147 -14q-133 0 -254 49t-212 135t-144.5 204t-53.5 255z" />
<glyph unicode="R" horiz-adv-x="1116" d="M-94 137v1039q0 61 23.5 116.5t64.5 96.5t96 64.5t117 23.5h358q137 0 257 -52.5t210 -142.5t142.5 -210t52.5 -257q0 -125 -41 -233.5t-117 -196.5l31 -31q43 -43 63.5 -98t20.5 -112.5t-20.5 -113t-61.5 -100.5q-43 -47 -98.5 -69.5t-114 -22.5t-114.5 22.5t-101 65.5 l-170 166q-8 -53 -34 -100t-65.5 -82t-91 -54.5t-106.5 -19.5q-61 0 -116.5 23.5t-96.5 64.5t-64.5 96.5t-23.5 116.5z" />
<glyph unicode="S" horiz-adv-x="1038" d="M-109 911q0 106 44.5 208t120 180.5t177 126t218.5 47.5h364q59 0 112.5 -23t93.5 -62.5t64.5 -93t30.5 -116.5q0 -121 -66.5 -203t-177.5 -103q121 -74 198 -198.5t77 -278.5q0 -115 -43 -215t-119 -175t-176 -121t-217 -48h-367q-68 0 -123 23.5t-95 63.5t-62.5 95.5 t-22.5 120.5q0 53 17.5 102.5t50.5 88.5t78 66.5t98 37.5q-123 72 -199 197t-76 280z" />
<glyph unicode="T" horiz-adv-x="1073" d="M-133 1169q0 61 23.5 116.5t64.5 97.5t96 66t117 24h735q63 0 119.5 -24t96.5 -66t63.5 -97t23.5 -117q0 -66 -23.5 -121t-63.5 -95t-96 -62.5t-120 -22.5h-65v-729q0 -66 -22.5 -121t-62.5 -95t-95.5 -63.5t-120.5 -23.5q-66 0 -121.5 23.5t-95 63.5t-62 95.5 t-22.5 120.5v729h-68q-61 0 -116.5 22.5t-96.5 62.5t-64.5 95.5t-23.5 120.5z" />
<glyph unicode="U" horiz-adv-x="1120" d="M-100 500v682q0 61 24.5 114.5t65.5 92t95 61.5t114 23q59 0 113.5 -24t95.5 -65t65.5 -95t24.5 -113v-684q0 -23 18.5 -39.5t42.5 -16.5q29 0 48.5 19.5t19.5 46.5v680q0 63 23.5 116.5t65.5 92.5t96 60.5t116 21.5q61 -2 114.5 -26t93.5 -64t62.5 -93t22.5 -114v-691 q0 -137 -54.5 -254.5t-144.5 -203.5t-210 -135.5t-251 -49.5q-141 0 -261 52.5t-208 141.5t-139 209t-53 255z" />
<glyph unicode="V" horiz-adv-x="1210" d="M-120 1174q2 58 23 111.5t63 96.5t102 68q51 21 106 21q6 -1 12 -1q60 -2 114 -25.5t97 -66.5t66 -104q37 -90 73.5 -172t71.5 -166q37 90 72 172t70 166q23 59 64.5 103t95 67.5t113.5 25.5q6 0 12 1q54 0 106 -21q59 -25 101 -68t64 -96q23 -54 25 -112v-10 q0 -53 -18 -105l-422 -1032v2q-35 -90 -113 -141.5t-170 -51.5q-41 0 -83 14.5t-79.5 40t-67.5 60.5t-48 74l-432 1034q-19 53 -19 107q1 4 1 8z" />
<glyph unicode="W" horiz-adv-x="1515" d="M-96 410v759q0 61 23.5 116.5t63.5 97.5t94 66t118 24q98 0 169.5 -51.5t106.5 -129.5q35 80 107.5 131.5t171.5 51.5q92 0 165.5 -51.5t108.5 -129.5q35 78 110 128.5t167 50.5q61 0 115.5 -24t96.5 -66t66.5 -97t24.5 -117v-757q-4 -115 -49 -219.5t-123 -183.5 t-183.5 -126t-226.5 -47q-72 0 -141.5 16.5t-134.5 53.5q-123 -66 -273 -70h-2q-121 0 -222 44t-177 121t-122 181.5t-54 227.5z" />
<glyph unicode="X" horiz-adv-x="1132" d="M-92 1218q10 56 42 108t83 91q82 55 176 56q72 0 138.5 -33t109.5 -99h-2q31 -45 57.5 -82.5t52.5 -74.5q55 80 109 159q37 53 88 84q50 31 108 41q25 4 50 4q33 0 65 -8q57 -12 111 -47q53 -39 85.5 -91t42.5 -110q5 -25 5 -50q1 -34 -7 -66q-14 -58 -51 -107v4 q-37 -53 -64.5 -94t-54 -80t-55 -80t-63.5 -90l237 -344q37 -51 49 -109q7 -30 7 -61q1 -27 -5 -54q-12 -56 -43.5 -107.5t-80.5 -88.5q-52 -37 -110 -49q-32 -7 -63 -7q-25 0 -51 5q-56 10 -107.5 43t-90.5 82l-111 162q-25 -41 -54.5 -80t-53.5 -78q-35 -53 -86.5 -85 t-108.5 -43q-27 -5 -54 -5q-30 0 -62 6q-60 12 -111 49h2q-49 39 -81 90.5t-43 107.5q-6 29 -6 59q0 26 5 54q10 58 45 109l240 344q-57 82 -96.5 138.5t-65 93.5t-43 61.5t-31.5 46.5q-39 51 -51 109q-7 32 -7 64q0 26 5 52z" />
<glyph unicode="Y" horiz-adv-x="1017" d="M-127 989v182q0 61 23.5 116.5t64.5 96.5t95.5 65t115.5 24q63 0 119.5 -24t96.5 -65t63.5 -96t23.5 -117v-182q0 -33 33 -33q35 0 35 33v182q0 61 23.5 116.5t64.5 96.5t95 65t116 24q63 0 119.5 -24t96.5 -65t63.5 -96t23.5 -117v-186q0 -90 -25.5 -174t-69.5 -155.5 t-106.5 -131t-138.5 -98.5v-289q0 -61 -23.5 -116.5t-64.5 -96.5t-95.5 -64.5t-115.5 -23.5q-66 0 -121 23.5t-95 64.5t-63.5 96.5t-23.5 116.5v295q-154 80 -242 225.5t-88 331.5z" />
<glyph unicode="Z" horiz-adv-x="1134" d="M-96 1169q0 61 24.5 116.5t65.5 97.5t95 66t116 24h723q66 -2 120 -28t94 -68t62.5 -96t22.5 -114q0 -41 -8.5 -76.5t-22.5 -60.5l-410 -590h144q66 0 121 -24.5t95 -65.5t62.5 -95t22.5 -116q0 -66 -22.5 -121t-62.5 -95t-95.5 -63.5t-120.5 -23.5h-727q-66 4 -119 29.5 t-92 66.5t-60.5 93.5t-21.5 111.5q0 39 11 81t36 83l391 567h-143q-61 0 -115.5 22.5t-95.5 62.5t-65.5 95.5t-24.5 120.5z" />
<glyph unicode="[" horiz-adv-x="636" d="M-92 -158v1352q8 55 32.5 105.5t63.5 88t89 61.5t112 26h233q61 0 116.5 -24t96.5 -64.5t64.5 -96t23.5 -116.5q0 -117 -63.5 -194t-165.5 -99v-725q102 -23 165.5 -101t63.5 -192q0 -61 -23.5 -116.5t-64.5 -96.5t-96 -64.5t-117 -23.5h-229q-63 0 -114.5 22.5 t-90.5 61.5t-63.5 90t-32.5 106z" />
<glyph unicode="\" horiz-adv-x="661" d="M-135 1169q0 47 15.5 92.5t43 84t65.5 67.5t85 43q57 20 115.5 14t110.5 -34.5t92 -73.5t63 -100q80 -256 163.5 -517.5t163.5 -517.5q18 -59 12 -118.5t-32.5 -110.5t-71.5 -90t-106 -58q-49 -18 -106.5 -12t-112 34t-97.5 72t-61 101q-80 256 -164 518t-164 518 q-14 41 -14 88z" />
<glyph unicode="]" horiz-adv-x="638" d="M-100 -137q0 115 63.5 192.5t165.5 100.5v725q-102 23 -165.5 99.5t-63.5 193.5q0 61 23.5 116.5t64.5 96t96 64.5t117 24h231q61 -2 112.5 -26t90.5 -61.5t63.5 -88t32.5 -105.5v-1352q-8 -55 -32.5 -106t-63.5 -90t-90 -61.5t-115 -22.5h-229q-61 0 -116.5 23.5 t-96.5 64.5t-64.5 96.5t-23.5 116.5z" />
<glyph unicode="^" horiz-adv-x="1165" d="M-114 586.5q1 60.5 20 118.5l397 612v-2q47 78 119 124t160 46q82 0 153.5 -49.5t124.5 -116.5l400 -614q20 -59 19 -122t-22.5 -118t-63.5 -99t-101 -69q-57 -23 -112.5 -20.5t-107 22.5t-95.5 57t-77 84h2q-27 39 -41 58.5t-24 35t-22.5 32t-34.5 48.5q-35 -43 -64 -87 t-61 -89q-33 -49 -78 -86t-96.5 -55t-105.5 -19.5t-107 19.5q-61 27 -102.5 73t-61 101t-18.5 115.5z" />
<glyph unicode="_" horiz-adv-x="1091" d="M-98 141q0 63 22.5 119.5t62.5 96.5t95 63.5t121 23.5h686q61 0 116.5 -23.5t96.5 -63.5t64.5 -96.5t23.5 -119.5q0 -61 -23.5 -116.5t-64.5 -97.5t-96.5 -65.5t-116.5 -23.5h-686q-66 0 -121 23.5t-95 65.5t-62.5 97.5t-22.5 116.5z" />
<glyph unicode="`" horiz-adv-x="614" d="M-115 1215.5q-9 58.5 9 113.5q16 59 55 108.5t89 81t108.5 41t113.5 -11.5h-2q68 -16 129.5 -32.5t120.5 -32.5q57 -20 104 -58.5t78 -87.5t40 -106t-9 -115v2q-16 -61 -55 -110.5t-90.5 -80t-110.5 -39.5t-117 9q-59 16 -120.5 33.5t-121.5 34.5q-59 14 -107 53 t-76.5 89t-37.5 108.5z" />
<glyph unicode="a" horiz-adv-x="1101" d="M-114 448q-2 23 -1 45q0 87 23 169q29 102 88 192t143 156.5t187.5 105.5t220.5 39q141 0 261 -55.5t208 -147.5t138 -210.5t52 -245.5v-363q0 -61 -25.5 -115.5t-66.5 -94.5t-95 -63.5t-110 -23.5q-82 0 -145 39q-53 -23 -107.5 -31t-109.5 -8q-102 0 -194.5 30 t-170.5 82t-139 124.5t-100 158.5q-49 106 -57 217z" />
<glyph unicode="b" horiz-adv-x="1079" d="M-100 496v686q0 55 26.5 107t68.5 93t95 66q47 22 97 22h12h9q54 0 104 -24q54 -26 94 -67.5t65 -95.5t25 -112v-18q39 5 77 5q100 0 195 -34q131 -47 231.5 -139t161 -219t60.5 -270q0 -135 -53.5 -256t-143.5 -210t-210 -141.5t-253 -52.5q-131 0 -251 53.5t-211 143.5 t-145 209.5t-54 253.5z" />
<glyph unicode="c" horiz-adv-x="978" d="M-117 496q0 131 53.5 250.5t143.5 210t211 144.5t254 54q84 0 179 -26.5t177 -77t135.5 -123t53.5 -164.5q0 -86 -49.5 -160t-125.5 -106q78 -37 126.5 -111t48.5 -158q0 -96 -56.5 -168.5t-139.5 -123t-177 -76t-172 -25.5q-135 0 -255 53.5t-211 143.5t-143.5 209.5 t-52.5 253.5z" />
<glyph unicode="d" horiz-adv-x="1079" d="M-141 496q0 133 53 252.5t143 210t211 143.5t254 53h32.5t31.5 -2v18q0 61 24.5 115.5t65.5 94.5t95.5 63.5t113.5 23.5t113.5 -21.5t95.5 -61t64.5 -95t23.5 -121.5v-673q0 -133 -53.5 -253t-144.5 -210t-211 -143.5t-251 -53.5t-250.5 52.5t-211 141.5t-145.5 209.5 t-54 256.5z" />
<glyph unicode="e" horiz-adv-x="1081" d="M-115 496q0 129 53.5 247.5t143.5 209.5t210 146.5t253 55.5q131 0 250.5 -54t211 -146.5t145.5 -211t54 -247.5q0 -104 -54 -173t-146 -94q6 -31 6 -57q0 -92 -45 -155.5t-115 -103.5t-150.5 -58.5t-154.5 -18.5h-18q-123 0 -235 50q-120 54 -211 145.5t-144.5 211 t-53.5 253.5z" />
<glyph unicode="f" horiz-adv-x="772" d="M-135 -162q0 109 63.5 188.5t161.5 104.5v209q-90 33 -124 102.5t-42 161.5q0 92 38 165t128 112v69q0 100 40 195.5t108.5 167t162 116t199.5 44.5q125 0 212 -73t97 -218q0 -104 -63.5 -182t-161.5 -107v-12q92 -37 129 -106.5t37 -162.5q0 -94 -35 -163.5t-131 -104.5 v-276q-6 -102 -47 -197.5t-107.5 -167.5t-155.5 -115t-190 -43q-59 0 -115.5 17.5t-100.5 53.5t-71.5 91t-31.5 131z" />
<glyph unicode="g" horiz-adv-x="1089" d="M-119 496q0 133 54.5 252.5t146.5 210t211 143.5t248 53q137 0 257 -52t209 -141.5t140 -210t51 -255.5q0 -131 -43 -244q23 -53 33 -115.5t10 -142.5v-10q0 -95 -38 -186q-40 -95 -108.5 -168.5t-161.5 -119t-198 -47.5h-131q-47 -41 -101 -61t-108 -20 q-63 0 -118.5 24.5t-96.5 66.5t-64.5 97t-23.5 115q0 74 38 138t93 111q-141 84 -220 228.5t-79 333.5z" />
<glyph unicode="h" horiz-adv-x="1095" d="M-92 117v1073q0 57 22.5 107.5t62.5 87t94.5 58t117.5 21.5q121 0 204 -79.5t93 -213.5v-22q16 2 32.5 2h34.5q133 0 253 -50t210 -137t143.5 -205t53.5 -253v-389q0 -61 -22.5 -112.5t-62.5 -89.5t-93.5 -59.5t-116.5 -23.5q-61 0 -115.5 21.5t-95.5 58.5t-65.5 89 t-24.5 114v377q0 27 -17.5 46t-46.5 19t-48 -20.5t-19 -44.5v-373q0 -61 -22.5 -113.5t-62.5 -90.5t-93.5 -59.5t-116.5 -23.5q-57 0 -111.5 23.5t-95.5 62.5t-66.5 90t-25.5 109z" />
<glyph unicode="i" horiz-adv-x="401" d="M-96 98v776q6 59 30.5 109.5t63.5 86.5t90 56.5t109 22.5h6q61 0 112.5 -22.5t89 -60.5t61 -90t30.5 -110v-739q0 -127 -76 -207t-211 -90q-125 0 -207 69.5t-98 198.5zM-96 1174q2 61 26.5 113t64.5 91t94.5 61.5t113.5 22.5q61 0 114.5 -23.5t93.5 -64.5t62.5 -95 t22.5 -114q0 -59 -23.5 -113.5t-63.5 -95.5t-94.5 -64.5t-115.5 -23.5q-131 4 -213 82t-82 224z" />
<glyph unicode="j" horiz-adv-x="573" d="M-145 -162q0 109 63.5 188.5t161.5 104.5v743q0 59 24.5 108.5t64.5 86.5t93 57.5t111 22.5h6q61 0 114.5 -21.5t93.5 -60.5t62.5 -90t22.5 -111v-794v-11q0 -86 -31 -175q-33 -93 -96.5 -168.5t-157.5 -124t-213 -48.5q-59 0 -115.5 17.5t-100.5 53.5t-71.5 91 t-31.5 131zM80 1174q2 61 26.5 113t64.5 91t94.5 61.5t113.5 22.5q61 0 114.5 -23.5t93.5 -64.5t62.5 -95t22.5 -114q0 -59 -23.5 -113.5t-63.5 -95.5t-94.5 -64.5t-115.5 -23.5q-131 4 -213 82t-82 224z" />
<glyph unicode="k" horiz-adv-x="917" d="M-92 137v1034q0 57 23.5 112.5t65.5 96.5t97.5 67t116.5 26t116.5 -24t96.5 -65t64.5 -96t23.5 -117v-120l31 30q45 45 99 67.5t110.5 22.5t112 -23.5t102.5 -66.5q45 -45 67.5 -100t22.5 -111.5t-22.5 -112t-67.5 -100.5l-154 -153l156 -156q45 -47 66.5 -103.5 t21.5 -112.5t-24.5 -111.5t-71.5 -102.5q-73 -46 -129 -68q-44 -17 -86 -17q-12 0 -24 1q-54 6 -113.5 45t-137.5 115q-37 -76 -105.5 -117t-154.5 -41q-59 0 -113.5 23.5t-96.5 64.5t-67.5 96.5t-25.5 116.5z" />
<glyph unicode="l" horiz-adv-x="583" d="M-100 358v838q0 53 23.5 101.5t64.5 85t95.5 59t115.5 24.5q61 0 115.5 -21.5t95.5 -60t64.5 -90t23.5 -112.5v-766q98 -23 161.5 -97.5t67.5 -185.5q0 -55 -20.5 -105.5t-56.5 -90t-87 -67.5t-112 -36h-37q-104 0 -198.5 43t-164 114.5t-110.5 167t-41 199.5z" />
<glyph unicode="m" horiz-adv-x="1320" d="M-96 147v490q0 104 41 198.5t112.5 165t167.5 112.5t207 42q61 0 117.5 -10t109.5 -37q104 47 230 47q104 0 200.5 -40t169 -109.5t115.5 -165t43 -203.5v-514q0 -57 -24.5 -109.5t-65.5 -91.5t-95 -62.5t-114 -23.5q-66 0 -126 31t-101 78q-41 -47 -103.5 -78 t-128.5 -31q-63 0 -123.5 30t-103.5 77q-41 -47 -99.5 -77t-129.5 -30q-61 0 -115.5 24.5t-95.5 66.5t-64.5 98.5t-23.5 121.5z" />
<glyph unicode="n" horiz-adv-x="1114" d="M-104 133v369q2 135 53 256t139 210t208 141t261 52q131 0 251 -49t210 -135t144.5 -204t54.5 -255v-379q0 -61 -23 -114.5t-62.5 -93.5t-93 -63.5t-114.5 -25.5q-61 0 -115.5 21.5t-96.5 60.5t-65.5 92.5t-23.5 116.5v369q0 27 -19.5 46t-48.5 19q-25 0 -43 -16t-18 -39 v-373q0 -59 -25 -113.5t-66 -95.5t-95 -64.5t-113 -23.5t-113.5 22.5t-95.5 61.5t-65.5 92.5t-24.5 114.5z" />
<glyph unicode="o" horiz-adv-x="1089" d="M-115 496q0 135 50.5 253.5t138.5 208t209 142.5t262 57q133 0 253 -52t210 -141.5t143 -210t53 -257.5q0 -135 -51 -255t-140 -209t-210 -141.5t-258 -52.5q-135 0 -256 49.5t-210 136.5t-141.5 207.5t-52.5 264.5z" />
<glyph unicode="p" horiz-adv-x="1079" d="M-100 -195v691q0 133 52 252.5t143 210t211 143.5t255 53q133 0 253 -52t210 -141.5t143.5 -210t53.5 -255.5t-50.5 -256t-139.5 -210t-210 -141.5t-260 -52.5h-32.5t-32.5 2v-22q0 -61 -23.5 -114.5t-63.5 -93.5t-94.5 -63.5t-117.5 -23.5q-57 0 -109.5 21.5t-94.5 59.5 t-66.5 90t-26.5 113z" />
<glyph unicode="q" horiz-adv-x="1079" d="M-141 498q0 135 52 255.5t141 210t210 141.5t256 52t255 -53t211 -143.5t143.5 -210t52.5 -252.5v-691q-2 -61 -27 -113t-67 -90t-94 -59.5t-109 -21.5q-63 0 -117.5 23.5t-94.5 63.5t-63.5 93t-23.5 115v22q-16 -2 -31.5 -2h-34.5q-139 0 -260 52.5t-210 141.5 t-139 209.5t-50 256.5z" />
<glyph unicode="r" horiz-adv-x="698" d="M-111 121v387q2 133 55.5 248.5t141.5 203t206 138.5t251 55q61 0 115.5 -22.5t94.5 -60.5t64.5 -90t30.5 -110q0 -66 -23.5 -122t-63.5 -98t-94.5 -65.5t-115.5 -25.5q-27 0 -46.5 -18.5t-19.5 -46.5v-388q-10 -121 -89 -196.5t-210 -75.5q-125 0 -205.5 77t-91.5 210z " />
<glyph unicode="s" horiz-adv-x="962" d="M-104 680q0 94 35.5 180t98 150.5t147.5 104.5t183 44h369q61 0 115.5 -25.5t93.5 -67.5t61.5 -95t22.5 -107q0 -63 -26.5 -119.5t-71.5 -97.5q70 -68 107.5 -154.5t37.5 -177.5v-11q0 -98 -35 -181q-37 -88 -103.5 -151.5t-156.5 -99.5t-190 -36h-377q-61 0 -114.5 22.5 t-93.5 61.5t-63.5 93.5t-23.5 115.5q0 66 29.5 126t81.5 103q-55 66 -91 151t-36 171z" />
<glyph unicode="t" horiz-adv-x="976" d="M-102 504v676q0 61 24.5 115.5t66.5 93t96.5 61.5t115.5 23t114.5 -23t93.5 -62.5t64.5 -94t30.5 -117.5v-7h188q68 0 122 -24.5t93 -65.5t60.5 -95t21.5 -116q0 -59 -25.5 -113.5t-66.5 -95.5t-95 -66.5t-110 -25.5h-188v-61q0 -29 18.5 -49.5t46.5 -20.5q33 0 47 15 q94 79 203 79h4q111 -2 203 -79q45 -47 70 -103q24 -56 27 -112v-14q1 -49 -17 -97q-20 -55 -66 -100q-96 -92 -208.5 -140.5t-245.5 -48.5q-141 0 -265 47t-217.5 135t-148.5 211t-57 275z" />
<glyph unicode="u" horiz-adv-x="1114" d="M-104 481v377q0 59 22.5 113.5t61 94.5t92 64.5t114.5 26.5h7q59 0 113 -23.5t95 -64.5t66 -96t25 -117v-360q0 -27 19 -46.5t46 -19.5q25 0 44.5 15.5t19.5 39.5v373q0 55 22.5 108.5t62 95.5t93 67.5t114.5 27.5q61 0 115.5 -24.5t96.5 -65.5t67 -93t27 -108v-370 q0 -135 -52.5 -256t-141.5 -210t-210 -141.5t-258 -52.5h-19q-121 0 -232 47q-120 51 -211 140.5t-145 207t-54 250.5z" />
<glyph unicode="v" horiz-adv-x="964" d="M-119 860q0 60 20.5 112t62.5 94t104 69q54 18 107 18h11q58 -2 109 -24.5t93 -62.5t71 -93q14 -41 24 -55q6 14 11.5 27t11.5 28q25 57 68.5 98t99.5 63t114 24q3 0 6 1q55 0 105 -24q59 -25 101 -67t63.5 -95t21.5 -112.5t-22 -115.5q-74 -182 -151.5 -362t-149.5 -363 q-12 -25 -37 -56.5t-59.5 -60t-79.5 -48t-99 -19.5q-92 0 -164.5 43t-119.5 152q-74 178 -123 294.5t-82 194.5t-53.5 128t-38.5 95q-25 57 -25 117z" />
<glyph unicode="w" horiz-adv-x="1320" d="M-96 354v490q-1 13 -1 25q1 49 19 95q24 58 65.5 100t97.5 66.5t118 24.5q70 0 127 -28.5t98 -75.5q43 53 104.5 80.5t126.5 27.5q68 0 129.5 -30.5t102.5 -79.5q41 47 101.5 76.5t125.5 29.5q59 0 113.5 -23.5t95.5 -62.5t65.5 -91t24.5 -110v-514q0 -109 -43 -204 t-115.5 -164.5t-169 -109.5t-200.5 -40q-125 0 -230 47q-53 -27 -109.5 -37t-117.5 -10q-111 0 -207 42t-167.5 112.5t-112.5 165t-41 198.5z" />
<glyph unicode="x" horiz-adv-x="1122" d="M-96 854q2 53 22.5 106.5t59.5 98.5q96 96 206 96h4q112 -2 212 -88l153 -154l158 154q45 43 97 64.5t106.5 21.5t107.5 -21.5t100 -64.5q43 -43 66 -97.5t23 -111.5t-21.5 -111.5t-64.5 -97.5l-154 -155q39 -39 77 -76t77 -76q43 -43 65.5 -97.5t22.5 -111.5 t-21.5 -111.5t-66.5 -99.5q-45 -46 -99 -66q-51 -20 -104 -19h-6q-56 1 -111 23.5t-100 65.5l-152 150l-174 -176q-41 -34 -93 -50q-46 -14 -93 -14h-13q-54 2 -104.5 23.5t-91.5 62.5q-43 43 -64.5 96.5t-22.5 108.5v5q1 52 19 104q20 54 60 100l161 160l-157 157 q-46 43 -66 95q-19 48 -18 97v9z" />
<glyph unicode="y" horiz-adv-x="1095" d="M-135 512v350q0 61 22.5 114.5t62.5 93.5t94.5 63.5t117.5 23.5q55 0 109.5 -21.5t96.5 -59.5t67.5 -91t25.5 -117v-370q0 -27 18.5 -45.5t46.5 -18.5q25 0 45.5 15.5t20.5 37.5v375q0 61 22.5 114.5t62.5 93.5t94 63.5t118 23.5q59 0 113.5 -22.5t95.5 -60.5t65.5 -91 t24.5 -115v-1052q0 -61 -24.5 -114.5t-65.5 -92.5t-95.5 -61.5t-113.5 -22.5q-55 0 -109.5 21.5t-95.5 60.5t-66.5 93t-25.5 122v18q-16 -2 -32.5 -2h-33.5q-133 0 -253.5 51.5t-211 141.5t-143.5 213t-53 268z" />
<glyph unicode="z" horiz-adv-x="1130" d="M-94 868q2 61 26.5 113.5t65.5 90.5t93 60.5t110 22.5h731q57 0 111.5 -26.5t94.5 -68.5t64.5 -94.5t24.5 -105.5q0 -121 -88 -209q-63 -66 -101.5 -104.5l-61 -61t-33.5 -34t-21 -19.5q66 -4 122 -29.5t97 -66.5t63.5 -93.5t22.5 -111.5q0 -55 -23.5 -110.5t-65.5 -98.5 q-42 -44 -96 -68q-44 -20 -92 -19q-12 0 -24 1h-725h-7q-92 0 -159 54q-69 56 -101 134q-23 57 -23 118q0 23 3 47q12 87 80 151l219 221q-70 4 -127 29.5t-99 67.5q-41 42 -63 96q-18 45 -19 95q0 9 1 19z" />
<glyph unicode="{" horiz-adv-x="897" d="M-137 516q0 86 35.5 153.5t103.5 106.5v33q0 133 53.5 253t144.5 211t210.5 145.5t255.5 54.5h26q61 0 116.5 -24t97.5 -65t65.5 -96t23.5 -117q0 -61 -23.5 -116.5t-65.5 -96t-97 -64.5t-117 -24q-18 0 -33.5 -13t-26.5 -33.5t-18.5 -45t-7.5 -47.5v-477 q0 -35 25.5 -62.5t60.5 -27.5q61 0 116.5 -23.5t97.5 -64.5t65.5 -95.5t23.5 -115.5q0 -66 -23.5 -121t-65.5 -95t-97 -63.5t-117 -23.5h-26q-135 0 -255 54t-211 145.5t-144.5 212t-53.5 253.5v35q-63 41 -101 108.5t-38 145.5z" />
<glyph unicode="|" horiz-adv-x="432" d="M-94 -129v1294q0 63 24.5 119.5t65.5 98.5t97.5 67t119.5 25t119.5 -25t98.5 -67t66.5 -98t24.5 -120v-1294q0 -63 -24.5 -119.5t-66.5 -98.5t-98.5 -66.5t-119.5 -24.5t-119.5 24.5t-97.5 66.5t-65.5 98t-24.5 120z" />
<glyph unicode="}" horiz-adv-x="897" d="M-98 -135q0 61 23.5 115.5t65.5 95.5t97.5 64.5t116.5 23.5q35 0 60.5 27.5t25.5 62.5v477q0 23 -7.5 47.5t-18.5 45t-26.5 33.5t-33.5 13q-61 0 -116.5 24t-97.5 64.5t-65.5 96t-23.5 116.5t23.5 116.5t65.5 96.5t97 65t117 24h26q135 0 255 -54.5t211 -145.5 t144.5 -211t53.5 -253v-33q63 -41 101 -108.5t38 -151.5t-35.5 -150.5t-103.5 -105.5v-33q0 -133 -53.5 -253.5t-144.5 -212t-210.5 -145.5t-255.5 -54h-26q-61 0 -116.5 23.5t-97.5 63.5t-65.5 95t-23.5 121z" />
<glyph unicode="~" horiz-adv-x="1056" d="M-98 563q0 86 40 160t104.5 129t145 87t160.5 32q141 0 307 -90q66 66 161 76t181 -37q72 -41 113 -108t41 -153t-43 -160.5t-108.5 -129t-146.5 -86t-157 -31.5q-37 0 -78.5 5t-82.5 15.5t-78 26.5t-64 41q-70 -63 -164 -73.5t-180 36.5q-72 43 -111.5 108.5 t-39.5 151.5z" />
<glyph unicode="&#xa1;" horiz-adv-x="358" d="M-98 -133q0 -63 23.5 -120t64.5 -96.5t96 -63.5t121 -24q59 0 113.5 24t95.5 63.5t65.5 96t24.5 120.5v690q0 66 -24.5 121t-65.5 95t-95.5 63.5t-113.5 23.5q-66 0 -121 -23.5t-96 -63.5t-64.5 -95.5t-23.5 -120.5v-690zM-98 899q0 -61 23.5 -116.5t64.5 -97.5t96 -65.5 t121 -23.5q59 0 113.5 23.5t95.5 65.5t65.5 97.5t24.5 116.5t-24.5 115.5t-65.5 95.5t-95.5 65.5t-113.5 24.5q-66 0 -121 -24.5t-96 -65.5t-64.5 -95.5t-23.5 -115.5z" />
<glyph unicode="&#xa2;" horiz-adv-x="940" d="M-135 496q0 92 24.5 176t68.5 156.5t106.5 133t136.5 103.5q0 63 24.5 119.5t65.5 97.5t97.5 65.5t119.5 24.5q59 0 112.5 -22.5t94.5 -60.5t67.5 -90t32.5 -109q49 -27 95 -60t82 -72.5t57.5 -88t21.5 -105.5q0 -90 -50 -159.5t-122 -106.5q78 -37 125 -111t47 -158 q0 -57 -22.5 -106t-59.5 -90t-82 -74t-90 -55q-2 -63 -26.5 -118.5t-66.5 -97.5t-97.5 -65.5t-118.5 -23.5t-119.5 24.5t-97.5 66.5t-65.5 98t-24.5 120q-74 47 -136.5 110.5t-106.5 138t-68.5 160.5t-24.5 179z" />
<glyph unicode="&#xa3;" horiz-adv-x="1087" d="M-121 518q0 82 36 149.5t95 108.5v164q0 102 41 198.5t111.5 170t165 119t202.5 45.5q131 0 217.5 -74t96.5 -221q0 -111 -61.5 -191t-170.5 -104v-111q55 -41 91 -105.5t38 -140.5q0 -49 -12 -88h191q61 0 116.5 -24.5t96.5 -65.5t64.5 -95t23.5 -116 q0 -61 -23.5 -116.5t-64.5 -96.5t-96.5 -64.5t-116.5 -23.5h-607q-66 0 -121 23.5t-95 63.5t-63.5 95.5t-23.5 120.5v131q-121 78 -131 248z" />
<glyph unicode="&#xa4;" horiz-adv-x="1138" d="M-92 1167q0 70 33.5 136.5t95.5 113.5q55 35 114.5 46.5t117 1t107.5 -42t87 -83.5l16 -24q20 4 44 4t44 2q25 0 48.5 -1t46.5 -3q6 12 18 29q39 51 90 80.5t108.5 39t115 -3t106.5 -45.5q66 -47 99.5 -114.5t33.5 -135.5q0 -55 -20.5 -110.5t-57.5 -91.5 q41 -68 58.5 -148t17.5 -158q0 -133 -55 -262q-8 -16 -11.5 -25.5t-13.5 -25.5l27 -37q53 -72 53 -155.5t-38 -154.5t-107.5 -118t-155.5 -47q-70 0 -136.5 34t-111.5 93l-31 45q-20 -2 -38.5 -3t-41.5 -1h-44t-42 4q-41 -78 -113.5 -125t-158.5 -47q-92 0 -160.5 46 t-104.5 117t-35 155t48 157q6 10 13.5 18.5t15.5 18.5q-16 27 -25 49q-53 125 -53 264q0 84 19.5 158t54.5 144q0 2 -2 3t-2 3q-43 61 -58.5 108t-15.5 92z" />
<glyph unicode="&#xa5;" horiz-adv-x="1079" d="M-113.5 1216.5q9.5 55.5 40 105.5t81.5 89t110.5 49t117 -2t109.5 -46t89 -85l107 -147l100 151q37 55 88 88t109.5 43.5t117 -2t107.5 -49.5q104 -86 129 -191.5t-55 -224.5l-111 -180q29 -39 46.5 -85t17.5 -97q0 -90 -48 -162q23 -35 35.5 -76t12.5 -84 q0 -59 -21.5 -111.5t-59.5 -92t-89.5 -64.5t-108.5 -29q-35 -78 -107.5 -128t-164.5 -50t-165 50.5t-108 127.5q-59 4 -109.5 29t-88 64.5t-59 92t-21.5 111.5q0 92 45 162q-23 35 -34 74t-11 86q0 104 63 184q-35 47 -63.5 90t-55.5 86q-33 51 -44 109.5t-1.5 114z" />
<glyph unicode="&#xa6;" horiz-adv-x="417" d="M-94 -180v1349q0 61 23.5 115.5t63.5 95.5t95 65.5t121 24.5q61 0 115.5 -24.5t95.5 -65.5t64.5 -95t23.5 -116v-1349q0 -61 -23.5 -116.5t-64.5 -96.5t-95.5 -64.5t-115.5 -23.5q-66 0 -121 23.5t-95 64.5t-63.5 96t-23.5 117z" />
<glyph unicode="&#xa7;" horiz-adv-x="1064" d="M-106 -121q-16 98 24.5 178t112.5 129q-55 78 -81 170.5t-16 198.5q6 47 21.5 93t36.5 93q-66 113 -66 238t48.5 235.5t137.5 196.5t205 125q45 16 95.5 22.5t101.5 6.5q68 0 129.5 -10.5t104.5 -22.5h-3q137 -43 243 -132t161 -212q14 -35 24.5 -75t6.5 -85 q-10 -78 -57.5 -139.5t-112.5 -95.5q47 -76 77.5 -175.5t24.5 -189.5q-6 -45 -19.5 -92t-41.5 -100q39 -72 55 -153t10 -163q-23 -129 -85 -224t-151 -156.5t-199 -87t-226 -15.5q-94 12 -185.5 47t-167 92t-131 133t-77.5 170z" />
<glyph unicode="&#xa8;" horiz-adv-x="798" d="M-100 1247q0 61 23.5 116.5t64.5 97.5t96 65.5t117 23.5q63 0 119.5 -23.5t97.5 -65.5t64.5 -97.5t23.5 -116.5t-23.5 -116.5t-64.5 -97.5t-97.5 -65.5t-119.5 -23.5q-61 0 -116.5 23.5t-96.5 65.5t-64.5 97.5t-23.5 116.5zM295 1247q0 61 23.5 116.5t64.5 97.5 t96.5 65.5t116.5 23.5q63 0 119.5 -23.5t97.5 -65.5t64.5 -97.5t23.5 -116.5t-23.5 -116.5t-64.5 -97.5t-97.5 -65.5t-119.5 -23.5q-61 0 -116.5 23.5t-96.5 65.5t-64.5 97.5t-23.5 116.5z" />
<glyph unicode="&#xa9;" horiz-adv-x="1513" d="M-102 606q0 162 59 306.5t160.5 259t236.5 190t287 100.5q29 4 60.5 6t60.5 5q178 0 335.5 -69t275.5 -186.5t186.5 -275.5t68.5 -336q0 -180 -69.5 -337.5t-188.5 -275.5t-275.5 -185.5t-328.5 -67.5q-182 0 -341 68.5t-275.5 187.5t-184 276.5t-67.5 333.5z" />
<glyph unicode="&#xaa;" horiz-adv-x="901" d="M-115 930q10 119 58.5 218t125 172t176 113t210.5 40q117 0 217 -47.5t174 -126t116 -178t44 -203.5v-279q-6 -78 -44 -142.5t-96.5 -104.5t-129 -50t-140.5 23q-150 -35 -279 -6.5t-224 106.5t-150.5 197.5t-57.5 267.5z" />
<glyph unicode="&#xab;" horiz-adv-x="1343" d="M-123 483q0 113 80 209l352 377q47 43 103.5 65.5t114 22.5t112.5 -23.5t102 -68.5q43 -43 64.5 -97.5t21.5 -111.5t-20.5 -112.5t-61.5 -98.5q-39 -41 -74.5 -79t-70.5 -77l141 -143q43 -43 64.5 -98t20.5 -111.5t-23.5 -112t-65.5 -98.5q-45 -45 -100 -67.5 t-112.5 -22.5t-113 22.5t-98.5 67.5q-94 94 -178 177t-168 167q-47 47 -68.5 101.5t-21.5 111.5zM485 483q0 119 82 211l355 373q45 45 101 68.5t112.5 23.5t112 -23.5t102.5 -68.5q45 -45 67.5 -99.5t22.5 -111.5t-21.5 -111.5t-64.5 -99.5q-39 -41 -74 -79t-70 -77 l142 -143q41 -43 63.5 -95t22.5 -112q0 -57 -22.5 -112.5t-67.5 -100.5q-47 -47 -102.5 -68.5t-112 -21.5t-111.5 23.5t-100 66.5q-23 20 -72 69.5t-102.5 104t-102.5 102.5t-70 70q-45 45 -67.5 99.5t-22.5 111.5z" />
<glyph unicode="&#xac;" horiz-adv-x="1046" d="M-147 616q0 63 22.5 120t62 96.5t95 63.5t121.5 24h686q63 -2 116.5 -26t93.5 -63.5t63.5 -93t27.5 -112.5v-248q0 -61 -23.5 -116.5t-63.5 -96.5t-96.5 -64.5t-119.5 -23.5q-113 0 -194 66.5t-103 170.5h-387q-66 0 -121.5 23.5t-95 65.5t-62 97.5t-22.5 116.5z" />
<glyph unicode="&#xad;" horiz-adv-x="923" d="M-100 616q0 63 22.5 120t62.5 96.5t95 63.5t121 24h522q61 0 116.5 -24t96.5 -63.5t64.5 -96.5t23.5 -120q0 -61 -23.5 -116.5t-64.5 -97.5t-96.5 -65.5t-116.5 -23.5h-522q-66 0 -121 23.5t-95 65.5t-62.5 97.5t-22.5 116.5z" />
<glyph unicode="&#xae;" horiz-adv-x="1513" d="M-102 606q0 178 74.5 336t197.5 275.5t278.5 186.5t315.5 69q178 0 335.5 -69t274.5 -186.5t185.5 -275.5t68.5 -336q0 -180 -69.5 -337.5t-188.5 -275.5t-275.5 -185.5t-328.5 -67.5q-182 0 -341 68.5t-275.5 187.5t-184 276.5t-67.5 333.5z" />
<glyph unicode="&#xb0;" horiz-adv-x="890" d="M-115 930q0 115 47.5 214t127 172t182 115t213.5 42q119 0 220 -48.5t175 -127t115 -180t41 -208.5q0 -119 -45.5 -221t-121 -177t-177 -119t-211.5 -46q-125 4 -228.5 44t-178.5 114t-117 181.5t-42 244.5z" />
<glyph unicode="&#xb1;" horiz-adv-x="880" d="M-121 139q0 63 22.5 119.5t62.5 96.5t95.5 63.5t120.5 23.5h522q61 0 116.5 -23.5t96.5 -63.5t65 -96.5t24 -119.5q0 -61 -24 -116.5t-65 -97.5t-96 -65.5t-117 -23.5h-522q-66 0 -121 23.5t-95 65.5t-62.5 97.5t-22.5 116.5zM-121 795q0 61 17.5 113.5t51.5 92t82 64.5 t109 31q8 55 34 103t66 83t91 55.5t110 20.5q55 0 105.5 -20.5t91.5 -56.5t67.5 -83t36.5 -102q55 -10 102.5 -36t83.5 -66t56.5 -91t20.5 -108q0 -55 -20.5 -106.5t-56.5 -91.5t-83 -67.5t-103 -35.5q-10 -55 -36.5 -102.5t-67.5 -83.5t-91 -56.5t-106 -20.5 q-57 0 -107 21.5t-90 57.5t-66.5 83t-37.5 101q-59 6 -107 31.5t-82 66.5t-52.5 92t-18.5 111z" />
<glyph unicode="&#xb2;" horiz-adv-x="722" d="M-109 655q0 43 23 95.5t82 119.5q-47 43 -72.5 102.5t-25.5 125.5q0 86 42 154.5t108.5 116.5t146 74.5t155.5 29.5h37q88 0 168 -35t138.5 -94.5t93 -138.5t34.5 -165q0 -115 -51 -204q61 -80 61 -183q0 -61 -24.5 -116.5t-66.5 -97.5t-96 -66.5t-116 -24.5h-340 q-68 0 -123 25.5t-94 68.5t-59.5 98.5t-20.5 114.5z" />
<glyph unicode="&#xb3;" horiz-adv-x="702" d="M-114 1082q-3 46 8.5 90.5t37.5 80.5q72 104 181.5 162t226.5 58h37q104 -6 199.5 -57.5t157 -131.5t79.5 -177t-31 -196q43 -98 26 -198.5t-76.5 -182t-152 -132t-202.5 -48.5h-37q-82 4 -163 32t-145.5 76t-104.5 116.5t-40 154.5q0 104 64 182q-29 35 -45.5 80 t-19.5 91z" />
<glyph unicode="&#xb4;" horiz-adv-x="612" d="M-116.5 1230.5q7.5 57.5 37.5 108t77 88t106 56.5l250 65q57 16 115.5 7t110 -37.5t88.5 -77t53 -111.5q18 -59 8 -118.5t-40 -108.5t-76 -86t-103 -51q-61 -18 -102 -29.5t-68 -19t-45.5 -11.5t-32.5 -8q-59 -18 -118.5 -7t-110.5 42t-88 79t-51 105q-18 57 -10.5 114.5 z" />
<glyph unicode="&#xb5;" horiz-adv-x="1095" d="M-92 -184v1052q0 61 24.5 114.5t65.5 91.5t95 60.5t114 22.5q63 0 117.5 -23.5t94.5 -63.5t62.5 -93t22.5 -115v-375q0 -23 20.5 -38t44.5 -15q29 0 47.5 18.5t18.5 45.5v370q0 63 25.5 116.5t67.5 91.5t96.5 59.5t109.5 21.5q63 0 117.5 -23.5t94.5 -63.5t62.5 -93 t22.5 -115v-350q0 -145 -53.5 -268t-144.5 -213t-211 -141.5t-253 -51.5h-33.5t-31.5 2v-18q0 -68 -25.5 -122t-66.5 -93t-95.5 -60.5t-109.5 -21.5q-59 0 -113.5 22.5t-95.5 61.5t-65.5 92t-24.5 115z" />
<glyph unicode="&#xb6;" horiz-adv-x="417" d="M-94 137v1032q0 61 23.5 115.5t63.5 95.5t95 65.5t121 24.5q61 0 115.5 -24.5t95.5 -65.5t64.5 -95t23.5 -116v-1032q0 -61 -23.5 -116.5t-64.5 -96.5t-95.5 -64.5t-115.5 -23.5q-66 0 -121 23.5t-95 64.5t-63.5 96.5t-23.5 116.5z" />
<glyph unicode="&#xb7;" horiz-adv-x="378" d="M-113 498q0 61 23.5 116.5t64.5 97.5t96.5 65.5t116.5 23.5q63 0 120 -23.5t97.5 -65.5t64.5 -97.5t24 -116.5t-24 -116.5t-64.5 -97.5t-97 -65.5t-120.5 -23.5q-61 0 -116.5 23.5t-96.5 65.5t-64.5 97t-23.5 117z" />
<glyph unicode="&#xb8;" horiz-adv-x="481" d="M-125 -211q4 53 25.5 95t56.5 71v195q0 35 17.5 73.5t48 72.5t72.5 55.5t93 21.5t94.5 -21.5t74 -55.5t48 -73t17.5 -73v-44q39 -20 67.5 -47.5t55.5 -58.5q35 -47 54 -104.5t19 -118.5q0 -78 -29.5 -144.5t-79.5 -118t-117.5 -80t-143.5 -28.5q-84 0 -152.5 32t-118 86 t-76 122.5t-26.5 142.5z" />
<glyph unicode="&#xb9;" horiz-adv-x="548" d="M-145 989q0 57 21.5 111.5t68.5 101.5l180 182q45 43 99.5 67t113.5 24q63 0 119.5 -25t97.5 -66t64.5 -95t23.5 -115v-527q0 -61 -23.5 -116.5t-64.5 -96.5t-97.5 -64.5t-119.5 -23.5q-61 0 -116.5 23.5t-96.5 64.5t-64.5 96.5t-23.5 116.5v66q-82 37 -132 111.5 t-50 164.5z" />
<glyph unicode="&#xba;" horiz-adv-x="890" d="M-115 930q10 119 58.5 218t125 172t176 113t210.5 40q119 0 220 -48.5t175 -127t115 -180t41 -208.5q0 -119 -45.5 -221t-121 -177t-177 -119t-211.5 -46q-125 4 -228.5 44t-178.5 114t-117 181.5t-42 244.5z" />
<glyph unicode="&#xbb;" horiz-adv-x="1343" d="M-95 861.5q1 56.5 23.5 109.5t65.5 96q47 47 103.5 68.5t114.5 20.5t112.5 -23.5t97.5 -65.5l350 -373q86 -98 86 -211q0 -57 -22.5 -111.5t-67.5 -99.5l-348 -348q-49 -43 -105.5 -64.5t-112 -20.5t-108.5 21.5t-96 61.5v-2q-47 45 -68.5 101.5t-21.5 114t21.5 112.5 t64.5 100l139 139q-35 39 -74 83t-71 79q-43 45 -63.5 100.5t-19.5 112zM517 861.5q1 56.5 22.5 109.5t62.5 94q47 47 103.5 68.5t114 20.5t112.5 -23.5t98 -61.5l354 -377q43 -47 62.5 -101t19.5 -108q0 -57 -21.5 -111.5t-68.5 -101.5l-348 -346q-49 -43 -105.5 -64.5 t-112.5 -21.5t-108.5 21.5t-93.5 62.5v-2q-47 45 -68.5 101.5t-21.5 114t21.5 112.5t62.5 100l139 139q-35 39 -73.5 83t-71.5 79q-41 45 -60.5 100.5t-18.5 112z" />
<glyph unicode="&#xbc;" horiz-adv-x="1691" d="M-143 987q0 57 21.5 111.5t68.5 101.5l180 182q45 43 99.5 67t113.5 24q63 0 119.5 -25t97.5 -66t64.5 -95t23.5 -116v-526q0 -61 -23.5 -116.5t-64.5 -96.5t-97.5 -64.5t-119.5 -23.5q-61 0 -116.5 23.5t-96.5 64.5t-64.5 96.5t-23.5 116.5v66q-82 37 -132 111.5 t-50 164.5zM295.5 62.5q-21.5 74.5 7.5 164.5l330 1035q31 94 94.5 141t136 57t146 -14.5t127 -75.5t76 -126t-4.5 -163l-327 -1036q-41 -94 -106.5 -141t-139.5 -57.5t-144.5 14t-122 76t-73 126zM754 158l157 587q29 53 71 96.5t92 69t105.5 30.5t112.5 -19q41 -18 78 -49 t64.5 -70t44 -82t16.5 -88q0 -33 -10 -74q59 -18 106 -58t74 -98q70 -39 115 -108.5t45 -155.5q0 -74 -37 -140.5t-92 -107.5v-32q0 -43 -23.5 -93.5t-64.5 -91.5t-97.5 -68.5t-119.5 -27.5q-57 0 -109.5 24.5t-92.5 62.5t-64.5 83t-30.5 88h-39q-61 0 -116.5 23.5 t-96.5 66.5t-64.5 102.5t-23.5 129.5z" />
<glyph unicode="&#xbd;" horiz-adv-x="1634" d="M-127 986q0 58 21.5 113.5t68.5 102.5l180 182q45 43 99.5 67t113.5 24q63 0 119.5 -25t97.5 -66t65 -95t24 -115v-527q0 -61 -24 -116.5t-65 -96.5t-97 -64.5t-120 -23.5q-61 0 -116.5 23.5t-96.5 64.5t-64.5 96.5t-23.5 116.5v66q-25 10 -48 26.5t-42 32.5 q-45 45 -68.5 100.5t-23.5 113.5zM291.5 62.5q-21.5 74.5 7.5 164.5l330 1035q31 94 94 141t136 57t146.5 -14.5t127 -75.5t76 -126t-4.5 -163l-327 -1036q-41 -94 -106.5 -141t-139.5 -57.5t-144.5 14t-122 76t-73 126zM819 143q0 43 19.5 92.5t60.5 98.5l27 26 q-45 43 -73 101.5t-28 124.5q0 84 43 153.5t109.5 118.5t146.5 76t154 27h37q88 0 168 -35t138 -94.5t93 -138.5t35 -165q0 -115 -51 -204q61 -80 61 -183q0 -61 -24.5 -116.5t-66.5 -97.5t-96 -66.5t-116 -24.5h-340q-68 0 -123 25.5t-94 68.5t-59.5 98.5t-20.5 114.5z" />
<glyph unicode="&#xbe;" horiz-adv-x="1677" d="M-141 729q0 104 63 182q-63 78 -63 183q0 55 18.5 103t49 89t70.5 74t85 57q117 55 229 56h37q88 0 168 -34t138.5 -91.5t93 -133t34.5 -157.5q0 -51 -6 -83t-22 -63q16 -31 22 -63.5t6 -81.5q0 -84 -34.5 -159t-93 -132t-138.5 -91t-168 -34q-88 -2 -176 21.5 t-157.5 70.5t-112.5 119t-43 168zM340.5 62.5q-21.5 74.5 7.5 164.5l330 1035q31 94 94.5 141t136 57t146 -14.5t127 -75.5t77 -126t-5.5 -163l-327 -1036q-41 -94 -106.5 -141t-139.5 -57.5t-144.5 14t-122 76t-73 126zM739 158l158 587q29 53 71 96.5t92 69t105.5 30.5 t112.5 -19q41 -18 78 -49t64.5 -70t44 -82t16.5 -88q0 -33 -11 -74q59 -18 106.5 -58t74.5 -98q70 -39 114.5 -108.5t44.5 -155.5q0 -74 -36.5 -140.5t-92.5 -107.5v-32q0 -43 -23.5 -93.5t-64.5 -91.5t-97 -68.5t-120 -27.5q-57 0 -109.5 24.5t-92 62.5t-64.5 83t-31 88 h-39q-61 0 -116.5 23.5t-96.5 66.5t-64.5 102.5t-23.5 129.5z" />
<glyph unicode="&#xbf;" horiz-adv-x="913" d="M-121 98q0 102 30.5 187t83.5 161q59 82 137 138.5t181 80.5q39 72 107.5 113t156.5 41q63 0 117.5 -24.5t94.5 -65.5t63.5 -95.5t23.5 -115.5v-146q66 -33 110 -95t54 -148q0 -117 -41 -226.5t-117 -194.5t-183.5 -136.5t-238.5 -51.5q-119 0 -224 45.5t-184 124 t-125 184t-46 224.5zM276 856q0 61 23.5 116.5t64.5 96.5t96.5 64.5t116.5 23.5t115.5 -23.5t94.5 -64.5t63.5 -96.5t23.5 -116.5t-23.5 -115.5t-63.5 -95.5t-94 -64.5t-116 -23.5q-61 0 -116.5 23.5t-96.5 64.5t-64.5 95.5t-23.5 115.5z" />
<glyph unicode="&#xc0;" d="M-100 133v680q2 135 53 256t139 210t208 141.5t261 52.5q131 0 251 -49.5t210 -135.5t144.5 -203.5t54.5 -255.5v-690q0 -61 -22.5 -114.5t-62.5 -93.5t-93.5 -63.5t-114.5 -25.5q-61 0 -115.5 21.5t-96.5 60.5t-65.5 92.5t-23.5 116.5v76h-129v-70q0 -59 -24.5 -113.5 t-65.5 -95.5t-95.5 -64.5t-113.5 -23.5t-113.5 22.5t-95.5 61.5t-65.5 92.5t-24.5 114.5zM2 1594.5q-9 58.5 9 113.5q16 59 55 108.5t89 81t108.5 41t113.5 -11.5h-2q68 -16 129.5 -32.5t120.5 -32.5q57 -20 104 -58.5t78 -87.5t40 -106t-9 -115v2q-16 -61 -55 -110.5 t-90.5 -80t-110.5 -39.5t-117 9q-59 16 -120.5 33.5t-121.5 34.5q-59 14 -107 53t-76.5 89t-37.5 108.5z" />
<glyph unicode="&#xc1;" d="M-100 133v680q2 135 53 256t139 210t208 141.5t261 52.5q131 0 251 -49.5t210 -135.5t144.5 -203.5t54.5 -255.5v-690q0 -61 -22.5 -114.5t-62.5 -93.5t-93.5 -63.5t-114.5 -25.5q-61 0 -115.5 21.5t-96.5 60.5t-65.5 92.5t-23.5 116.5v76h-129v-70q0 -59 -24.5 -113.5 t-65.5 -95.5t-95.5 -64.5t-113.5 -23.5t-113.5 22.5t-95.5 61.5t-65.5 92.5t-24.5 114.5zM245.5 1609.5q7.5 57.5 37.5 108t77 88t106 56.5l250 65q57 16 115.5 7t110 -37.5t88.5 -77t53 -111.5q18 -59 8 -118.5t-40 -108.5t-76 -86t-103 -51q-61 -18 -102 -29.5t-68 -19 t-45.5 -11.5t-32.5 -8q-59 -18 -118.5 -7t-110.5 42t-88 79t-51 105q-18 57 -10.5 114.5z" />
<glyph unicode="&#xc2;" d="M-100 133v680q2 135 53 256t139 210t208 141.5t261 52.5q131 0 251 -49.5t210 -135.5t144.5 -203.5t54.5 -255.5v-690q0 -61 -22.5 -114.5t-62.5 -93.5t-93.5 -63.5t-114.5 -25.5q-61 0 -115.5 21.5t-96.5 60.5t-65.5 92.5t-23.5 116.5v76h-129v-70q0 -59 -24.5 -113.5 t-65.5 -95.5t-95.5 -64.5t-113.5 -23.5t-113.5 22.5t-95.5 61.5t-65.5 92.5t-24.5 114.5zM-6 1516.5q4 56.5 29 110.5t70 97l245 246q45 45 99.5 67.5t111.5 22.5t110.5 -21.5t100.5 -62.5l271 -249q45 -45 70.5 -99.5t30.5 -112t-14.5 -113.5t-66.5 -104q-43 -43 -97 -65.5 t-109.5 -23.5t-111 19.5t-100.5 63.5v-2q-20 18 -38.5 36t-36.5 34l-62 -62q-43 -45 -98.5 -66.5t-113.5 -21.5t-113.5 24t-98.5 69q-43 47 -62.5 102t-15.5 111.5z" />
<glyph unicode="&#xc3;" d="M-100 133v680q2 135 53 256t139 210t208 141.5t261 52.5q131 0 251 -49.5t210 -135.5t144.5 -203.5t54.5 -255.5v-690q0 -61 -22.5 -114.5t-62.5 -93.5t-93.5 -63.5t-114.5 -25.5q-61 0 -115.5 21.5t-96.5 60.5t-65.5 92.5t-23.5 116.5v76h-129v-70q0 -59 -24.5 -113.5 t-65.5 -95.5t-95.5 -64.5t-113.5 -23.5t-113.5 22.5t-95.5 61.5t-65.5 92.5t-24.5 114.5zM-65 1570q0 41 10 81t35 83q68 117 175 179.5t234 62.5q72 0 143.5 -19.5t123.5 -48.5l38 -20q84 78 195 78q35 0 71 -8.5t74 -30.5q72 -41 113 -107.5t41 -152.5q0 -80 -47 -164 q-104 -180 -299 -229q-55 -14 -109 -15q-78 0 -147.5 18.5t-122.5 53.5l-33 16q-82 -76 -198 -76q-35 0 -71 8.5t-75 30.5q-72 43 -111.5 108.5t-39.5 151.5z" />
<glyph unicode="&#xc4;" d="M-100 133v680q2 135 53 256t139 210t208 141.5t261 52.5q131 0 251 -49.5t210 -135.5t144.5 -203.5t54.5 -255.5v-690q0 -61 -22.5 -114.5t-62.5 -93.5t-93.5 -63.5t-114.5 -25.5q-61 0 -115.5 21.5t-96.5 60.5t-65.5 92.5t-23.5 116.5v76h-129v-70q0 -59 -24.5 -113.5 t-65.5 -95.5t-95.5 -64.5t-113.5 -23.5t-113.5 22.5t-95.5 61.5t-65.5 92.5t-24.5 114.5zM64 1607q0 61 23.5 116.5t64.5 97.5t96 65.5t117 23.5q63 0 119.5 -23.5t97.5 -65.5t64.5 -97.5t23.5 -116.5t-23.5 -116.5t-64.5 -97.5t-97.5 -65.5t-119.5 -23.5q-61 0 -116.5 23.5 t-96.5 65.5t-64.5 97.5t-23.5 116.5zM459 1607q0 61 23.5 116.5t64.5 97.5t96.5 65.5t116.5 23.5q63 0 119.5 -23.5t97.5 -65.5t64.5 -97.5t23.5 -116.5t-23.5 -116.5t-64.5 -97.5t-97.5 -65.5t-119.5 -23.5q-61 0 -116.5 23.5t-96.5 65.5t-64.5 97.5t-23.5 116.5z" />
<glyph unicode="&#xc5;" d="M-100 133v680q2 135 53 256t139 210t208 141.5t261 52.5q131 0 251 -49.5t210 -135.5t144.5 -203.5t54.5 -255.5v-690q0 -61 -22.5 -114.5t-62.5 -93.5t-93.5 -63.5t-114.5 -25.5q-61 0 -115.5 21.5t-96.5 60.5t-65.5 92.5t-23.5 116.5v76h-129v-70q0 -59 -24.5 -113.5 t-65.5 -95.5t-95.5 -64.5t-113.5 -23.5t-113.5 22.5t-95.5 61.5t-65.5 92.5t-24.5 114.5z" />
<glyph unicode="&#xc6;" horiz-adv-x="1665" d="M-98 131v680q2 135 53 256t139 210t208 141.5t261 52.5q131 0 251 -49.5t210 -135.5t144.5 -203.5t54.5 -255.5v-690q0 -61 -22.5 -114.5t-62.5 -93.5t-93.5 -63.5t-114.5 -25.5q-61 0 -115.5 21.5t-96.5 60.5t-65.5 92.5t-23.5 116.5v76h-129v-70q0 -59 -24.5 -113.5 t-65.5 -95.5t-95.5 -64.5t-113.5 -23.5t-113.5 22.5t-95.5 61.5t-65.5 92.5t-24.5 114.5zM631 139v1030q0 57 22.5 112.5t62.5 97.5t95 68t121 26h586q61 0 116.5 -24t96.5 -66t64.5 -97t23.5 -117q0 -115 -65.5 -192.5t-166.5 -99.5q43 -41 68.5 -98t25.5 -120 q0 -68 -27.5 -126t-74.5 -99q51 -12 94 -39.5t76 -66.5t51.5 -87t18.5 -102q0 -66 -23.5 -121t-64.5 -95t-96.5 -63.5t-116.5 -23.5h-586q-59 0 -113.5 23.5t-95.5 63.5t-66.5 95.5t-25.5 120.5z" />
<glyph unicode="&#xc7;" horiz-adv-x="1038" d="M-109 479v334q0 135 49.5 256t138.5 210t210 141.5t266 52.5q92 0 200.5 -32t202 -92.5t156 -149.5t62.5 -202q0 -61 -24 -116.5t-66 -97.5t-97 -65.5t-117 -23.5q-102 0 -161.5 45t-102.5 113q-6 14 -22.5 20.5t-32.5 6.5q-29 0 -47.5 -16.5t-18.5 -39.5v-334 q-2 -25 19.5 -42t50.5 -17q37 0 53 27q20 33 42 61.5t51.5 49t70.5 31.5t100 11q61 0 115.5 -23.5t95.5 -63.5t66 -96t25 -120q0 -106 -57.5 -192t-146.5 -147.5t-194.5 -96.5t-204.5 -35h-18q-133 0 -254 49t-212 135t-144.5 204t-53.5 255zM221 -279q4 53 25.5 95t56.5 71 v195q0 35 17.5 73.5t48 72.5t72.5 55.5t93 21.5t94.5 -21.5t74 -55.5t48 -73t17.5 -73v-44q39 -20 67.5 -47.5t55.5 -58.5q35 -47 54 -104.5t19 -118.5q0 -78 -29.5 -144.5t-79.5 -118t-117.5 -80t-143.5 -28.5q-84 0 -152.5 32t-118 86t-76 122.5t-26.5 142.5z" />
<glyph unicode="&#xc8;" horiz-adv-x="942" d="M-92 139v1030q0 57 22.5 112.5t62.5 97.5t95 68t121 26h586q61 0 116.5 -24t96.5 -66t64.5 -97t23.5 -117q0 -115 -65.5 -192.5t-166.5 -99.5q43 -41 68.5 -98t25.5 -120q0 -68 -27.5 -126t-74.5 -99q51 -12 94 -39.5t76 -66.5t51.5 -87t18.5 -102q0 -66 -23.5 -121 t-64.5 -95t-96.5 -63.5t-116.5 -23.5h-586q-59 0 -113.5 23.5t-95.5 63.5t-66.5 95.5t-25.5 120.5zM-56 1594.5q-9 58.5 9 113.5q16 59 55 108.5t89 81t108.5 41t113.5 -11.5h-2q68 -16 129.5 -32.5t120.5 -32.5q57 -20 104 -58.5t78 -87.5t40 -106t-9 -115v2 q-16 -61 -55 -110.5t-90.5 -80t-110.5 -39.5t-117 9q-59 16 -120.5 33.5t-121.5 34.5q-59 14 -107 53t-76.5 89t-37.5 108.5z" />
<glyph unicode="&#xc9;" horiz-adv-x="942" d="M-92 139v1030q0 57 22.5 112.5t62.5 97.5t95 68t121 26h586q61 0 116.5 -24t96.5 -66t64.5 -97t23.5 -117q0 -115 -65.5 -192.5t-166.5 -99.5q43 -41 68.5 -98t25.5 -120q0 -68 -27.5 -126t-74.5 -99q51 -12 94 -39.5t76 -66.5t51.5 -87t18.5 -102q0 -66 -23.5 -121 t-64.5 -95t-96.5 -63.5t-116.5 -23.5h-586q-59 0 -113.5 23.5t-95.5 63.5t-66.5 95.5t-25.5 120.5zM217.5 1607.5q7.5 57.5 37.5 108t77 88t106 56.5l250 65q57 16 115.5 7t110 -37.5t88.5 -77t53 -111.5q18 -59 8 -118.5t-40 -108.5t-76 -86t-103 -51q-61 -18 -102 -29.5 t-68 -19t-45.5 -11.5t-32.5 -8q-59 -18 -118.5 -7t-110.5 42t-88 79t-51 105q-18 57 -10.5 114.5z" />
<glyph unicode="&#xca;" horiz-adv-x="942" d="M-101 1516.5q4 56.5 29 110.5t70 97l245 246q45 45 99.5 67.5t111.5 22.5t110.5 -21.5t100.5 -62.5l271 -249q45 -45 70.5 -99.5t30.5 -112t-14.5 -113.5t-66.5 -104q-43 -43 -97 -65.5t-109.5 -23.5t-111 19.5t-100.5 63.5v-2q-20 18 -38.5 36t-36.5 34l-62 -62 q-43 -45 -98.5 -66.5t-113.5 -21.5t-113.5 24t-98.5 69q-43 47 -62.5 102t-15.5 111.5zM-92 139v1030q0 57 22.5 112.5t62.5 97.5t95 68t121 26h586q61 0 116.5 -24t96.5 -66t64.5 -97t23.5 -117q0 -115 -65.5 -192.5t-166.5 -99.5q43 -41 68.5 -98t25.5 -120 q0 -68 -27.5 -126t-74.5 -99q51 -12 94 -39.5t76 -66.5t51.5 -87t18.5 -102q0 -66 -23.5 -121t-64.5 -95t-96.5 -63.5t-116.5 -23.5h-586q-59 0 -113.5 23.5t-95.5 63.5t-66.5 95.5t-25.5 120.5z" />
<glyph unicode="&#xcb;" horiz-adv-x="942" d="M-92 139v1030q0 57 22.5 112.5t62.5 97.5t95 68t121 26h586q61 0 116.5 -24t96.5 -66t64.5 -97t23.5 -117q0 -115 -65.5 -192.5t-166.5 -99.5q43 -41 68.5 -98t25.5 -120q0 -68 -27.5 -126t-74.5 -99q51 -12 94 -39.5t76 -66.5t51.5 -87t18.5 -102q0 -66 -23.5 -121 t-64.5 -95t-96.5 -63.5t-116.5 -23.5h-586q-59 0 -113.5 23.5t-95.5 63.5t-66.5 95.5t-25.5 120.5zM4 1612q0 61 23.5 116.5t64.5 97.5t96 65.5t117 23.5q63 0 119.5 -23.5t97.5 -65.5t64.5 -97.5t23.5 -116.5t-23.5 -116.5t-64.5 -97.5t-97.5 -65.5t-119.5 -23.5 q-61 0 -116.5 23.5t-96.5 65.5t-64.5 97.5t-23.5 116.5zM399 1612q0 61 23.5 116.5t64.5 97.5t96.5 65.5t116.5 23.5q63 0 119.5 -23.5t97.5 -65.5t64.5 -97.5t23.5 -116.5t-23.5 -116.5t-64.5 -97.5t-97.5 -65.5t-119.5 -23.5q-61 0 -116.5 23.5t-96.5 65.5t-64.5 97.5 t-23.5 116.5z" />
<glyph unicode="&#xcc;" horiz-adv-x="542" d="M-209 1590.5q-9 58.5 9 113.5q16 59 55 108.5t89 81t108.5 41t113.5 -11.5h-2q68 -16 129.5 -32.5t120.5 -32.5q57 -20 104 -58.5t78 -87.5t40 -106t-9 -115v2q-16 -61 -55 -110.5t-90.5 -80t-110.5 -39.5t-117 9q-59 16 -120.5 33.5t-121.5 34.5q-59 14 -107 53 t-76.5 89t-37.5 108.5zM-12 137v1032q0 61 23.5 115.5t63.5 95.5t95 65.5t121 24.5q61 0 115.5 -24.5t95.5 -65.5t64.5 -95t23.5 -116v-1032q0 -61 -23.5 -116.5t-64.5 -96.5t-95.5 -64.5t-115.5 -23.5q-66 0 -121 23.5t-95 64.5t-63.5 96.5t-23.5 116.5z" />
<glyph unicode="&#xcd;" horiz-adv-x="542" d="M-53.5 1605.5q7.5 57.5 37.5 108t77 88t106 56.5l250 65q57 16 115.5 7t110 -37.5t88.5 -77t53 -111.5q18 -59 8 -118.5t-40 -108.5t-76 -86t-103 -51q-61 -18 -102 -29.5t-68 -19t-45.5 -11.5t-32.5 -8q-59 -18 -118.5 -7t-110.5 42t-88 79t-51 105q-18 57 -10.5 114.5z M-8 137v1032q0 61 23.5 115.5t63.5 95.5t95 65.5t121 24.5q61 0 115.5 -24.5t95.5 -65.5t64.5 -95t23.5 -116v-1032q0 -61 -23.5 -116.5t-64.5 -96.5t-95.5 -64.5t-115.5 -23.5q-66 0 -121 23.5t-95 64.5t-63.5 96.5t-23.5 116.5z" />
<glyph unicode="&#xce;" horiz-adv-x="706" d="M-193 1516.5q4 56.5 29 110.5t70 97l245 246q45 45 99.5 67.5t111.5 22.5t110.5 -21.5t100.5 -62.5l271 -249q45 -45 70.5 -99.5t30.5 -112t-14.5 -113.5t-66.5 -104q-43 -43 -97 -65.5t-109.5 -23.5t-111 19.5t-100.5 63.5v-2q-20 18 -38.5 36t-36.5 34l-62 -62 q-43 -45 -98.5 -66.5t-113.5 -21.5t-113.5 24t-98.5 69q-43 47 -62.5 102t-15.5 111.5zM72 137v1032q0 61 23.5 115.5t63.5 95.5t95 65.5t121 24.5q61 0 115.5 -24.5t95.5 -65.5t64.5 -95t23.5 -116v-1032q0 -61 -23.5 -116.5t-64.5 -96.5t-95.5 -64.5t-115.5 -23.5 q-66 0 -121 23.5t-95 64.5t-63.5 96.5t-23.5 116.5z" />
<glyph unicode="&#xcf;" horiz-adv-x="755" d="M-100 1609q0 61 23.5 116.5t64.5 97.5t96 65.5t117 23.5q63 0 119.5 -23.5t97.5 -65.5t64.5 -97.5t23.5 -116.5t-23.5 -116.5t-64.5 -97.5t-97.5 -65.5t-119.5 -23.5q-61 0 -116.5 23.5t-96.5 65.5t-64.5 97.5t-23.5 116.5zM96 137v1032q0 61 23.5 115.5t63.5 95.5 t95 65.5t121 24.5q61 0 115.5 -24.5t95.5 -65.5t64.5 -95t23.5 -116v-1032q0 -61 -23.5 -116.5t-64.5 -96.5t-95.5 -64.5t-115.5 -23.5q-66 0 -121 23.5t-95 64.5t-63.5 96.5t-23.5 116.5zM295 1609q0 61 23.5 116.5t64.5 97.5t96.5 65.5t116.5 23.5q63 0 119.5 -23.5 t97.5 -65.5t64.5 -97.5t23.5 -116.5t-23.5 -116.5t-64.5 -97.5t-97.5 -65.5t-119.5 -23.5q-61 0 -116.5 23.5t-96.5 65.5t-64.5 97.5t-23.5 116.5z" />
<glyph unicode="&#xd0;" horiz-adv-x="1204" d="M-119 616q0 178 144 261v292q0 57 23.5 112.5t63.5 97.5t95 68t121 26h350q123 0 236.5 -49.5t200.5 -133.5t140.5 -199.5t53.5 -246.5v-379q0 -125 -51.5 -238.5t-137.5 -200.5t-200.5 -138.5t-241.5 -51.5h-350q-57 0 -110.5 23.5t-95.5 64.5t-67.5 95.5t-29.5 115.5 l-2 221q-63 41 -102.5 111t-39.5 149z" />
<glyph unicode="&#xd1;" d="M-100 127v680q2 135 53 256t139 210t208 141t261 52q131 0 251 -49t210 -135t144.5 -203.5t54.5 -255.5v-690q0 -61 -22.5 -114.5t-62.5 -93.5t-93.5 -63.5t-114.5 -25.5q-61 0 -115.5 21.5t-96.5 60.5t-65.5 92t-23.5 117v680q0 27 -19.5 46t-48.5 19q-25 0 -43 -16 t-18 -39v-684q0 -59 -24.5 -113.5t-65.5 -95.5t-95.5 -64.5t-113.5 -23.5t-113.5 22.5t-95.5 61.5t-65.5 92.5t-24.5 114.5zM-69 1568q0 41 10 81t35 83q68 117 175 179.5t234 62.5q72 0 143.5 -19.5t123.5 -48.5l38 -20q84 78 195 78q35 0 71 -8.5t74 -30.5 q72 -41 113 -107.5t41 -152.5q0 -80 -47 -164q-104 -180 -299 -229q-55 -14 -109 -15q-78 0 -147.5 18.5t-122.5 53.5l-33 16q-82 -76 -198 -76q-35 0 -71 8.5t-75 30.5q-72 43 -111.5 108.5t-39.5 151.5z" />
<glyph unicode="&#xd2;" horiz-adv-x="1105" d="M-109 479v334q0 135 49.5 256t138.5 210t210 141.5t266 52.5q131 0 251 -49.5t210 -135.5t144 -203.5t54 -255.5v-333q0 -135 -50 -256t-139 -210t-209 -141.5t-261 -52.5q-133 0 -254 49t-212 135t-144.5 204t-53.5 255zM90 1590.5q-9 58.5 9 113.5q16 59 55 108.5 t89 81t108.5 41t113.5 -11.5h-2q68 -16 129.5 -32.5t120.5 -32.5q57 -20 104 -58.5t78 -87.5t40 -106t-9 -115v2q-16 -61 -55 -110.5t-90.5 -80t-110.5 -39.5t-117 9q-59 16 -120.5 33.5t-121.5 34.5q-59 14 -107 53t-76.5 89t-37.5 108.5z" />
<glyph unicode="&#xd3;" horiz-adv-x="1105" d="M-109 479v334q0 135 49.5 256t138.5 210t210 141.5t266 52.5q131 0 251 -49.5t210 -135.5t144 -203.5t54 -255.5v-333q0 -135 -50 -256t-139 -210t-209 -141.5t-261 -52.5q-133 0 -254 49t-212 135t-144.5 204t-53.5 255zM180.5 1603.5q7.5 57.5 37.5 108t77 88t106 56.5 l250 65q57 16 115.5 7t110 -37.5t88.5 -77t53 -111.5q18 -59 8 -118.5t-40 -108.5t-76 -86t-103 -51q-61 -18 -102 -29.5t-68 -19t-45.5 -11.5t-32.5 -8q-59 -18 -118.5 -7t-110.5 42t-88 79t-51 105q-18 57 -10.5 114.5z" />
<glyph unicode="&#xd4;" horiz-adv-x="1105" d="M-109 479v334q0 135 49.5 256t138.5 210t210 141.5t266 52.5q131 0 251 -49.5t210 -135.5t144 -203.5t54 -255.5v-333q0 -135 -50 -256t-139 -210t-209 -141.5t-261 -52.5q-133 0 -254 49t-212 135t-144.5 204t-53.5 255zM-11 1516.5q4 56.5 29 110.5t70 97l245 246 q45 45 99.5 67.5t111.5 22.5t110.5 -21.5t100.5 -62.5l271 -249q45 -45 70.5 -99.5t30.5 -112t-14.5 -113.5t-66.5 -104q-43 -43 -97 -65.5t-109.5 -23.5t-111 19.5t-100.5 63.5v-2q-20 18 -38.5 36t-36.5 34l-62 -62q-43 -45 -98.5 -66.5t-113.5 -21.5t-113.5 24t-98.5 69 q-43 47 -62.5 102t-15.5 111.5z" />
<glyph unicode="&#xd5;" horiz-adv-x="1105" d="M-109 479v334q0 135 49.5 256t138.5 210t210 141.5t266 52.5q131 0 251 -49.5t210 -135.5t144 -203.5t54 -255.5v-333q0 -135 -50 -256t-139 -210t-209 -141.5t-261 -52.5q-133 0 -254 49t-212 135t-144.5 204t-53.5 255zM-73 1560q0 41 10 81t35 83q68 117 175 179.5 t234 62.5q72 0 143.5 -19.5t123.5 -48.5l38 -20q84 78 195 78q35 0 71 -8.5t74 -30.5q72 -41 113 -107.5t41 -152.5q0 -80 -47 -164q-104 -180 -299 -229q-55 -14 -109 -15q-78 0 -147.5 18.5t-122.5 53.5l-33 16q-82 -76 -198 -76q-35 0 -71 8.5t-75 30.5 q-72 43 -111.5 108.5t-39.5 151.5z" />
<glyph unicode="&#xd6;" horiz-adv-x="1105" d="M-109 479v334q0 135 49.5 256t138.5 210t210 141.5t266 52.5q131 0 251 -49.5t210 -135.5t144 -203.5t54 -255.5v-333q0 -135 -50 -256t-139 -210t-209 -141.5t-261 -52.5q-133 0 -254 49t-212 135t-144.5 204t-53.5 255zM52 1612q0 61 23.5 116.5t64.5 97.5t96 65.5 t117 23.5q63 0 119.5 -23.5t97.5 -65.5t64.5 -97.5t23.5 -116.5t-23.5 -116.5t-64.5 -97.5t-97.5 -65.5t-119.5 -23.5q-61 0 -116.5 23.5t-96.5 65.5t-64.5 97.5t-23.5 116.5zM447 1612q0 61 23.5 116.5t64.5 97.5t96.5 65.5t116.5 23.5q63 0 119.5 -23.5t97.5 -65.5 t64.5 -97.5t23.5 -116.5t-23.5 -116.5t-64.5 -97.5t-97.5 -65.5t-119.5 -23.5q-61 0 -116.5 23.5t-96.5 65.5t-64.5 97.5t-23.5 116.5z" />
<glyph unicode="&#xd7;" horiz-adv-x="1038" d="M-96 813q2 53 22.5 106.5t59.5 98.5q98 98 210.5 96t211.5 -88l110 -113l119 113q45 43 97 64.5t106.5 21.5t107.5 -21.5t101 -64.5q43 -43 65.5 -97.5t22.5 -110.5t-20.5 -110.5t-63.5 -99.5l-113 -112l111 -113q43 -43 65.5 -97.5t22.5 -110.5t-21.5 -111.5 t-66.5 -100.5t-98.5 -65.5t-110 -19.5t-111.5 24.5t-100 66.5q-31 29 -53.5 52.5t-55.5 54.5l-119 -121q-45 -37 -98 -57.5t-108.5 -20.5t-108.5 21.5t-96 64.5t-64.5 96.5t-22.5 108.5t18.5 109.5t60.5 99.5l120 119l-116 116q-45 43 -65.5 95.5t-18.5 105.5z" />
<glyph unicode="&#xd8;" horiz-adv-x="1105" d="M-109 479v334q0 135 49.5 256t138.5 210t210 141.5t266 52.5q131 0 251 -49.5t210 -135.5t144 -203.5t54 -255.5v-333q0 -135 -50 -256t-139 -210t-209 -141.5t-261 -52.5q-133 0 -254 49t-212 135t-144.5 204t-53.5 255zM91.5 62.5q-20.5 74.5 6.5 164.5l330 1035 q31 94 94.5 141t136 57t146 -14.5t127 -75.5t76 -126t-4.5 -163l-327 -1036q-41 -94 -106.5 -141t-139.5 -57.5t-144.5 14t-122 76t-72 126z" />
<glyph unicode="&#xd9;" d="M-100 500v682q0 61 24.5 114.5t65.5 92t95 61.5t114 23q59 0 113.5 -24t95.5 -65t65.5 -95t24.5 -113v-684q0 -23 18.5 -39.5t42.5 -16.5q29 0 48.5 19.5t19.5 46.5v680q0 63 23.5 116.5t65.5 92.5t96 60.5t116 21.5q61 -2 114.5 -26t93.5 -64t62.5 -93t22.5 -114v-691 q0 -137 -54.5 -254.5t-144.5 -203.5t-210 -135.5t-251 -49.5q-141 0 -261 52.5t-208 141.5t-139 209t-53 255zM100 1594.5q-9 58.5 9 113.5q16 59 55 108.5t89 81t108.5 41t113.5 -11.5h-2q68 -16 129.5 -32.5t120.5 -32.5q57 -20 104 -58.5t78 -87.5t40 -106t-9 -115v2 q-16 -61 -55 -110.5t-90.5 -80t-110.5 -39.5t-117 9q-59 16 -120.5 33.5t-121.5 34.5q-59 14 -107 53t-76.5 89t-37.5 108.5z" />
<glyph unicode="&#xda;" d="M-100 500v682q0 61 24.5 114.5t65.5 92t95 61.5t114 23q59 0 113.5 -24t95.5 -65t65.5 -95t24.5 -113v-684q0 -23 18.5 -39.5t42.5 -16.5q29 0 48.5 19.5t19.5 46.5v680q0 63 23.5 116.5t65.5 92.5t96 60.5t116 21.5q61 -2 114.5 -26t93.5 -64t62.5 -93t22.5 -114v-691 q0 -137 -54.5 -254.5t-144.5 -203.5t-210 -135.5t-251 -49.5q-141 0 -261 52.5t-208 141.5t-139 209t-53 255zM178.5 1607.5q7.5 57.5 37.5 108t77 88t106 56.5l250 65q57 16 115.5 7t110 -37.5t88.5 -77t53 -111.5q18 -59 8 -118.5t-40 -108.5t-76 -86t-103 -51 q-61 -18 -102 -29.5t-68 -19t-45.5 -11.5t-32.5 -8q-59 -18 -118.5 -7t-110.5 42t-88 79t-51 105q-18 57 -10.5 114.5z" />
<glyph unicode="&#xdb;" d="M-100 500v682q0 61 24.5 114.5t65.5 92t95 61.5t114 23q59 0 113.5 -24t95.5 -65t65.5 -95t24.5 -113v-684q0 -23 18.5 -39.5t42.5 -16.5q29 0 48.5 19.5t19.5 46.5v680q0 63 23.5 116.5t65.5 92.5t96 60.5t116 21.5q61 -2 114.5 -26t93.5 -64t62.5 -93t22.5 -114v-691 q0 -137 -54.5 -254.5t-144.5 -203.5t-210 -135.5t-251 -49.5q-141 0 -261 52.5t-208 141.5t-139 209t-53 255zM0 1516.5q4 56.5 29 110.5t70 97l245 246q45 45 99.5 67.5t111.5 22.5t110.5 -21.5t100.5 -62.5l271 -249q45 -45 70.5 -99.5t30.5 -112t-14.5 -113.5t-66.5 -104 q-43 -43 -97 -65.5t-109.5 -23.5t-111 19.5t-100.5 63.5v-2q-20 18 -38.5 36t-36.5 34l-62 -62q-43 -45 -98.5 -66.5t-113.5 -21.5t-113.5 24t-98.5 69q-43 47 -62.5 102t-15.5 111.5z" />
<glyph unicode="&#xdc;" d="M-100 500v682q0 61 24.5 114.5t65.5 92t95 61.5t114 23q59 0 113.5 -24t95.5 -65t65.5 -95t24.5 -113v-684q0 -23 18.5 -39.5t42.5 -16.5q29 0 48.5 19.5t19.5 46.5v680q0 63 23.5 116.5t65.5 92.5t96 60.5t116 21.5q61 -2 114.5 -26t93.5 -64t62.5 -93t22.5 -114v-691 q0 -137 -54.5 -254.5t-144.5 -203.5t-210 -135.5t-251 -49.5q-141 0 -261 52.5t-208 141.5t-139 209t-53 255zM60 1609q0 61 23.5 116.5t64.5 97.5t96 65.5t117 23.5q63 0 119.5 -23.5t97.5 -65.5t64.5 -97.5t23.5 -116.5t-23.5 -116.5t-64.5 -97.5t-97.5 -65.5 t-119.5 -23.5q-61 0 -116.5 23.5t-96.5 65.5t-64.5 97.5t-23.5 116.5zM455 1609q0 61 23.5 116.5t64.5 97.5t96.5 65.5t116.5 23.5q63 0 119.5 -23.5t97.5 -65.5t64.5 -97.5t23.5 -116.5t-23.5 -116.5t-64.5 -97.5t-97.5 -65.5t-119.5 -23.5q-61 0 -116.5 23.5t-96.5 65.5 t-64.5 97.5t-23.5 116.5z" />
<glyph unicode="&#xdd;" horiz-adv-x="1083" d="M-127 989v182q0 61 23.5 116.5t64.5 96.5t95.5 65t115.5 24q63 0 119.5 -24t96.5 -65t63.5 -96t23.5 -117v-182q0 -33 33 -33q35 0 35 33v182q0 61 23.5 116.5t64.5 96.5t95 65t116 24q63 0 119.5 -24t96.5 -65t63.5 -96t23.5 -117v-186q0 -90 -25.5 -174t-69.5 -155.5 t-106.5 -131t-138.5 -98.5v-289q0 -61 -23.5 -116.5t-64.5 -96.5t-95.5 -64.5t-115.5 -23.5q-66 0 -121 23.5t-95 64.5t-63.5 96.5t-23.5 116.5v295q-154 80 -242 225.5t-88 331.5zM155.5 1605.5q7.5 57.5 37.5 108t77 88t106 56.5l250 65q57 16 115.5 7t110 -37.5t88.5 -77 t53 -111.5q18 -59 8 -118.5t-40 -108.5t-76 -86t-103 -51q-61 -18 -102 -29.5t-68 -19t-45.5 -11.5t-32.5 -8q-59 -18 -118.5 -7t-110.5 42t-88 79t-51 105q-18 57 -10.5 114.5z" />
<glyph unicode="&#xde;" d="M-92 -129v1294q0 63 24.5 119.5t65.5 98.5t97.5 67t119.5 25t117.5 -25t93.5 -67t61.5 -98t22.5 -120v-1294q0 -63 -22.5 -119.5t-61.5 -98.5t-93 -66.5t-118 -24.5q-63 0 -119.5 24.5t-97.5 66.5t-65.5 98t-24.5 120zM-92 496v686q0 55 26.5 107t68.5 93t95.5 66 t108.5 22q59 2 112.5 -23.5t94.5 -67.5t65.5 -96t24.5 -112v-18q16 2 31.5 2h31.5q125 0 246 -48t223 -142q98 -100 145.5 -212t47.5 -257q0 -135 -53.5 -256t-143.5 -210t-210 -141.5t-253 -52.5q-131 0 -250.5 53.5t-211 143.5t-145.5 209.5t-54 253.5z" />
<glyph unicode="&#xdf;" horiz-adv-x="995" d="M-100 139v705q4 131 55 246.5t136 199.5t199 133.5t247 49.5q119 0 222 -43.5t179 -119t120 -177t44 -218.5q0 -72 -17.5 -138t-46.5 -124q29 -59 46.5 -124.5t17.5 -133.5q0 -117 -43 -218t-119 -178t-178.5 -121t-218.5 -44q-47 0 -92 14.5t-80 38.5q-72 -51 -168 -51 q-66 0 -121 23.5t-95 65.5t-63.5 97.5t-23.5 116.5z" />
<glyph unicode="&#xe0;" d="M-113.5 448q-7.5 111 21.5 213.5t88 192.5t143 156.5t187.5 105.5t220.5 39q141 0 261 -55.5t208 -147.5t138 -210.5t52 -245.5v-363q0 -61 -25.5 -115.5t-66.5 -94.5t-95 -63.5t-110 -23.5q-82 0 -145 39q-53 -23 -107.5 -31t-109.5 -8q-102 0 -194.5 30t-170.5 82 t-139 124.5t-100 158.5q-49 106 -56.5 217zM80 1266.5q-9 58.5 9 113.5q16 59 55 108.5t89 81t108.5 41t113.5 -11.5h-2q68 -16 129.5 -32.5t120.5 -32.5q57 -20 104 -58.5t78 -87.5t40 -106t-9 -115v2q-16 -61 -55 -110.5t-90.5 -80t-110.5 -39.5t-117 9 q-59 16 -120.5 33.5t-121.5 34.5q-59 14 -107 53t-76.5 89t-37.5 108.5z" />
<glyph unicode="&#xe1;" d="M-113.5 448q-7.5 111 21.5 213.5t88 192.5t143 156.5t187.5 105.5t220.5 39q141 0 261 -55.5t208 -147.5t138 -210.5t52 -245.5v-363q0 -61 -25.5 -115.5t-66.5 -94.5t-95 -63.5t-110 -23.5q-82 0 -145 39q-53 -23 -107.5 -31t-109.5 -8q-102 0 -194.5 30t-170.5 82 t-139 124.5t-100 158.5q-49 106 -56.5 217zM159.5 1281.5q7.5 57.5 37.5 108t77 88t106 56.5l250 65q57 16 115.5 7t110 -37.5t88.5 -77t53 -111.5q18 -59 8 -118.5t-40 -108.5t-76 -86t-103 -51q-61 -18 -102 -29.5t-68 -19t-45.5 -11.5t-32.5 -8q-59 -18 -118.5 -7 t-110.5 42t-88 79t-51 105q-18 57 -10.5 114.5z" />
<glyph unicode="&#xe2;" d="M-113.5 448q-7.5 111 21.5 213.5t88 192.5t143 156.5t187.5 105.5t220.5 39q141 0 261 -55.5t208 -147.5t138 -210.5t52 -245.5v-363q0 -61 -25.5 -115.5t-66.5 -94.5t-95 -63.5t-110 -23.5q-82 0 -145 39q-53 -23 -107.5 -31t-109.5 -8q-102 0 -194.5 30t-170.5 82 t-139 124.5t-100 158.5q-49 106 -56.5 217zM-13 1199.5q4 56.5 29 110.5t70 97l245 246q45 45 99.5 67.5t111.5 22.5t110.5 -21.5t100.5 -62.5l271 -249q45 -45 70.5 -99.5t30.5 -112t-14.5 -113.5t-66.5 -104q-43 -43 -97 -65.5t-109.5 -23.5t-111 19.5t-100.5 63.5v-2 q-20 18 -38.5 36t-36.5 34l-62 -62q-43 -45 -98.5 -66.5t-113.5 -21.5t-113.5 24t-98.5 69q-43 47 -62.5 102t-15.5 111.5z" />
<glyph unicode="&#xe3;" d="M-113.5 448q-7.5 111 21.5 213.5t88 192.5t143 156.5t187.5 105.5t220.5 39q141 0 261 -55.5t208 -147.5t138 -210.5t52 -245.5v-363q0 -61 -25.5 -115.5t-66.5 -94.5t-95 -63.5t-110 -23.5q-82 0 -145 39q-53 -23 -107.5 -31t-109.5 -8q-102 0 -194.5 30t-170.5 82 t-139 124.5t-100 158.5q-49 106 -56.5 217zM-75 1247q0 41 10 81t35 83q68 117 175 179.5t234 62.5q72 0 143.5 -19.5t123.5 -48.5l38 -20q84 78 195 78q35 0 71 -8.5t74 -30.5q72 -41 113 -107.5t41 -152.5q0 -80 -47 -164q-104 -180 -299 -229q-55 -14 -109 -15 q-78 0 -147.5 18.5t-122.5 53.5l-33 16q-82 -76 -198 -76q-35 0 -71 8.5t-75 30.5q-72 43 -111.5 108.5t-39.5 151.5z" />
<glyph unicode="&#xe4;" d="M-113.5 448q-7.5 111 21.5 213.5t88 192.5t143 156.5t187.5 105.5t220.5 39q141 0 261 -55.5t208 -147.5t138 -210.5t52 -245.5v-363q0 -61 -25.5 -115.5t-66.5 -94.5t-95 -63.5t-110 -23.5q-82 0 -145 39q-53 -23 -107.5 -31t-109.5 -8q-102 0 -194.5 30t-170.5 82 t-139 124.5t-100 158.5q-49 106 -56.5 217zM47 1288q0 61 23.5 116.5t64.5 97.5t96 65.5t117 23.5q63 0 119.5 -23.5t97.5 -65.5t64.5 -97.5t23.5 -116.5t-23.5 -116.5t-64.5 -97.5t-97.5 -65.5t-119.5 -23.5q-61 0 -116.5 23.5t-96.5 65.5t-64.5 97.5t-23.5 116.5z M442 1288q0 61 23.5 116.5t64.5 97.5t96.5 65.5t116.5 23.5q63 0 119.5 -23.5t97.5 -65.5t64.5 -97.5t23.5 -116.5t-23.5 -116.5t-64.5 -97.5t-97.5 -65.5t-119.5 -23.5q-61 0 -116.5 23.5t-96.5 65.5t-64.5 97.5t-23.5 116.5z" />
<glyph unicode="&#xe5;" d="M-113.5 448q-7.5 111 21.5 213.5t88 192.5t143 156.5t187.5 105.5t220.5 39q141 0 261 -55.5t208 -147.5t138 -210.5t52 -245.5v-363q0 -61 -25.5 -115.5t-66.5 -94.5t-95 -63.5t-110 -23.5q-82 0 -145 39q-53 -23 -107.5 -31t-109.5 -8q-102 0 -194.5 30t-170.5 82 t-139 124.5t-100 158.5q-49 106 -56.5 217z" />
<glyph unicode="&#xe6;" horiz-adv-x="1777" d="M-136.5 448q-7.5 111 21.5 213.5t88 192.5t143 156.5t187.5 105.5t220.5 39q141 0 261 -55.5t208 -147.5t138 -210.5t52 -245.5v-363q0 -61 -25.5 -115.5t-66.5 -94.5t-95 -63.5t-110 -23.5q-82 0 -145 39q-53 -23 -107.5 -31t-109.5 -8q-102 0 -194.5 30t-170.5 82 t-139 124.5t-100 158.5q-49 106 -56.5 217zM587 496q0 129 53.5 247.5t143.5 209.5t210 146.5t253 55.5q131 0 250.5 -54t211 -146.5t145.5 -211t54 -247.5q0 -104 -54 -173t-146 -94q6 -31 6 -57q0 -92 -45 -155.5t-115 -103.5t-150.5 -58.5t-154.5 -18.5 q-133 -4 -253 49.5t-211 145.5t-144.5 211.5t-53.5 253.5z" />
<glyph unicode="&#xe7;" horiz-adv-x="962" d="M-117 496q0 131 53.5 250.5t143.5 210t211 144.5t254 54q84 0 179 -26.5t177 -77t135.5 -123t53.5 -164.5q0 -86 -49.5 -160t-125.5 -106q78 -37 126.5 -111t48.5 -158q0 -96 -56.5 -168.5t-139.5 -123t-177 -76t-172 -25.5q-135 0 -255 53.5t-211 143.5t-143.5 209.5 t-52.5 253.5zM213 -229q4 53 25.5 95t56.5 71v195q0 35 17.5 73.5t48 72.5t72.5 55.5t93 21.5t94.5 -21.5t74 -55.5t48 -73t17.5 -73v-44q39 -20 67.5 -47.5t55.5 -58.5q35 -47 54 -104.5t19 -118.5q0 -78 -29.5 -144.5t-79.5 -118t-117.5 -80t-143.5 -28.5q-84 0 -152.5 32 t-118 86t-76 122.5t-26.5 142.5z" />
<glyph unicode="&#xe8;" d="M-115 496q0 129 53.5 247.5t143.5 209.5t210 146.5t253 55.5q131 0 250.5 -54t211 -146.5t145.5 -211t54 -247.5q0 -104 -54 -173t-146 -94q6 -31 6 -57q0 -92 -45 -155.5t-115 -103.5t-150.5 -58.5t-154.5 -18.5q-133 -4 -253 49.5t-211 145.5t-144.5 211.5t-53.5 253.5 zM28 1266.5q-9 58.5 9 113.5q16 59 55 108.5t89 81t108.5 41t113.5 -11.5h-2q68 -16 129.5 -32.5t120.5 -32.5q57 -20 104 -58.5t78 -87.5t40 -106t-9 -115v2q-16 -61 -55 -110.5t-90.5 -80t-110.5 -39.5t-117 9q-59 16 -120.5 33.5t-121.5 34.5q-59 14 -107 53t-76.5 89 t-37.5 108.5z" />
<glyph unicode="&#xe9;" d="M-115 496q0 129 53.5 247.5t143.5 209.5t210 146.5t253 55.5q131 0 250.5 -54t211 -146.5t145.5 -211t54 -247.5q0 -104 -54 -173t-146 -94q6 -31 6 -57q0 -92 -45 -155.5t-115 -103.5t-150.5 -58.5t-154.5 -18.5q-133 -4 -253 49.5t-211 145.5t-144.5 211.5t-53.5 253.5 zM209.5 1281.5q7.5 57.5 37.5 108t77 88t106 56.5l250 65q57 16 115.5 7t110 -37.5t88.5 -77t53 -111.5q18 -59 8 -118.5t-40 -108.5t-76 -86t-103 -51q-61 -18 -102 -29.5t-68 -19t-45.5 -11.5t-32.5 -8q-59 -18 -118.5 -7t-110.5 42t-88 79t-51 105q-18 57 -10.5 114.5z " />
<glyph unicode="&#xea;" d="M-115 496q0 129 53.5 247.5t143.5 209.5t210 146.5t253 55.5q131 0 250.5 -54t211 -146.5t145.5 -211t54 -247.5q0 -104 -54 -173t-146 -94q6 -31 6 -57q0 -92 -45 -155.5t-115 -103.5t-150.5 -58.5t-154.5 -18.5q-133 -4 -253 49.5t-211 145.5t-144.5 211.5t-53.5 253.5 zM-31 1203.5q4 56.5 29 110.5t70 97l245 246q45 45 99.5 67.5t111.5 22.5t110.5 -21.5t100.5 -62.5l271 -249q45 -45 70.5 -99.5t30.5 -112t-14.5 -113.5t-66.5 -104q-43 -43 -97 -65.5t-109.5 -23.5t-111 19.5t-100.5 63.5v-2q-20 18 -38.5 36t-36.5 34l-62 -62 q-43 -45 -98.5 -66.5t-113.5 -21.5t-113.5 24t-98.5 69q-43 47 -62.5 102t-15.5 111.5z" />
<glyph unicode="&#xeb;" d="M-115 496q0 129 53.5 247.5t143.5 209.5t210 146.5t253 55.5q131 0 250.5 -54t211 -146.5t145.5 -211t54 -247.5q0 -104 -54 -173t-146 -94q6 -31 6 -57q0 -92 -45 -155.5t-115 -103.5t-150.5 -58.5t-154.5 -18.5q-133 -4 -253 49.5t-211 145.5t-144.5 211.5t-53.5 253.5 zM47 1286q0 61 23.5 116.5t64.5 97.5t96 65.5t117 23.5q63 0 119.5 -23.5t97.5 -65.5t64.5 -97.5t23.5 -116.5t-23.5 -116.5t-64.5 -97.5t-97.5 -65.5t-119.5 -23.5q-61 0 -116.5 23.5t-96.5 65.5t-64.5 97.5t-23.5 116.5zM442 1286q0 61 23.5 116.5t64.5 97.5t96.5 65.5 t116.5 23.5q63 0 119.5 -23.5t97.5 -65.5t64.5 -97.5t23.5 -116.5t-23.5 -116.5t-64.5 -97.5t-97.5 -65.5t-119.5 -23.5q-61 0 -116.5 23.5t-96.5 65.5t-64.5 97.5t-23.5 116.5z" />
<glyph unicode="&#xec;" horiz-adv-x="626" d="M-134 1266.5q-9 58.5 9 113.5q16 59 55 108.5t89.5 81.5t108.5 41t114 -12h-2q68 -16 129 -32.5t120 -32.5q57 -20 104.5 -58t78 -87.5t40 -106.5t-9.5 -115v2q-16 -61 -55 -110t-90 -80t-110.5 -40t-116.5 9q-59 16 -121 33.5t-121 34.5q-59 14 -107.5 53t-77 89 t-37.5 108.5zM111 137v715q0 61 23.5 115.5t63.5 95.5t95 65.5t121 24.5q61 0 115.5 -24.5t95.5 -65.5t64.5 -95.5t23.5 -115.5v-715q0 -61 -23.5 -116.5t-64.5 -96.5t-95.5 -64.5t-115.5 -23.5q-66 0 -121 23.5t-95 64.5t-63.5 96.5t-23.5 116.5z" />
<glyph unicode="&#xed;" horiz-adv-x="618" d="M-102 137v715q0 61 23.5 115.5t63.5 95.5t95 65.5t121 24.5q61 0 115.5 -24.5t95.5 -65.5t64.5 -95.5t23.5 -115.5v-715q0 -61 -23.5 -116.5t-64.5 -96.5t-95.5 -64.5t-115.5 -23.5q-66 0 -121 23.5t-95 64.5t-63.5 96.5t-23.5 116.5zM-92 1281.5q8 57.5 37.5 108 t77 88.5t106.5 56l250 65q57 16 115.5 7t109.5 -37.5t88 -77t53 -111.5q18 -59 8 -118.5t-39.5 -108.5t-75.5 -86t-103 -51q-61 -18 -102.5 -29.5t-68 -18.5t-45 -11.5t-32.5 -8.5q-59 -18 -118.5 -7t-111 42t-88.5 79t-51 105q-18 57 -10 114.5z" />
<glyph unicode="&#xee;" horiz-adv-x="868" d="M-131 1195q4 56 29.5 109.5t66.5 96.5l246 246q45 45 99.5 67.5t111.5 22.5t110.5 -21.5t100.5 -62.5l270 -250q43 -47 68.5 -102.5t30 -113t-14 -112.5t-63.5 -100q-47 -47 -101.5 -67.5t-111 -20.5t-109.5 21.5t-96 60.5v-2q-20 18 -38.5 35.5t-37.5 33.5l-61 -61 q-49 -43 -106.5 -64.5t-114 -20.5t-109.5 23.5t-94 65.5q-45 49 -62.5 104.5t-13.5 111.5zM131 106v777q6 59 30.5 109t63.5 86t90.5 56.5t108.5 22.5h6q61 0 112.5 -22.5t89.5 -60.5t61.5 -90t29.5 -110v-739q0 -127 -76 -207t-211 -90q-125 0 -207 69.5t-98 198.5z" />
<glyph unicode="&#xef;" horiz-adv-x="741" d="M-129 1286q0 61 23.5 116.5t64.5 97.5t96.5 65.5t116.5 23.5q63 0 119.5 -23.5t97.5 -65.5t64.5 -97.5t23.5 -116.5t-23.5 -116.5t-64.5 -97.5t-97 -65.5t-120 -23.5q-61 0 -116.5 23.5t-96.5 65.5t-64.5 97.5t-23.5 116.5zM72 100v777q6 59 30.5 109t63.5 86t90 56.5 t109 22.5h6q61 0 112.5 -22.5t89 -60.5t61 -90t30.5 -110v-739q0 -127 -76 -207t-211 -90q-125 0 -207 69.5t-98 198.5zM266 1286q0 61 23.5 116.5t64.5 97.5t96.5 65.5t116.5 23.5q63 0 119.5 -23.5t97.5 -65.5t64.5 -97.5t23.5 -116.5t-23.5 -116.5t-64.5 -97.5t-97 -65.5 t-120 -23.5q-61 0 -116.5 23.5t-96.5 65.5t-64.5 97.5t-23.5 116.5z" />
<glyph unicode="&#xf0;" horiz-adv-x="917" d="M-129 412q0 90 24.5 172t70.5 150.5t110.5 120.5t142.5 85q-113 84 -113 234q0 63 24 117.5t65 94t95 63.5t116 24h79q115 -6 210.5 -57.5t165 -129.5t111.5 -175t50 -193v-506q-4 -119 -50 -223.5t-125 -183.5t-181.5 -124t-219.5 -45q-119 0 -223 45t-183 124 t-124 183.5t-45 223.5z" />
<glyph unicode="&#xf1;" d="M-104 133v369q2 135 53 256t139 210t208 141t261 52q131 0 251 -49t210 -135t144.5 -204t54.5 -255v-379q0 -61 -23 -114.5t-62.5 -93.5t-93 -63.5t-114.5 -25.5q-61 0 -115.5 21.5t-96.5 60.5t-65.5 92.5t-23.5 116.5v369q0 27 -19.5 46t-48.5 19q-25 0 -43 -16t-18 -39 v-373q0 -59 -25 -113.5t-66 -95.5t-95 -64.5t-113 -23.5t-113.5 22.5t-95.5 61.5t-65.5 92.5t-24.5 114.5zM-67 1251q0 41 10 81t35 83q68 117 175 179.5t234 62.5q72 0 143.5 -19.5t123.5 -48.5l38 -20q84 78 195 78q35 0 71 -8.5t74 -30.5q72 -41 113 -107.5t41 -152.5 q0 -80 -47 -164q-104 -180 -299 -229q-55 -14 -109 -15q-78 0 -147.5 18.5t-122.5 53.5l-33 16q-82 -76 -198 -76q-35 0 -71 8.5t-75 30.5q-72 43 -111.5 108.5t-39.5 151.5z" />
<glyph unicode="&#xf2;" horiz-adv-x="1073" d="M-115 496q0 135 50.5 253.5t138.5 208t209 142.5t262 57q133 0 253 -52t210 -141.5t143 -210t53 -257.5q0 -135 -51 -255t-140 -209t-210 -141.5t-258 -52.5q-135 0 -256 49.5t-210 136.5t-141.5 207.5t-52.5 264.5zM82 1266.5q-9 58.5 9 113.5q16 59 55 108.5t89 81 t108.5 41t113.5 -11.5h-2q68 -16 129.5 -32.5t120.5 -32.5q57 -20 104 -58.5t78 -87.5t40 -106t-9 -115v2q-16 -61 -55 -110.5t-90.5 -80t-110.5 -39.5t-117 9q-59 16 -120.5 33.5t-121.5 34.5q-59 14 -107 53t-76.5 89t-37.5 108.5z" />
<glyph unicode="&#xf3;" horiz-adv-x="1073" d="M-115 496q0 135 50.5 253.5t138.5 208t209 142.5t262 57q133 0 253 -52t210 -141.5t143 -210t53 -257.5q0 -135 -51 -255t-140 -209t-210 -141.5t-258 -52.5q-135 0 -256 49.5t-210 136.5t-141.5 207.5t-52.5 264.5zM166.5 1287.5q7.5 57.5 37.5 108t77 88t106 56.5 l250 65q57 16 115.5 7t110 -37.5t88.5 -77t53 -111.5q18 -59 8 -118.5t-40 -108.5t-76 -86t-103 -51q-61 -18 -102 -29.5t-68 -19t-45.5 -11.5t-32.5 -8q-59 -18 -118.5 -7t-110.5 42t-88 79t-51 105q-18 57 -10.5 114.5z" />
<glyph unicode="&#xf4;" horiz-adv-x="1073" d="M-115 496q0 135 50.5 253.5t138.5 208t209 142.5t262 57q133 0 253 -52t210 -141.5t143 -210t53 -257.5q0 -135 -51 -255t-140 -209t-210 -141.5t-258 -52.5q-135 0 -256 49.5t-210 136.5t-141.5 207.5t-52.5 264.5zM-17 1196.5q4 56.5 29 110.5t70 97l245 246 q45 45 99.5 67.5t111.5 22.5t110.5 -21.5t100.5 -62.5l271 -249q45 -45 70.5 -99.5t30.5 -112t-14.5 -113.5t-66.5 -104q-43 -43 -97 -65.5t-109.5 -23.5t-111 19.5t-100.5 63.5v-2q-20 18 -38.5 36t-36.5 34l-62 -62q-43 -45 -98.5 -66.5t-113.5 -21.5t-113.5 24t-98.5 69 q-43 47 -62.5 102t-15.5 111.5z" />
<glyph unicode="&#xf5;" horiz-adv-x="1073" d="M-115 496q0 135 50.5 253.5t138.5 208t209 142.5t262 57q133 0 253 -52t210 -141.5t143 -210t53 -257.5q0 -135 -51 -255t-140 -209t-210 -141.5t-258 -52.5q-135 0 -256 49.5t-210 136.5t-141.5 207.5t-52.5 264.5zM-82 1247q0 41 10 81t35 83q68 117 175 179.5 t234 62.5q72 0 143.5 -19.5t123.5 -48.5l38 -20q84 78 195 78q35 0 71 -8.5t74 -30.5q72 -41 113 -107.5t41 -152.5q0 -80 -47 -164q-104 -180 -299 -229q-55 -14 -109 -15q-78 0 -147.5 18.5t-122.5 53.5l-33 16q-82 -76 -198 -76q-35 0 -71 8.5t-75 30.5 q-72 43 -111.5 108.5t-39.5 151.5z" />
<glyph unicode="&#xf6;" horiz-adv-x="1073" d="M-115 496q0 135 50.5 253.5t138.5 208t209 142.5t262 57q133 0 253 -52t210 -141.5t143 -210t53 -257.5q0 -135 -51 -255t-140 -209t-210 -141.5t-258 -52.5q-135 0 -256 49.5t-210 136.5t-141.5 207.5t-52.5 264.5zM47 1286q0 61 23.5 116.5t64.5 97.5t96 65.5t117 23.5 q63 0 119.5 -23.5t97.5 -65.5t64.5 -97.5t23.5 -116.5t-23.5 -116.5t-64.5 -97.5t-97.5 -65.5t-119.5 -23.5q-61 0 -116.5 23.5t-96.5 65.5t-64.5 97.5t-23.5 116.5zM442 1286q0 61 23.5 116.5t64.5 97.5t96.5 65.5t116.5 23.5q63 0 119.5 -23.5t97.5 -65.5t64.5 -97.5 t23.5 -116.5t-23.5 -116.5t-64.5 -97.5t-97.5 -65.5t-119.5 -23.5q-61 0 -116.5 23.5t-96.5 65.5t-64.5 97.5t-23.5 116.5z" />
<glyph unicode="&#xf7;" horiz-adv-x="837" d="M106 260q0 61 24 116.5t65 97.5t96 65.5t117 23.5q63 0 119.5 -23.5t97.5 -65.5t64.5 -97.5t23.5 -116.5t-23.5 -116.5t-64.5 -97.5t-97.5 -65.5t-119.5 -23.5q-61 0 -116.5 23.5t-96.5 65.5t-65 97.5t-24 116.5zM106 975q0 61 24 116.5t65 97.5t96 65.5t117 23.5 q63 0 119.5 -23.5t97.5 -65.5t64.5 -97.5t23.5 -116.5t-23.5 -116.5t-64.5 -97.5t-97.5 -65.5t-119.5 -23.5q-61 0 -116.5 23.5t-96.5 65.5t-65 97t-24 117zM164 592v49h514v-49h-514z" />
<glyph unicode="&#xf8;" horiz-adv-x="1073" d="M-115 496q0 135 50.5 253.5t138.5 208t209 142.5t262 57q133 0 253 -52t210 -141.5t143 -210t53 -257.5q0 -135 -51 -255t-140 -209t-210 -141.5t-258 -52.5q-135 0 -256 49.5t-210 136.5t-141.5 207.5t-52.5 264.5zM83.5 -99.5q-20.5 74.5 6.5 164.5l330 1035 q31 94 94.5 141t136 57t146 -14.5t127 -75.5t76 -126t-4.5 -163l-327 -1036q-41 -94 -106.5 -141t-139.5 -57.5t-144.5 14t-122 76t-72 126z" />
<glyph unicode="&#xf9;" horiz-adv-x="1077" d="M-104 481v377q0 59 22.5 113.5t61 94.5t92 64.5t114.5 26.5h7q59 0 113 -23.5t95 -64.5t66 -96t25 -117v-360q0 -27 19 -46.5t46 -19.5q25 0 44.5 15.5t19.5 39.5v373q0 55 22.5 108.5t62 95.5t93 67.5t114.5 27.5q61 0 115.5 -24.5t96.5 -65.5t67 -93t27 -108v-370 q0 -135 -52.5 -256t-141.5 -210t-210 -141.5t-258 -52.5q-131 -4 -251 47t-211 140.5t-145 207t-54 250.5zM92 1266.5q-9 58.5 9 113.5q16 59 55 108.5t89 81t108.5 41t113.5 -11.5h-2q68 -16 129.5 -32.5t120.5 -32.5q57 -20 104 -58.5t78 -87.5t40 -106t-9 -115v2 q-16 -61 -55 -110.5t-90.5 -80t-110.5 -39.5t-117 9q-59 16 -120.5 33.5t-121.5 34.5q-59 14 -107 53t-76.5 89t-37.5 108.5z" />
<glyph unicode="&#xfa;" horiz-adv-x="1077" d="M-104 481v377q0 59 22.5 113.5t61 94.5t92 64.5t114.5 26.5h7q59 0 113 -23.5t95 -64.5t66 -96t25 -117v-360q0 -27 19 -46.5t46 -19.5q25 0 44.5 15.5t19.5 39.5v373q0 55 22.5 108.5t62 95.5t93 67.5t114.5 27.5q61 0 115.5 -24.5t96.5 -65.5t67 -93t27 -108v-370 q0 -135 -52.5 -256t-141.5 -210t-210 -141.5t-258 -52.5q-131 -4 -251 47t-211 140.5t-145 207t-54 250.5zM174.5 1281.5q7.5 57.5 37.5 108t77 88t106 56.5l250 65q57 16 115.5 7t110 -37.5t88.5 -77t53 -111.5q18 -59 8 -118.5t-40 -108.5t-76 -86t-103 -51 q-61 -18 -102 -29.5t-68 -19t-45.5 -11.5t-32.5 -8q-59 -18 -118.5 -7t-110.5 42t-88 79t-51 105q-18 57 -10.5 114.5z" />
<glyph unicode="&#xfb;" horiz-adv-x="1077" d="M-104 481v377q0 59 22.5 113.5t61 94.5t92 64.5t114.5 26.5h7q59 0 113 -23.5t95 -64.5t66 -96t25 -117v-360q0 -27 19 -46.5t46 -19.5q25 0 44.5 15.5t19.5 39.5v373q0 55 22.5 108.5t62 95.5t93 67.5t114.5 27.5q61 0 115.5 -24.5t96.5 -65.5t67 -93t27 -108v-370 q0 -135 -52.5 -256t-141.5 -210t-210 -141.5t-258 -52.5q-131 -4 -251 47t-211 140.5t-145 207t-54 250.5zM-6 1196.5q4 56.5 29 110.5t70 97l245 246q45 45 99.5 67.5t111.5 22.5t110.5 -21.5t100.5 -62.5l271 -249q45 -45 70.5 -99.5t30.5 -112t-14.5 -113.5t-66.5 -104 q-43 -43 -97 -65.5t-109.5 -23.5t-111 19.5t-100.5 63.5v-2q-20 18 -38.5 36t-36.5 34l-62 -62q-43 -45 -98.5 -66.5t-113.5 -21.5t-113.5 24t-98.5 69q-43 47 -62.5 102t-15.5 111.5z" />
<glyph unicode="&#xfc;" horiz-adv-x="1077" d="M-104 481v377q0 59 22.5 113.5t61 94.5t92 64.5t114.5 26.5h7q59 0 113 -23.5t95 -64.5t66 -96t25 -117v-360q0 -27 19 -46.5t46 -19.5q25 0 44.5 15.5t19.5 39.5v373q0 55 22.5 108.5t62 95.5t93 67.5t114.5 27.5q61 0 115.5 -24.5t96.5 -65.5t67 -93t27 -108v-370 q0 -135 -52.5 -256t-141.5 -210t-210 -141.5t-258 -52.5q-131 -4 -251 47t-211 140.5t-145 207t-54 250.5zM60 1284q0 61 23.5 116.5t64.5 97.5t96 65.5t117 23.5q63 0 119.5 -23.5t97.5 -65.5t64.5 -97.5t23.5 -116.5t-23.5 -116.5t-64.5 -97.5t-97.5 -65.5t-119.5 -23.5 q-61 0 -116.5 23.5t-96.5 65.5t-64.5 97.5t-23.5 116.5zM455 1284q0 61 23.5 116.5t64.5 97.5t96.5 65.5t116.5 23.5q63 0 119.5 -23.5t97.5 -65.5t64.5 -97.5t23.5 -116.5t-23.5 -116.5t-64.5 -97.5t-97.5 -65.5t-119.5 -23.5q-61 0 -116.5 23.5t-96.5 65.5t-64.5 97.5 t-23.5 116.5z" />
<glyph unicode="&#xfd;" horiz-adv-x="1077" d="M-135 512v350q0 61 22.5 114.5t62.5 93.5t94.5 63.5t117.5 23.5q55 0 109.5 -21.5t96.5 -59.5t67.5 -91t25.5 -117v-370q0 -27 18.5 -45.5t46.5 -18.5q25 0 45.5 15.5t20.5 37.5v375q0 61 22.5 114.5t62.5 93.5t94 63.5t118 23.5q59 0 113.5 -22.5t95.5 -60.5t65.5 -91 t24.5 -115v-1052q0 -61 -24.5 -114.5t-65.5 -92.5t-95.5 -61.5t-113.5 -22.5q-55 0 -109.5 21.5t-95.5 60.5t-66.5 93t-25.5 122v18q-16 -2 -32.5 -2h-33.5q-133 0 -253.5 51.5t-211 141.5t-143.5 213t-53 268zM147.5 1281.5q7.5 57.5 37.5 108t77 88t106 56.5l250 65 q57 16 115.5 7t110 -37.5t88.5 -77t53 -111.5q18 -59 8 -118.5t-40 -108.5t-76 -86t-103 -51q-61 -18 -102 -29.5t-68 -19t-45.5 -11.5t-32.5 -8q-59 -18 -118.5 -7t-110.5 42t-88 79t-51 105q-18 57 -10.5 114.5z" />
<glyph unicode="&#xfe;" d="M-92 -129v1294q0 63 24.5 119.5t65.5 98.5t97.5 67t119.5 25t119.5 -25t98.5 -67t66.5 -98t24.5 -120v-1294q0 -63 -24.5 -119.5t-66.5 -98.5t-98 -66.5t-120 -24.5q-63 0 -119.5 24.5t-97.5 66.5t-65.5 98t-24.5 120zM-92 496v686q0 55 26.5 107t68.5 93t95.5 66 t108.5 22q59 2 112.5 -23.5t94.5 -67.5t65.5 -96t24.5 -112v-18q16 2 31.5 2h31.5q125 0 246 -48t223 -142q98 -100 145.5 -212t47.5 -257q0 -135 -53.5 -256t-143.5 -210t-210 -141.5t-253 -52.5q-131 0 -250.5 53.5t-211 143.5t-145.5 209.5t-54 253.5z" />
<glyph unicode="&#xff;" horiz-adv-x="1077" d="M-135 512v350q0 61 22.5 114.5t62.5 93.5t94.5 63.5t117.5 23.5q55 0 109.5 -21.5t96.5 -59.5t67.5 -91t25.5 -117v-370q0 -27 18.5 -45.5t46.5 -18.5q25 0 45.5 15.5t20.5 37.5v375q0 61 22.5 114.5t62.5 93.5t94 63.5t118 23.5q59 0 113.5 -22.5t95.5 -60.5t65.5 -91 t24.5 -115v-1052q0 -61 -24.5 -114.5t-65.5 -92.5t-95.5 -61.5t-113.5 -22.5q-55 0 -109.5 21.5t-95.5 60.5t-66.5 93t-25.5 122v18q-16 -2 -32.5 -2h-33.5q-133 0 -253.5 51.5t-211 141.5t-143.5 213t-53 268zM31 1284q0 61 23.5 116.5t64.5 97.5t96 65.5t117 23.5 q63 0 119.5 -23.5t97.5 -65.5t64.5 -97.5t23.5 -116.5t-23.5 -116.5t-64.5 -97.5t-97.5 -65.5t-119.5 -23.5q-61 0 -116.5 23.5t-96.5 65.5t-64.5 97.5t-23.5 116.5zM426 1284q0 61 23.5 116.5t64.5 97.5t96.5 65.5t116.5 23.5q63 0 119.5 -23.5t97.5 -65.5t64.5 -97.5 t23.5 -116.5t-23.5 -116.5t-64.5 -97.5t-97.5 -65.5t-119.5 -23.5q-61 0 -116.5 23.5t-96.5 65.5t-64.5 97.5t-23.5 116.5z" />
<glyph unicode="&#x152;" horiz-adv-x="2105" d="M96 479v334q0 135 49.5 256t138.5 210t210 141.5t266 52.5q131 0 251 -49.5t210 -135.5t144 -203.5t54 -255.5v-333q0 -135 -50 -256t-139 -210t-209 -141.5t-261 -52.5q-133 0 -254 49t-212 135t-144.5 204t-53.5 255zM830 139v1030q0 57 22.5 112.5t62.5 97.5t95 68 t121 26h586q61 0 116.5 -24t96.5 -66t64.5 -97t23.5 -117q0 -115 -65.5 -192.5t-166.5 -99.5q43 -41 68.5 -98t25.5 -120q0 -68 -27.5 -126t-74.5 -99q51 -12 94 -39.5t76 -66.5t51.5 -87t18.5 -102q0 -66 -23.5 -121t-64.5 -95t-96.5 -63.5t-116.5 -23.5h-586 q-59 0 -113.5 23.5t-95.5 63.5t-66.5 95.5t-25.5 120.5z" />
<glyph unicode="&#x153;" horiz-adv-x="1800" d="M-115 516q0 135 50.5 253.5t138.5 208t209 142.5t262 57q133 0 253 -52t210 -141.5t143 -210t53 -257.5q0 -135 -51 -255t-140 -209t-210 -141.5t-258 -52.5q-135 0 -256 49.5t-210 136.5t-141.5 207.5t-52.5 264.5zM610 496q0 129 53.5 247.5t143.5 209.5t210 146.5 t253 55.5q131 0 250.5 -54t211 -146.5t145.5 -211t54 -247.5q0 -104 -54 -173t-146 -94q6 -31 6 -57q0 -92 -45 -155.5t-115 -103.5t-150.5 -58.5t-154.5 -18.5q-133 -4 -253 49.5t-211 145.5t-144.5 211.5t-53.5 253.5z" />
<glyph unicode="&#x178;" horiz-adv-x="1083" d="M-127 989v182q0 61 23.5 116.5t64.5 96.5t95.5 65t115.5 24q63 0 119.5 -24t96.5 -65t63.5 -96t23.5 -117v-182q0 -33 33 -33q35 0 35 33v182q0 61 23.5 116.5t64.5 96.5t95 65t116 24q63 0 119.5 -24t96.5 -65t63.5 -96t23.5 -117v-186q0 -90 -25.5 -174t-69.5 -155.5 t-106.5 -131t-138.5 -98.5v-289q0 -61 -23.5 -116.5t-64.5 -96.5t-95.5 -64.5t-115.5 -23.5q-66 0 -121 23.5t-95 64.5t-63.5 96.5t-23.5 116.5v295q-154 80 -242 225.5t-88 331.5zM9 1609q0 61 23.5 116.5t64.5 97.5t96 65.5t117 23.5q63 0 119.5 -23.5t97.5 -65.5 t64.5 -97.5t23.5 -116.5t-23.5 -116.5t-64.5 -97.5t-97.5 -65.5t-119.5 -23.5q-61 0 -116.5 23.5t-96.5 65.5t-64.5 97.5t-23.5 116.5zM404 1609q0 61 23.5 116.5t64.5 97.5t96.5 65.5t116.5 23.5q63 0 119.5 -23.5t97.5 -65.5t64.5 -97.5t23.5 -116.5t-23.5 -116.5 t-64.5 -97.5t-97.5 -65.5t-119.5 -23.5q-61 0 -116.5 23.5t-96.5 65.5t-64.5 97.5t-23.5 116.5z" />
<glyph unicode="&#x2c6;" horiz-adv-x="905" d="M-115 1262.5q4 56.5 29 110.5t70 97l245 246q45 45 99.5 67.5t111.5 22.5t110.5 -21.5t100.5 -62.5l271 -249q45 -45 70.5 -99.5t30.5 -112t-14.5 -113.5t-66.5 -104q-43 -43 -97 -65.5t-109.5 -23.5t-111 19.5t-100.5 63.5v-2q-20 18 -38.5 36t-36.5 34l-62 -62 q-43 -45 -98.5 -66.5t-113.5 -21.5t-113.5 24t-98.5 69q-43 47 -62.5 102t-15.5 111.5z" />
<glyph unicode="&#x2dc;" horiz-adv-x="1052" d="M-100 1257q0 41 10 81t35 83q68 117 175 179.5t234 62.5q72 0 143.5 -19.5t123.5 -48.5l38 -20q84 78 195 78q35 0 71 -8.5t74 -30.5q72 -41 113 -107.5t41 -152.5q0 -80 -47 -164q-104 -180 -299 -229q-55 -14 -109 -15q-78 0 -147.5 18.5t-122.5 53.5l-33 16 q-82 -76 -198 -76q-35 0 -71 8.5t-75 30.5q-72 43 -111.5 108.5t-39.5 151.5z" />
<glyph unicode="&#x2000;" horiz-adv-x="1030" />
<glyph unicode="&#x2001;" horiz-adv-x="2060" />
<glyph unicode="&#x2002;" horiz-adv-x="1030" />
<glyph unicode="&#x2003;" horiz-adv-x="2060" />
<glyph unicode="&#x2004;" horiz-adv-x="686" />
<glyph unicode="&#x2005;" horiz-adv-x="515" />
<glyph unicode="&#x2006;" horiz-adv-x="343" />
<glyph unicode="&#x2007;" horiz-adv-x="343" />
<glyph unicode="&#x2008;" horiz-adv-x="257" />
<glyph unicode="&#x2009;" horiz-adv-x="412" />
<glyph unicode="&#x200a;" horiz-adv-x="114" />
<glyph unicode="&#x2010;" horiz-adv-x="923" d="M-100 616q0 63 22.5 120t62.5 96.5t95 63.5t121 24h522q61 0 116.5 -24t96.5 -63.5t64.5 -96.5t23.5 -120q0 -61 -23.5 -116.5t-64.5 -97.5t-96.5 -65.5t-116.5 -23.5h-522q-66 0 -121 23.5t-95 65.5t-62.5 97.5t-22.5 116.5z" />
<glyph unicode="&#x2011;" horiz-adv-x="923" d="M-100 616q0 63 22.5 120t62.5 96.5t95 63.5t121 24h522q61 0 116.5 -24t96.5 -63.5t64.5 -96.5t23.5 -120q0 -61 -23.5 -116.5t-64.5 -97.5t-96.5 -65.5t-116.5 -23.5h-522q-66 0 -121 23.5t-95 65.5t-62.5 97.5t-22.5 116.5z" />
<glyph unicode="&#x2012;" horiz-adv-x="923" d="M-100 616q0 63 22.5 120t62.5 96.5t95 63.5t121 24h522q61 0 116.5 -24t96.5 -63.5t64.5 -96.5t23.5 -120q0 -61 -23.5 -116.5t-64.5 -97.5t-96.5 -65.5t-116.5 -23.5h-522q-66 0 -121 23.5t-95 65.5t-62.5 97.5t-22.5 116.5z" />
<glyph unicode="&#x2013;" horiz-adv-x="923" d="M-100 616q0 63 22.5 120t62.5 96.5t95 63.5t121 24h522q61 0 116.5 -24t96.5 -63.5t64.5 -96.5t23.5 -120q0 -61 -23.5 -116.5t-64.5 -97.5t-96.5 -65.5t-116.5 -23.5h-522q-66 0 -121 23.5t-95 65.5t-62.5 97.5t-22.5 116.5z" />
<glyph unicode="&#x2014;" horiz-adv-x="1091" d="M-98 616q0 63 22.5 120t62.5 96.5t95 63.5t121 24h686q61 0 116.5 -24t96.5 -63.5t64.5 -96.5t23.5 -120q0 -61 -23.5 -116.5t-64.5 -97.5t-96.5 -65.5t-116.5 -23.5h-686q-66 0 -121 23.5t-95 65.5t-62.5 97.5t-22.5 116.5z" />
<glyph unicode="&#x2018;" horiz-adv-x="485" d="M-121 988.5q6 58.5 35 109.5l133 223q31 55 79 90t105.5 49.5t116 7t111.5 -40.5q55 -33 91 -81t50 -103t7 -113.5t-38 -111.5l-129 -225q-33 -55 -83 -91t-107 -49.5t-116.5 -4.5t-113.5 42q-51 31 -84.5 80t-48 104.5t-8.5 114z" />
<glyph unicode="&#x2019;" horiz-adv-x="485" d="M-120 988.5q5 58.5 34 113.5l133 223q31 55 79 90t105.5 49.5t116 7.5t111.5 -40q55 -33 91 -81t50 -103.5t7 -114t-38 -111.5l-129 -225q-33 -55 -83 -91t-107 -49.5t-116.5 -4t-113.5 41.5h3q-51 33 -85 80t-48.5 101.5t-9.5 113z" />
<glyph unicode="&#x201a;" horiz-adv-x="487" d="M-123 -147q0 35 9.5 73.5t31.5 77.5l131 221q35 51 84 87t104.5 51.5t113 8.5t110.5 -42q57 -35 93 -83t49 -103.5t6 -114t-38 -111.5l-131 -225q-37 -53 -87 -87t-106.5 -47.5t-114.5 -5t-112 38.5q-72 45 -107.5 114t-35.5 147z" />
<glyph unicode="&#x201c;" horiz-adv-x="911" d="M-104.5 988.5q6.5 58.5 34.5 109.5l133 223q31 55 79 90t105.5 49.5t116 7t111.5 -40.5q74 -45 113 -114.5t39 -147.5q0 -37 -10.5 -75.5t-30.5 -71.5l-129 -225q-33 -55 -83 -91t-106.5 -49.5t-117 -4.5t-113.5 42h2q-53 31 -87 80t-48.5 104.5t-8 114zM288 984 q5 58 34 114l133 223q39 72 111.5 110.5t148.5 38.5q37 0 76.5 -10t74.5 -33q55 -33 91 -82t50.5 -104t7.5 -113.5t-38 -109.5l-129 -225q-33 -55 -83 -91t-106.5 -49.5t-117 -4.5t-113.5 42h2q-51 33 -85 80t-48 101.5t-9 112.5z" />
<glyph unicode="&#x201d;" horiz-adv-x="911" d="M-104.5 988.5q6.5 58.5 34.5 109.5l133 223q31 55 79 90t105.5 49.5t116 7t111.5 -40.5q74 -45 113 -114.5t39 -147.5q0 -37 -10.5 -75.5t-30.5 -71.5l-129 -225q-33 -55 -83 -91t-106.5 -49.5t-117 -4.5t-113.5 42h2q-53 31 -87 80t-48.5 104.5t-8 114zM288 984 q5 58 34 114l133 223q39 72 111.5 110.5t148.5 38.5q37 0 76.5 -10t74.5 -33q55 -33 91 -82t50.5 -104t7.5 -113.5t-38 -109.5l-129 -225q-33 -55 -83 -91t-106.5 -49.5t-117 -4.5t-113.5 42h2q-51 33 -85 80t-48 101.5t-9 112.5z" />
<glyph unicode="&#x201e;" horiz-adv-x="911" d="M-106 -150q0 78 36 150l133 223q39 72 112 111t149 39q37 0 76.5 -10t74.5 -33q74 -45 113 -115t39 -147q0 -37 -10.5 -76t-30.5 -72q-31 -55 -65 -112.5t-64 -112.5q-43 -72 -112 -110t-146 -38q-41 0 -83 11.5t-79 33.5q-68 43 -105.5 112t-37.5 146zM285 -150 q0 20 4 43t21.5 63t50 102.5t92.5 162.5q41 74 113.5 113t148.5 39q37 0 76.5 -10t74.5 -33q74 -45 113 -115t39 -147q0 -37 -10.5 -76t-30.5 -72q-31 -55 -64.5 -113.5t-64.5 -111.5q-41 -74 -110.5 -111t-147.5 -37q-41 0 -83 11.5t-79 33.5q-68 43 -105.5 112t-37.5 146z " />
<glyph unicode="&#x2022;" horiz-adv-x="526" d="M-113 496q0 80 32 148.5t85 119.5t119.5 79.5t138.5 28.5q86 0 156.5 -34.5t120 -89t76 -121t26.5 -131.5q0 -78 -29.5 -146.5t-82 -119t-121 -80t-146.5 -29.5t-146.5 29.5t-118.5 80t-80 119t-30 146.5z" />
<glyph unicode="&#x2026;" horiz-adv-x="1077" d="M-98 139q0 61 23.5 116.5t64.5 97.5t96 65.5t117 23.5q63 0 119.5 -23.5t97.5 -65.5t64.5 -97.5t23.5 -116.5t-23.5 -116.5t-64.5 -97.5t-97.5 -65.5t-119.5 -23.5q-61 0 -116.5 23.5t-96.5 65.5t-64.5 97.5t-23.5 116.5zM236 139q0 61 23.5 116.5t64.5 97.5t96 65.5 t117 23.5q63 0 119.5 -23.5t97.5 -65.5t64.5 -97.5t23.5 -116.5t-23.5 -116.5t-64.5 -97.5t-97.5 -65.5t-119.5 -23.5q-61 0 -116.5 23.5t-96.5 65.5t-64.5 97.5t-23.5 116.5zM569 139q0 61 23.5 116.5t64.5 97.5t96.5 65.5t116.5 23.5q63 0 120 -23.5t97.5 -65.5 t64.5 -97.5t24 -116.5t-24 -116.5t-64.5 -97.5t-97 -65.5t-120.5 -23.5q-61 0 -116.5 23.5t-96.5 65.5t-64.5 97.5t-23.5 116.5z" />
<glyph unicode="&#x202f;" horiz-adv-x="412" />
<glyph unicode="&#x2039;" horiz-adv-x="704" d="M-147 483q0 119 81 211l355 373q45 45 101 68.5t112.5 23.5t112 -23.5t102.5 -68.5q43 -43 65.5 -98.5t23.5 -111.5t-20.5 -111.5t-64.5 -100.5l-143 -156l141 -143q43 -43 64.5 -98t20.5 -111.5t-23.5 -112t-65.5 -98.5q-47 -47 -102.5 -68.5t-112 -21.5t-111.5 23.5 t-100 66.5q-23 20 -72 69.5t-102.5 104t-102.5 102.5t-69 70q-45 45 -67.5 99.5t-22.5 111.5z" />
<glyph unicode="&#x203a;" horiz-adv-x="706" d="M-99 133q-1 57 21.5 113.5t67.5 101.5l139 139q-29 33 -59.5 68t-59.5 66q-43 49 -71.5 105t-34.5 114.5t13.5 116t72.5 110.5q45 45 101 68.5t112.5 23.5t112 -23.5t102.5 -68.5l350 -373q86 -98 86 -211q0 -57 -22.5 -111.5t-67.5 -99.5l-348 -348q-92 -90 -209 -89 t-213 87v-2q-45 45 -68.5 100.5t-24.5 112.5z" />
<glyph unicode="&#x205f;" horiz-adv-x="515" />
<glyph unicode="&#x20ac;" horiz-adv-x="1107" d="M-125 467q0 94 57 170q-27 39 -42 85t-15 93q0 92 49 164t129 104q37 84 95.5 155t133 123t162.5 80.5t187 28.5q166 0 312.5 -86t232.5 -233q16 -27 30.5 -70t14.5 -84q0 -61 -23.5 -116.5t-65.5 -97.5t-97.5 -65.5t-116.5 -23.5q-45 0 -77 7.5t-63 23.5q-6 -25 -16 -44 t-25 -40q12 -16 19.5 -29.5t13.5 -31.5q29 16 63 23t87 7q61 0 115.5 -23.5t95 -63.5t65.5 -96t25 -120q0 -43 -12.5 -81t-34.5 -76q-41 -72 -99.5 -129.5t-129.5 -98.5t-150.5 -63.5t-163.5 -22.5q-90 0 -175 26.5t-159 74t-133.5 113t-100.5 143.5q-86 33 -137 104.5 t-51 169.5z" />
<glyph unicode="&#x2122;" horiz-adv-x="1708" d="M-109 1169q0 61 24 116.5t64.5 97.5t96 66t117.5 24h325q63 0 119.5 -24t96.5 -66t63.5 -97t23.5 -117q0 -92 -45 -163.5t-119 -108.5v-143q0 -66 -22.5 -121t-62.5 -95t-95 -63.5t-121 -23.5t-121 23.5t-95 63.5t-62.5 95t-22.5 121v143q-72 37 -118 108.5t-46 163.5z M508 741v222q0 115 33.5 211t122.5 169q88 74 171 95.5t148 21.5q41 0 83 -5t93 -23q49 18 89 23t83 5q80 0 161 -26.5t148 -85.5q86 -74 126 -167.5t40 -217.5v-222q0 -66 -24.5 -121t-65.5 -95t-95 -63.5t-116 -23.5q-49 0 -95 14.5t-83 39.5q-76 -53 -170 -54 q-98 0 -172 51q-35 -23 -82 -37t-94 -14q-61 0 -116.5 23.5t-96.5 63.5t-64.5 95.5t-23.5 120.5z" />
<glyph unicode="&#x25fc;" horiz-adv-x="1157" d="M0 0v1157h1157v-1157h-1157z" />
</font>
</defs>
</svg>
