<?xml version="1.0" encoding="UTF-8" standalone="no"?>
<!DOCTYPE svg PUBLIC "-//W3C//DTD SVG 1.1//EN" "http://www.w3.org/Graphics/SVG/1.1/DTD/svg11.dtd">
<svg width="100%" height="100%" viewBox="0 0 123 95" version="1.1" xmlns="http://www.w3.org/2000/svg" xmlns:xlink="http://www.w3.org/1999/xlink" xml:space="preserve" xmlns:serif="http://www.serif.com/" style="fill-rule:evenodd;clip-rule:evenodd;stroke-linejoin:round;stroke-miterlimit:2;">
    <g>
        <path d="M3.45,27.72L21.47,27.72L44.56,1.86C46.61,-0.44 50.17,-0.64 52.46,1.41C54.76,3.46 54.96,7.02 52.91,9.32L36.49,27.72L86.81,27.72L70.39,9.32C68.34,7.02 68.54,3.46 70.84,1.41C73.14,-0.64 76.69,-0.44 78.75,1.86L101.83,27.72L119.44,27.72C121.34,27.72 122.89,29.27 122.89,31.17L122.89,40.9C122.89,42.8 121.34,44.35 119.44,44.35L112.11,44.35L108.34,91.88C108.24,93.19 107.26,94.27 105.95,94.27L16.94,94.27C15.63,94.27 14.65,93.19 14.55,91.88L10.78,44.35L3.45,44.35C1.55,44.35 0,42.8 0,40.9L0,31.17C0,29.27 1.55,27.72 3.45,27.72ZM77.67,46.22L88.58,46.22L88.58,77.75L77.67,77.75L77.67,46.22ZM56.45,46.22L67.35,46.22L67.35,77.75L56.45,77.75L56.45,46.22ZM35.23,46.22L46.14,46.22L46.14,77.75L35.23,77.75L35.23,46.22Z" style="fill:white;"/>
    </g>
</svg>
