<?xml version="1.0" encoding="UTF-8"?>
<svg xmlns="http://www.w3.org/2000/svg" xmlns:xlink="http://www.w3.org/1999/xlink" width="24px" height="px" viewBox="0 0 23 21" version="1.1">
<g id="surface1">
<path style=" stroke:none;fill-rule:nonzero;fill:rgb(0%,0%,0%);fill-opacity:1;" d="M 8.304688 0 C 7.113281 0 6.121094 0.839844 5.835938 1.976562 C 5.804688 1.976562 5.78125 1.96875 5.75 1.96875 C 4.339844 1.96875 3.195312 3.144531 3.195312 4.59375 C 3.195312 4.789062 3.21875 4.984375 3.261719 5.167969 C 2.097656 5.660156 1.277344 6.832031 1.277344 8.203125 C 1.277344 8.71875 1.40625 9.199219 1.609375 9.632812 C 0.652344 10.199219 0 11.25 0 12.46875 C 0 13.835938 0.816406 15.007812 1.972656 15.5 C 1.9375 15.6875 1.917969 15.882812 1.917969 16.078125 C 1.917969 17.710938 3.203125 19.03125 4.792969 19.03125 C 4.957031 19.03125 5.113281 19.011719 5.269531 18.980469 C 5.652344 20.152344 6.714844 21 7.984375 21 C 9.574219 21 10.859375 19.679688 10.859375 18.046875 L 10.859375 2.625 C 10.859375 1.175781 9.714844 0 8.304688 0 Z M 23 12.46875 C 23 11.25 22.347656 10.199219 21.390625 9.632812 C 21.597656 9.199219 21.722656 8.71875 21.722656 8.203125 C 21.722656 6.832031 20.902344 5.660156 19.738281 5.167969 C 19.777344 4.984375 19.804688 4.789062 19.804688 4.59375 C 19.804688 3.144531 18.660156 1.96875 17.25 1.96875 C 17.21875 1.96875 17.191406 1.976562 17.164062 1.976562 C 16.878906 0.839844 15.886719 0 14.695312 0 C 13.285156 0 12.140625 1.171875 12.140625 2.625 L 12.140625 18.046875 C 12.140625 19.679688 13.425781 21 15.015625 21 C 16.285156 21 17.347656 20.152344 17.730469 18.980469 C 17.886719 19.011719 18.042969 19.03125 18.207031 19.03125 C 19.796875 19.03125 21.082031 17.710938 21.082031 16.078125 C 21.082031 15.882812 21.0625 15.6875 21.027344 15.5 C 22.183594 15.007812 23 13.835938 23 12.46875 Z M 23 12.46875 "/>
</g>
</svg>
