<?xml version="1.0" encoding="UTF-8"?>
<svg xmlns="http://www.w3.org/2000/svg" xmlns:xlink="http://www.w3.org/1999/xlink" width="169px" height="150px" viewBox="0 0 169 150" version="1.1">
<g id="surface1">
<path style=" stroke:none;fill-rule:nonzero;fill:rgb(0%,0%,0%);fill-opacity:1;" d="M 55.832031 84.375 L 40.742188 84.375 C 38.25 84.375 36.214844 82.792969 36.214844 80.859375 L 36.214844 69.140625 C 36.214844 67.207031 38.25 65.625 40.742188 65.625 L 55.832031 65.625 C 58.320312 65.625 60.355469 67.207031 60.355469 69.140625 L 60.355469 80.859375 C 60.355469 82.792969 58.320312 84.375 55.832031 84.375 Z M 96.570312 80.859375 L 96.570312 69.140625 C 96.570312 67.207031 94.535156 65.625 92.042969 65.625 L 76.957031 65.625 C 74.464844 65.625 72.429688 67.207031 72.429688 69.140625 L 72.429688 80.859375 C 72.429688 82.792969 74.464844 84.375 76.957031 84.375 L 92.042969 84.375 C 94.535156 84.375 96.570312 82.792969 96.570312 80.859375 Z M 132.785156 80.859375 L 132.785156 69.140625 C 132.785156 67.207031 130.75 65.625 128.257812 65.625 L 113.167969 65.625 C 110.679688 65.625 108.644531 67.207031 108.644531 69.140625 L 108.644531 80.859375 C 108.644531 82.792969 110.679688 84.375 113.167969 84.375 L 128.257812 84.375 C 130.75 84.375 132.785156 82.792969 132.785156 80.859375 Z M 96.570312 108.984375 L 96.570312 97.265625 C 96.570312 95.332031 94.535156 93.75 92.042969 93.75 L 76.957031 93.75 C 74.464844 93.75 72.429688 95.332031 72.429688 97.265625 L 72.429688 108.984375 C 72.429688 110.917969 74.464844 112.5 76.957031 112.5 L 92.042969 112.5 C 94.535156 112.5 96.570312 110.917969 96.570312 108.984375 Z M 60.355469 108.984375 L 60.355469 97.265625 C 60.355469 95.332031 58.320312 93.75 55.832031 93.75 L 40.742188 93.75 C 38.25 93.75 36.214844 95.332031 36.214844 97.265625 L 36.214844 108.984375 C 36.214844 110.917969 38.25 112.5 40.742188 112.5 L 55.832031 112.5 C 58.320312 112.5 60.355469 110.917969 60.355469 108.984375 Z M 132.785156 108.984375 L 132.785156 97.265625 C 132.785156 95.332031 130.75 93.75 128.257812 93.75 L 113.167969 93.75 C 110.679688 93.75 108.644531 95.332031 108.644531 97.265625 L 108.644531 108.984375 C 108.644531 110.917969 110.679688 112.5 113.167969 112.5 L 128.257812 112.5 C 130.75 112.5 132.785156 110.917969 132.785156 108.984375 Z M 169 32.8125 L 169 135.9375 C 169 143.703125 160.890625 150 150.894531 150 L 18.105469 150 C 8.109375 150 0 143.703125 0 135.9375 L 0 32.8125 C 0 25.046875 8.109375 18.75 18.105469 18.75 L 36.214844 18.75 L 36.214844 3.515625 C 36.214844 1.582031 38.25 0 40.742188 0 L 55.832031 0 C 58.320312 0 60.355469 1.582031 60.355469 3.515625 L 60.355469 18.75 L 108.644531 18.75 L 108.644531 3.515625 C 108.644531 1.582031 110.679688 0 113.167969 0 L 128.257812 0 C 130.75 0 132.785156 1.582031 132.785156 3.515625 L 132.785156 18.75 L 150.894531 18.75 C 160.890625 18.75 169 25.046875 169 32.8125 Z M 150.894531 134.179688 L 150.894531 46.875 L 18.105469 46.875 L 18.105469 134.179688 C 18.105469 135.148438 19.125 135.9375 20.371094 135.9375 L 148.628906 135.9375 C 149.875 135.9375 150.894531 135.148438 150.894531 134.179688 Z M 150.894531 134.179688 "/>
</g>
</svg>
