<?xml version="1.0" encoding="UTF-8"?>
<svg xmlns="http://www.w3.org/2000/svg" xmlns:xlink="http://www.w3.org/1999/xlink" width="169px" height="150px" viewBox="0 0 169 150" version="1.1">
<g id="surface1">
<path style=" stroke:none;fill-rule:nonzero;fill:rgb(0%,0%,0%);fill-opacity:1;" d="M 84.5 2.34375 C 39.28125 2.34375 2.640625 34.863281 2.640625 75 C 2.640625 115.136719 39.28125 147.65625 84.5 147.65625 C 129.71875 147.65625 166.359375 115.136719 166.359375 75 C 166.359375 34.863281 129.71875 2.34375 84.5 2.34375 Z M 84.5 133.59375 C 48.027344 133.59375 18.484375 107.375 18.484375 75 C 18.484375 42.625 48.027344 16.40625 84.5 16.40625 C 120.972656 16.40625 150.515625 42.625 150.515625 75 C 150.515625 107.375 120.972656 133.59375 84.5 133.59375 Z M 104.898438 103.007812 L 76.875 84.933594 C 75.851562 84.257812 75.257812 83.203125 75.257812 82.089844 L 75.257812 33.984375 C 75.257812 32.050781 77.039062 30.46875 79.21875 30.46875 L 89.78125 30.46875 C 91.960938 30.46875 93.742188 32.050781 93.742188 33.984375 L 93.742188 75.5 L 115.792969 89.734375 C 117.574219 90.878906 117.9375 93.078125 116.648438 94.65625 L 110.445312 102.246094 C 109.15625 103.796875 106.679688 104.148438 104.898438 103.007812 Z M 104.898438 103.007812 "/>
</g>
</svg>
