<?xml version="1.0" encoding="UTF-8" standalone="no"?>
<!DOCTYPE svg PUBLIC "-//W3C//DTD SVG 1.1//EN" "http://www.w3.org/Graphics/SVG/1.1/DTD/svg11.dtd">
<svg width="100%" height="100%" viewBox="0 0 117 123" version="1.1" xmlns="http://www.w3.org/2000/svg" xmlns:xlink="http://www.w3.org/1999/xlink" xml:space="preserve" xmlns:serif="http://www.serif.com/" style="fill-rule:evenodd;clip-rule:evenodd;stroke-linejoin:round;stroke-miterlimit:2;">
    <g>
        <path d="M94.8,15.36C93.62,15.02 92.94,13.8 93.27,12.62C93.61,11.44 94.83,10.76 96.01,11.09C99.16,11.99 101.8,13.48 103.83,15.68C105.86,17.9 107.22,20.78 107.77,24.47C107.95,25.68 107.11,26.81 105.89,26.99C104.68,27.17 103.55,26.33 103.37,25.11C102.96,22.35 101.99,20.24 100.56,18.68C99.13,17.12 97.17,16.04 94.8,15.36ZM37.87,67.17L0.61,28.09C-0.23,27.2 -0.2,25.8 0.69,24.96C1.12,24.55 1.67,24.35 2.22,24.35L2.22,24.34L16.75,24.34L2.27,9.86C1.4,8.99 1.4,7.59 2.27,6.72C3.14,5.85 4.54,5.85 5.41,6.72L23.03,24.34L65.23,24.34C65.69,17.86 68.47,12.03 72.75,7.7C77.44,2.94 83.92,0 91.08,0C98.24,0 104.72,2.94 109.42,7.7C114.1,12.45 117,19 117,26.23C117,33.46 114.1,40.01 109.42,44.76C104.72,49.52 98.24,52.46 91.08,52.46C87.89,52.46 84.83,51.87 81.99,50.8C79.66,49.92 77.48,48.7 75.51,47.2L56,67.18L56,105.56L70.94,119.01C71.85,119.83 71.92,121.23 71.1,122.14C70.66,122.63 70.06,122.87 69.45,122.87L24.77,122.87C23.54,122.87 22.55,121.88 22.55,120.65C22.55,119.95 22.87,119.33 23.37,118.92L37.87,105.56L37.87,67.17ZM69.68,24.34L92.56,24.34C93.79,24.34 94.78,25.33 94.78,26.56C94.78,27.22 94.49,27.82 94.03,28.23L78.64,44C80.14,45.08 81.79,45.98 83.56,46.65C85.89,47.53 88.43,48.02 91.08,48.02C97.01,48.02 102.38,45.59 106.26,41.66C110.15,37.72 112.56,32.27 112.56,26.24C112.56,20.21 110.15,14.76 106.26,10.82C102.38,6.89 97.01,4.46 91.08,4.46C85.15,4.46 79.78,6.89 75.9,10.82C72.42,14.33 70.13,19.06 69.68,24.34ZM7.4,28.78L14.22,35.93C14.36,35.9 14.51,35.88 14.67,35.88L79.44,35.88C79.72,35.88 79.98,35.93 80.23,36.02L87.31,28.77L7.4,28.77L7.4,28.78ZM18.41,40.33L41.59,64.64C42.04,65.05 42.32,65.63 42.32,66.29L42.32,106.55C42.32,107.15 42.08,107.75 41.6,108.18L30.46,118.44L63.68,118.44L52.39,108.28C51.89,107.87 51.56,107.25 51.56,106.55L51.56,66.28L51.57,66.28C51.57,65.72 51.78,65.17 52.2,64.73L76.03,40.32L18.41,40.32L18.41,40.33Z" style="fill:white;fill-rule:nonzero;"/>
    </g>
</svg>
