<?xml version="1.0" encoding="UTF-8" standalone="no"?>
<!DOCTYPE svg PUBLIC "-//W3C//DTD SVG 1.1//EN" "http://www.w3.org/Graphics/SVG/1.1/DTD/svg11.dtd">
<svg width="100%" height="100%" viewBox="0 0 123 116" version="1.1" xmlns="http://www.w3.org/2000/svg" xmlns:xlink="http://www.w3.org/1999/xlink" xml:space="preserve" xmlns:serif="http://www.serif.com/" style="fill-rule:evenodd;clip-rule:evenodd;stroke-linejoin:round;stroke-miterlimit:2;">
    <g>
        <path d="M60.89,8.37C63.88,3.7 67.85,1.21 72.01,0.34C75.96,-0.48 80.01,0.23 83.5,1.99C86.94,3.73 89.89,6.51 91.7,9.87C92.38,11.13 92.91,12.47 93.25,13.85C95.28,13.81 97.35,14.16 99.36,14.84C103.18,16.13 106.85,18.66 109.69,22.01C112.54,25.38 114.57,29.63 115.09,34.34C115.33,36.51 115.24,38.77 114.77,41.08C116.86,42.95 118.6,45.06 119.91,47.31C121.94,50.78 123,54.63 122.89,58.54C122.78,62.48 121.48,66.42 118.8,70.05C117.11,72.34 114.88,74.49 112.07,76.42C112.33,82.44 110.55,87.84 107.67,92.02C104.41,96.74 99.69,99.94 94.79,100.8C93.71,104.99 90.93,108.68 87.34,111.25C82.8,114.5 76.88,116.03 71.47,114.55C67.48,113.46 63.85,110.82 61.36,106.17C58.33,111.28 54.17,113.98 49.81,114.89C44.58,115.98 39.17,114.37 35.09,111.19C31.83,108.65 29.38,105.08 28.5,101.03C26.79,100.96 25.06,100.62 23.37,100.05C19.64,98.79 16.05,96.35 13.24,93.1C10.42,89.85 8.37,85.76 7.73,81.21C7.4,78.84 7.45,76.36 7.97,73.81C6.14,72.15 4.57,70.28 3.32,68.25C1.14,64.78 -0.05,60.86 0,56.83C0.05,52.77 1.34,48.65 4.14,44.83C5.77,42.61 7.92,40.49 10.64,38.55C10.61,37.81 10.61,37.07 10.63,36.34C10.85,30.41 13.03,25.2 16.22,21.31C19.52,17.28 23.94,14.64 28.48,14L28.5,14C28.66,13.33 28.85,12.68 29.09,12.04C30.55,8.07 33.56,4.7 37.25,2.55C40.96,0.39 45.42,-0.56 49.76,0.34C53.93,1.2 57.9,3.7 60.89,8.37ZM93.02,21.89C92.36,24.07 91.18,26.26 89.38,28.39C88.01,30.02 85.58,30.23 83.95,28.86C82.32,27.49 82.11,25.06 83.48,23.43C86.38,19.98 86.41,16.36 84.88,13.53C83.82,11.57 82.07,9.93 80.01,8.89C78,7.88 75.73,7.45 73.57,7.9C70.69,8.5 67.9,10.73 65.97,15.26C66,15.46 66.02,15.67 66.02,15.88L66.02,95.57C66.08,95.76 66.13,95.97 66.17,96.17C67.28,102.92 70.2,106.17 73.48,107.07C76.51,107.9 80,106.93 82.78,104.93C85.51,102.97 87.46,100.11 87.48,97.1C87.51,93.67 84.99,89.79 78.25,86.35C76.34,85.38 75.59,83.04 76.56,81.13C77.53,79.22 79.87,78.47 81.78,79.44C89.22,83.24 93.14,87.9 94.58,92.61C96.97,91.83 99.29,90.01 101.05,87.47C103.26,84.28 104.51,79.99 103.91,75.17C103.56,73.52 104.28,71.76 105.81,70.87C108.73,69.16 110.88,67.27 112.34,65.28C114,63.04 114.8,60.66 114.87,58.32C114.94,55.96 114.26,53.58 112.96,51.36C111.77,49.33 110.09,47.46 107.98,45.88C106.51,44.9 105.81,43.01 106.41,41.26C107.12,39.16 107.31,37.12 107.1,35.2C106.77,32.18 105.43,29.43 103.56,27.2C101.67,24.96 99.25,23.28 96.78,22.45C95.5,22.01 94.22,21.81 93.02,21.89ZM28.85,93.03C30.39,88.19 34.45,83.36 42.11,79.45C44.02,78.48 46.35,79.23 47.33,81.14C48.3,83.05 47.55,85.38 45.64,86.36C38.54,89.99 35.87,94.15 35.87,97.78C35.87,100.61 37.48,103.26 39.83,105.09C42.21,106.94 45.29,107.9 48.19,107.3C51.81,106.55 55.3,103.2 57.11,95.91L57.11,19.22C55.3,11.98 51.81,8.65 48.2,7.9C45.82,7.4 43.29,7.97 41.13,9.23C38.95,10.5 37.19,12.45 36.36,14.7C35.25,17.7 35.91,21.39 39.66,24.86C41.22,26.31 41.32,28.74 39.87,30.3C38.42,31.86 35.99,31.96 34.43,30.51C31.51,27.81 29.71,24.94 28.81,22.08C26.51,22.63 24.24,24.15 22.41,26.38C20.26,29 18.79,32.54 18.64,36.61C18.6,37.69 18.66,38.83 18.82,40L18.81,40C19.02,41.52 18.34,43.09 16.95,43.95C14.14,45.68 12.06,47.58 10.61,49.56C8.85,51.96 8.04,54.48 8.01,56.91C7.98,59.38 8.74,61.83 10.1,64.04C11.25,65.91 12.83,67.61 14.75,69.04C16.19,70.03 16.87,71.89 16.28,73.63C15.52,75.88 15.35,78.07 15.64,80.1C16.05,83.03 17.41,85.7 19.27,87.85C21.14,90.01 23.5,91.62 25.92,92.44C26.9,92.8 27.89,92.99 28.85,93.03ZM29.73,38.54C31.25,37.05 33.69,37.07 35.19,38.59C36.68,40.11 36.66,42.55 35.14,44.05C31.83,47.31 30.1,51.51 29.92,55.81C29.74,60.24 31.18,64.79 34.2,68.54C35.54,70.2 35.27,72.63 33.61,73.97C31.95,75.31 29.52,75.04 28.18,73.38C23.95,68.14 21.94,61.76 22.2,55.51C22.47,49.29 24.96,43.23 29.73,38.54ZM84.51,42.25C82.78,41 82.4,38.58 83.65,36.85C84.9,35.12 87.32,34.73 89.05,35.99C89.82,36.55 90.55,37.14 91.23,37.76C96.26,42.3 99.01,48.29 99.51,54.49C100.01,60.63 98.3,66.97 94.43,72.29C93.86,73.07 93.25,73.83 92.59,74.56C91.16,76.15 88.72,76.28 87.13,74.85C85.54,73.42 85.41,70.98 86.84,69.39C87.32,68.86 87.76,68.31 88.17,67.75C90.93,63.95 92.15,59.45 91.8,55.09C91.45,50.8 89.55,46.65 86.06,43.51C85.57,43.07 85.06,42.65 84.51,42.25Z" style="fill:white;fill-rule:nonzero;"/>
    </g>
</svg>
